<svg width="1440" height="163" viewBox="0 0 1440 163" fill="none" xmlns="http://www.w3.org/2000/svg">
<g opacity="0.2">
<mask id="mask0" mask-type="alpha" maskUnits="userSpaceOnUse" x="1189" y="6" width="138" height="139">
<circle cx="1258.11" cy="75.6659" r="68.8085" fill="#C4C4C4"/>
</mask>
<g mask="url(#mask0)">
<path fill-rule="evenodd" clip-rule="evenodd" d="M1136.93 74.5285L1290.64 -14.2109L1288.14 -18.541L1134.43 70.1984L1136.93 74.5285ZM1146.78 85.2679L1300.49 -3.47151L1297.99 -7.80164L1144.28 80.9378L1146.78 85.2679ZM1310.34 7.26787L1156.64 96.0073L1154.14 91.6772L1307.84 2.93774L1310.34 7.26787ZM1166.49 106.747L1320.19 18.0073L1317.69 13.6771L1163.99 102.417L1166.49 106.747ZM1330.04 28.7466L1176.34 117.486L1173.84 113.156L1327.54 24.4165L1330.04 28.7466ZM1186.19 128.225L1339.89 39.486L1337.39 35.1559L1183.69 123.895L1186.19 128.225ZM1349.74 50.2254L1196.04 138.965L1193.54 134.635L1347.24 45.8953L1349.74 50.2254ZM1205.89 149.704L1359.59 60.9648L1357.09 56.6346L1203.39 145.374L1205.89 149.704ZM1369.44 71.7041L1215.74 160.444L1213.24 156.113L1366.94 67.374L1369.44 71.7041ZM1225.59 171.183L1379.29 82.4435L1376.79 78.1134L1223.09 166.853L1225.59 171.183Z" fill="#5EB1FF"/>
</g>
</g>
<path d="M1440 163L-0.000976562 163L-0.000979797 126C-0.000979797 126 912.729 3.08383e-05 1180 7.47271e-06C1447.27 -1.58928e-05 1440 84.5 1440 84.5L1440 163Z" fill="white"/>
<g opacity="0.2">
<path fill-rule="evenodd" clip-rule="evenodd" d="M120.574 83.0677C120.574 85.0796 118.911 86.7105 116.86 86.7105C114.808 86.7105 113.146 85.0796 113.146 83.0677C113.146 81.0558 114.808 79.4248 116.86 79.4248C118.911 79.4248 120.574 81.0558 120.574 83.0677ZM120.574 104.925C120.574 106.937 118.911 108.568 116.86 108.568C114.808 108.568 113.146 106.937 113.146 104.925C113.146 102.913 114.808 101.282 116.86 101.282C118.911 101.282 120.574 102.913 120.574 104.925ZM116.86 130.425C118.911 130.425 120.574 128.794 120.574 126.782C120.574 124.77 118.911 123.139 116.86 123.139C114.808 123.139 113.146 124.77 113.146 126.782C113.146 128.794 114.808 130.425 116.86 130.425ZM142.86 83.0677C142.86 85.0796 141.197 86.7105 139.146 86.7105C137.094 86.7105 135.431 85.0796 135.431 83.0677C135.431 81.0558 137.094 79.4248 139.146 79.4248C141.197 79.4248 142.86 81.0558 142.86 83.0677ZM139.146 108.568C141.197 108.568 142.86 106.937 142.86 104.925C142.86 102.913 141.197 101.282 139.146 101.282C137.094 101.282 135.431 102.913 135.431 104.925C135.431 106.937 137.094 108.568 139.146 108.568ZM142.86 126.782C142.86 128.794 141.197 130.425 139.146 130.425C137.094 130.425 135.431 128.794 135.431 126.782C135.431 124.77 137.094 123.139 139.146 123.139C141.197 123.139 142.86 124.77 142.86 126.782ZM161.431 86.7105C163.483 86.7105 165.146 85.0796 165.146 83.0677C165.146 81.0558 163.483 79.4248 161.431 79.4248C159.38 79.4248 157.717 81.0558 157.717 83.0677C157.717 85.0796 159.38 86.7105 161.431 86.7105ZM165.146 104.925C165.146 106.937 163.483 108.568 161.431 108.568C159.38 108.568 157.717 106.937 157.717 104.925C157.717 102.913 159.38 101.282 161.431 101.282C163.483 101.282 165.146 102.913 165.146 104.925ZM161.431 130.425C163.483 130.425 165.146 128.794 165.146 126.782C165.146 124.77 163.483 123.139 161.431 123.139C159.38 123.139 157.717 124.77 157.717 126.782C157.717 128.794 159.38 130.425 161.431 130.425Z" fill="#5EB1FF"/>
</g>
</svg>
