<svg width="1282" height="418" viewBox="0 0 1282 418" fill="none" xmlns="http://www.w3.org/2000/svg">
<circle cx="1108.64" cy="13.6203" r="403.62" fill="#45A6FF"/>
<path d="M29.0978 167.851C27.3107 165.223 23.5572 164.907 21.3562 167.2L16.5096 172.248C16.0615 172.715 15.2947 172.64 14.9459 172.095L12.4532 168.2C10.6581 165.395 6.67413 165.096 4.48026 167.601L0.495382 172.152C-0.232303 172.983 -0.148555 174.246 0.682437 174.974C1.51343 175.702 2.77699 175.618 3.50467 174.787L7.48955 170.236C7.92832 169.735 8.72511 169.795 9.08414 170.356L11.5768 174.251C13.3209 176.976 17.1545 177.352 19.3951 175.018L24.2418 169.97C24.682 169.511 25.4326 169.574 25.7901 170.1L28.6987 174.377C30.5103 177.041 34.3315 177.322 36.5129 174.951L40.6176 170.49C41.3655 169.677 41.3129 168.412 40.5 167.664C39.6872 166.916 38.4219 166.969 37.674 167.782L33.5693 172.243C33.133 172.717 32.3687 172.661 32.0064 172.128L29.0978 167.851Z" fill="#F3DB02"/>
<g opacity="0.2">
<path fill-rule="evenodd" clip-rule="evenodd" d="M1183.56 175.662C1183.56 177.043 1182.44 178.162 1181.06 178.162C1179.68 178.162 1178.56 177.043 1178.56 175.662C1178.56 174.281 1179.68 173.162 1181.06 173.162C1182.44 173.162 1183.56 174.281 1183.56 175.662ZM1183.56 190.662C1183.56 192.043 1182.44 193.162 1181.06 193.162C1179.68 193.162 1178.56 192.043 1178.56 190.662C1178.56 189.281 1179.68 188.162 1181.06 188.162C1182.44 188.162 1183.56 189.281 1183.56 190.662ZM1181.06 208.162C1182.44 208.162 1183.56 207.043 1183.56 205.662C1183.56 204.281 1182.44 203.162 1181.06 203.162C1179.68 203.162 1178.56 204.281 1178.56 205.662C1178.56 207.043 1179.68 208.162 1181.06 208.162ZM1198.56 175.662C1198.56 177.043 1197.44 178.162 1196.06 178.162C1194.68 178.162 1193.56 177.043 1193.56 175.662C1193.56 174.281 1194.68 173.162 1196.06 173.162C1197.44 173.162 1198.56 174.281 1198.56 175.662ZM1196.06 193.162C1197.44 193.162 1198.56 192.043 1198.56 190.662C1198.56 189.281 1197.44 188.162 1196.06 188.162C1194.68 188.162 1193.56 189.281 1193.56 190.662C1193.56 192.043 1194.68 193.162 1196.06 193.162ZM1198.56 205.662C1198.56 207.043 1197.44 208.162 1196.06 208.162C1194.68 208.162 1193.56 207.043 1193.56 205.662C1193.56 204.281 1194.68 203.162 1196.06 203.162C1197.44 203.162 1198.56 204.281 1198.56 205.662ZM1211.06 178.162C1212.44 178.162 1213.56 177.043 1213.56 175.662C1213.56 174.281 1212.44 173.162 1211.06 173.162C1209.68 173.162 1208.56 174.281 1208.56 175.662C1208.56 177.043 1209.68 178.162 1211.06 178.162ZM1213.56 190.662C1213.56 192.043 1212.44 193.162 1211.06 193.162C1209.68 193.162 1208.56 192.043 1208.56 190.662C1208.56 189.281 1209.68 188.162 1211.06 188.162C1212.44 188.162 1213.56 189.281 1213.56 190.662ZM1211.06 208.162C1212.44 208.162 1213.56 207.043 1213.56 205.662C1213.56 204.281 1212.44 203.162 1211.06 203.162C1209.68 203.162 1208.56 204.281 1208.56 205.662C1208.56 207.043 1209.68 208.162 1211.06 208.162Z" fill="white"/>
</g>
</svg>
