<svg width="803" height="567" viewBox="0 0 803 567" fill="none" xmlns="http://www.w3.org/2000/svg">
<circle cx="647.043" cy="12.9573" r="553.957" fill="#45A6FF"/>
<path d="M23.5109 170.717C22.0792 168.612 19.072 168.359 17.3086 170.196L13.4257 174.24C13.0667 174.614 12.4524 174.554 12.1729 174.117L10.1758 170.997C8.73763 168.75 5.54583 168.51 3.78817 170.517L0.595614 174.163C0.0126166 174.829 0.0797131 175.841 0.745477 176.424C1.41124 177.007 2.42356 176.94 3.00656 176.274L6.19912 172.629C6.55065 172.227 7.18901 172.275 7.47665 172.725L9.47373 175.845C10.871 178.028 13.9424 178.33 15.7375 176.46L19.6204 172.415C19.9731 172.048 20.5745 172.098 20.8609 172.519L23.1912 175.946C24.6426 178.081 27.7041 178.305 29.4517 176.406L32.7403 172.832C33.3395 172.181 33.2973 171.167 32.6461 170.568C31.9948 169.969 30.9811 170.011 30.382 170.662L27.0933 174.236C26.7438 174.616 26.1315 174.571 25.8413 174.144L23.5109 170.717Z" fill="white"/>
<path d="M37.883 185.33C36.4512 183.224 33.4441 182.971 31.6807 184.808L27.7977 188.853C27.4387 189.227 26.8244 189.166 26.545 188.73L24.5479 185.609C23.1097 183.362 19.9179 183.123 18.1602 185.13L14.9677 188.776C14.3847 189.441 14.4518 190.454 15.1175 191.037C15.7833 191.62 16.7956 191.553 17.3786 190.887L20.5712 187.241C20.9227 186.84 21.5611 186.887 21.8487 187.337L23.8458 190.457C25.2431 192.641 28.3145 192.942 30.1095 191.072L33.9925 187.027C34.3452 186.66 34.9466 186.711 35.233 187.132L37.5633 190.559C39.0147 192.693 42.0761 192.918 43.8237 191.018L47.1124 187.444C47.7115 186.793 47.6694 185.779 47.0181 185.18C46.3669 184.581 45.3532 184.623 44.754 185.274L41.4654 188.849C41.1159 189.228 40.5036 189.183 40.2133 188.757L37.883 185.33Z" fill="white"/>
</svg>
