<svg width="40" height="32" viewBox="0 0 40 32" fill="none" xmlns="http://www.w3.org/2000/svg">
<path d="M34.1578 1.29755C32.5383 0.473764 30.6807 0 28.6989 0C25.2024 0 22.071 1.4712 20.0034 3.77816C17.926 1.4712 14.7976 0 11.2963 0C9.31927 0 7.46513 0.473764 5.842 1.29755C2.35951 3.07831 0 6.50204 0 10.4366C0 11.5631 0.198519 12.6433 0.558079 13.654C2.49716 21.7019 20.0034 31.8519 20.0034 31.8519C20.0034 31.8519 37.4981 21.7021 39.4399 13.654C39.7994 12.6433 40 11.5616 40 10.4366C40 6.5035 37.6405 3.08083 34.1578 1.29755Z" fill="#FC4F4F"/>
</svg>
