<svg width="42" height="12" viewBox="0 0 42 12" fill="none" xmlns="http://www.w3.org/2000/svg">
<path d="M29.3497 2.82926C27.5626 0.20114 23.8091 -0.114548 21.6082 2.17815L16.7615 7.22673C16.3134 7.69352 15.5467 7.61827 15.1979 7.07326L12.7052 3.17848C10.91 0.373614 6.92609 0.0744672 4.73221 2.57981L0.747335 7.13041C0.01965 7.9614 0.103398 9.22496 0.93439 9.95264C1.76538 10.6803 3.02894 10.5966 3.75663 9.76559L7.7415 5.21498C8.18028 4.71392 8.97706 4.77375 9.33609 5.33472L11.8288 9.2295C13.5728 11.9545 17.4065 12.3308 19.6471 9.99686L24.4937 4.94827C24.9339 4.48974 25.6846 4.55287 26.042 5.0785L28.9507 9.35592C30.7622 12.02 34.5835 12.3006 36.7648 9.92981L40.8696 5.46848C41.6175 4.65562 41.5648 3.39039 40.752 2.6425C39.9391 1.89461 38.6739 1.94726 37.926 2.76012L33.8212 7.22146C33.3849 7.69562 32.6207 7.63949 32.2584 7.10668L29.3497 2.82926Z" fill="#F3DB02"/>
</svg>
