<svg width="487" height="679" viewBox="0 0 487 679" fill="none" xmlns="http://www.w3.org/2000/svg">
<path d="M47.8981 26.562C44.9788 22.137 38.8475 21.6055 35.2521 25.4657L27.3351 33.9661C26.6031 34.752 25.3506 34.6253 24.7808 33.7076L20.7089 27.15C17.7765 22.4274 11.2687 21.9237 7.68502 26.142L1.17567 33.8039C-0.0130154 35.203 0.123789 37.3305 1.48123 38.5557C2.83866 39.7809 4.9027 39.6399 6.09139 38.2407L12.6007 30.5788C13.3175 29.7352 14.619 29.8359 15.2055 30.7804L19.2774 37.3381C22.1263 41.9263 28.3886 42.5598 32.0486 38.6301L39.9657 30.1298C40.6848 29.3577 41.911 29.464 42.4949 30.349L47.2462 37.551C50.2054 42.0365 56.4475 42.509 60.0107 38.5173L66.7159 31.0057C67.9376 29.637 67.8516 27.5068 66.5238 26.2475C65.196 24.9883 63.1292 25.077 61.9075 26.4456L55.2023 33.9572C54.4897 34.7555 53.2412 34.661 52.6494 33.7639L47.8981 26.562Z" fill="#5EB1FF"/>
<ellipse cx="282.63" cy="204.429" rx="204.37" ry="204.429" fill="#F3DB02"/>
<rect x="55.8735" y="70.7666" width="290.823" height="576.233" rx="40" fill="#F3F3F3"/>
<rect x="71.6003" y="88.4395" width="259.37" height="538.139" rx="30" fill="#F9F9F9"/>
<rect opacity="0.1" x="90.5786" y="559.837" width="220.508" height="48.9716" rx="12.5" fill="#F7F7F7" stroke="#676767"/>
<ellipse cx="289.159" cy="607.323" rx="12.4893" ry="12.4929" fill="#5EB1FF"/>
<path d="M295.032 606.024C296.032 606.601 296.032 608.044 295.032 608.622L287.056 613.228C285.914 613.888 284.538 612.859 284.847 611.577L285.79 607.675C285.845 607.443 285.845 607.202 285.79 606.971L284.847 603.068C284.538 601.787 285.914 600.758 287.056 601.417L295.032 606.024Z" fill="white"/>
<path d="M176.738 225.545C176.621 225.545 176.525 225.513 176.45 225.449C176.376 225.374 176.338 225.278 176.338 225.161V214.745C176.338 214.628 176.376 214.532 176.45 214.457C176.525 214.382 176.621 214.345 176.738 214.345H178.002C178.226 214.345 178.386 214.446 178.482 214.649L181.57 220.409L184.69 214.649C184.797 214.446 184.957 214.345 185.17 214.345H186.418C186.536 214.345 186.632 214.382 186.706 214.457C186.781 214.532 186.818 214.628 186.818 214.745V225.161C186.818 225.278 186.781 225.374 186.706 225.449C186.632 225.513 186.536 225.545 186.418 225.545H185.074C184.968 225.545 184.877 225.508 184.802 225.433C184.728 225.358 184.69 225.268 184.69 225.161V218.233L182.45 222.505C182.312 222.74 182.13 222.857 181.906 222.857H181.25C181.026 222.857 180.845 222.74 180.706 222.505L178.466 218.233V225.161C178.466 225.268 178.429 225.358 178.354 225.433C178.29 225.508 178.2 225.545 178.082 225.545H176.738ZM190.619 228.585C190.534 228.585 190.459 228.553 190.395 228.489C190.331 228.425 190.299 228.35 190.299 228.265C190.299 228.169 190.32 228.084 190.363 228.009L191.611 225.049L188.539 217.801C188.496 217.705 188.475 217.63 188.475 217.577C188.486 217.481 188.523 217.401 188.587 217.337C188.651 217.262 188.731 217.225 188.827 217.225H190.123C190.326 217.225 190.47 217.326 190.555 217.529L192.683 222.761L194.875 217.529C194.96 217.326 195.104 217.225 195.307 217.225H196.587C196.672 217.225 196.747 217.257 196.811 217.321C196.886 217.385 196.923 217.46 196.923 217.545C196.923 217.62 196.902 217.705 196.859 217.801L192.331 228.281C192.235 228.484 192.086 228.585 191.883 228.585H190.619ZM198.879 225.545C198.772 225.545 198.681 225.508 198.607 225.433C198.532 225.358 198.495 225.268 198.495 225.161V214.745C198.495 214.628 198.527 214.532 198.591 214.457C198.665 214.382 198.761 214.345 198.879 214.345H203.519C204.767 214.345 205.695 214.622 206.303 215.177C206.921 215.721 207.231 216.468 207.231 217.417C207.231 217.972 207.092 218.446 206.815 218.841C206.548 219.225 206.233 219.502 205.871 219.673C206.319 219.876 206.692 220.206 206.991 220.665C207.3 221.124 207.455 221.646 207.455 222.233C207.455 223.225 207.119 224.025 206.447 224.633C205.785 225.241 204.852 225.545 203.647 225.545H198.879ZM203.231 218.937C203.785 218.937 204.207 218.804 204.495 218.537C204.783 218.27 204.927 217.913 204.927 217.465C204.927 217.006 204.783 216.654 204.495 216.409C204.207 216.153 203.785 216.025 203.231 216.025H200.719V218.937H203.231ZM203.391 223.849C203.945 223.849 204.377 223.7 204.687 223.401C204.996 223.092 205.151 222.702 205.151 222.233C205.151 221.753 204.996 221.364 204.687 221.065C204.377 220.756 203.945 220.601 203.391 220.601H200.719V223.849H203.391ZM212.855 225.705C211.671 225.705 210.727 225.364 210.023 224.681C209.33 223.988 208.962 223.017 208.919 221.769L208.903 221.369L208.919 220.969C208.973 219.753 209.346 218.798 210.039 218.105C210.743 217.412 211.682 217.065 212.855 217.065C214.114 217.065 215.085 217.449 215.767 218.217C216.461 218.985 216.807 220.009 216.807 221.289V221.625C216.807 221.732 216.77 221.822 216.695 221.897C216.621 221.972 216.525 222.009 216.407 222.009H211.095V222.137C211.117 222.724 211.277 223.22 211.575 223.625C211.885 224.02 212.306 224.217 212.839 224.217C213.469 224.217 213.975 223.972 214.359 223.481C214.455 223.364 214.53 223.289 214.583 223.257C214.647 223.225 214.738 223.209 214.855 223.209H216.231C216.327 223.209 216.407 223.241 216.471 223.305C216.546 223.358 216.583 223.428 216.583 223.513C216.583 223.769 216.429 224.073 216.119 224.425C215.821 224.766 215.389 225.065 214.823 225.321C214.258 225.577 213.602 225.705 212.855 225.705ZM214.631 220.665V220.617C214.631 219.988 214.471 219.481 214.151 219.097C213.842 218.713 213.41 218.521 212.855 218.521C212.301 218.521 211.869 218.713 211.559 219.097C211.25 219.481 211.095 219.988 211.095 220.617V220.665H214.631ZM223.114 225.705C222.015 225.705 221.162 225.326 220.554 224.569V225.161C220.554 225.268 220.516 225.358 220.442 225.433C220.378 225.508 220.287 225.545 220.17 225.545H218.906C218.799 225.545 218.708 225.508 218.634 225.433C218.559 225.358 218.522 225.268 218.522 225.161V214.569C218.522 214.452 218.559 214.361 218.634 214.297C218.708 214.222 218.799 214.185 218.906 214.185H220.266C220.383 214.185 220.474 214.222 220.538 214.297C220.612 214.361 220.65 214.452 220.65 214.569V218.121C221.258 217.417 222.079 217.065 223.114 217.065C224.191 217.065 225.018 217.417 225.594 218.121C226.17 218.825 226.479 219.737 226.522 220.857C226.532 220.985 226.538 221.156 226.538 221.369C226.538 221.593 226.532 221.769 226.522 221.897C226.479 223.049 226.17 223.972 225.594 224.665C225.018 225.358 224.191 225.705 223.114 225.705ZM222.522 223.993C223.674 223.993 224.287 223.284 224.362 221.865C224.372 221.758 224.378 221.598 224.378 221.385C224.378 221.172 224.372 221.012 224.362 220.905C224.287 219.486 223.674 218.777 222.522 218.777C221.924 218.777 221.466 218.969 221.146 219.353C220.836 219.726 220.671 220.18 220.65 220.713L220.634 221.321L220.65 221.945C220.682 222.521 220.847 223.006 221.146 223.401C221.444 223.796 221.903 223.993 222.522 223.993Z" fill="#676767"/>
<path d="M45.5161 305.084C45.5161 292.381 55.8136 282.084 68.5161 282.084H124.011C136.714 282.084 147.011 292.381 147.011 305.084V354.142C147.011 355.765 145.182 356.712 143.857 355.776L131.052 346.726C129.364 345.533 127.347 344.892 125.28 344.892H68.5161C55.8135 344.892 45.5161 334.595 45.5161 321.892V305.084Z" fill="#5EB1FF"/>
<path opacity="0.5" d="M88.5469 363.478C88.0909 363.478 87.6979 363.397 87.3679 363.235C87.0379 363.073 86.7829 362.86 86.6029 362.596C86.4289 362.332 86.3359 362.05 86.3239 361.75V361.732C86.3239 361.684 86.3419 361.645 86.3779 361.615C86.4139 361.585 86.4559 361.57 86.5039 361.57H86.9899C87.1159 361.57 87.1969 361.636 87.2329 361.768C87.3169 362.086 87.4789 362.323 87.7189 362.479C87.9589 362.635 88.2349 362.713 88.5469 362.713C88.9489 362.713 89.2819 362.593 89.5459 362.353C89.8159 362.107 89.9509 361.768 89.9509 361.336C89.9509 360.946 89.8159 360.631 89.5459 360.391C89.2819 360.151 88.9489 360.031 88.5469 360.031C88.3309 360.031 88.1569 360.061 88.0249 360.121C87.8929 360.175 87.7609 360.253 87.6289 360.355C87.5569 360.409 87.4939 360.451 87.4399 360.481C87.3919 360.505 87.3379 360.517 87.2779 360.517H86.8099C86.7559 360.517 86.7079 360.499 86.6659 360.463C86.6239 360.421 86.6059 360.373 86.6119 360.319L86.8999 357.313C86.9059 357.241 86.9269 357.187 86.9629 357.151C87.0049 357.109 87.0589 357.088 87.1249 357.088H90.2659C90.3259 357.088 90.3739 357.109 90.4099 357.151C90.4519 357.187 90.4729 357.235 90.4729 357.295V357.646C90.4729 357.706 90.4519 357.757 90.4099 357.799C90.3739 357.835 90.3259 357.853 90.2659 357.853H87.6739L87.5029 359.626C87.8269 359.422 88.2169 359.32 88.6729 359.32C89.0689 359.32 89.4319 359.401 89.7619 359.563C90.0979 359.725 90.3619 359.959 90.5539 360.265C90.7519 360.571 90.8509 360.931 90.8509 361.345C90.8509 361.789 90.7519 362.173 90.5539 362.497C90.3619 362.815 90.0919 363.058 89.7439 363.226C89.3959 363.394 88.9969 363.478 88.5469 363.478ZM94.3418 363.388C94.2818 363.388 94.2308 363.37 94.1888 363.334C94.1528 363.292 94.1348 363.241 94.1348 363.181V358.915C94.1348 358.855 94.1528 358.807 94.1888 358.771C94.2308 358.729 94.2818 358.708 94.3418 358.708H94.7468C94.8068 358.708 94.8548 358.729 94.8908 358.771C94.9328 358.807 94.9538 358.855 94.9538 358.915V359.23C95.2658 358.822 95.7008 358.618 96.2588 358.618C96.9248 358.618 97.3958 358.894 97.6718 359.446C97.8158 359.194 98.0198 358.993 98.2838 358.843C98.5478 358.693 98.8448 358.618 99.1748 358.618C99.6668 358.618 100.069 358.786 100.381 359.122C100.693 359.458 100.849 359.944 100.849 360.58V363.181C100.849 363.241 100.828 363.292 100.786 363.334C100.75 363.37 100.702 363.388 100.642 363.388H100.219C100.159 363.388 100.108 363.37 100.066 363.334C100.03 363.292 100.012 363.241 100.012 363.181V360.661C100.012 360.193 99.9128 359.857 99.7148 359.653C99.5228 359.449 99.2678 359.347 98.9498 359.347C98.6678 359.347 98.4248 359.452 98.2207 359.662C98.0168 359.866 97.9148 360.199 97.9148 360.661V363.181C97.9148 363.241 97.8938 363.292 97.8518 363.334C97.8158 363.37 97.7678 363.388 97.7078 363.388H97.2848C97.2248 363.388 97.1738 363.37 97.1318 363.334C97.0958 363.292 97.0778 363.241 97.0778 363.181V360.661C97.0778 360.193 96.9758 359.857 96.7718 359.653C96.5738 359.449 96.3218 359.347 96.0158 359.347C95.7338 359.347 95.4908 359.452 95.2868 359.662C95.0828 359.866 94.9808 360.196 94.9808 360.652V363.181C94.9808 363.241 94.9598 363.292 94.9178 363.334C94.8818 363.37 94.8338 363.388 94.7738 363.388H94.3418ZM102.268 357.835C102.208 357.835 102.157 357.817 102.115 357.781C102.079 357.739 102.061 357.688 102.061 357.628V357.142C102.061 357.082 102.079 357.031 102.115 356.989C102.157 356.947 102.208 356.926 102.268 356.926H102.835C102.895 356.926 102.946 356.947 102.988 356.989C103.03 357.031 103.051 357.082 103.051 357.142V357.628C103.051 357.688 103.03 357.739 102.988 357.781C102.946 357.817 102.895 357.835 102.835 357.835H102.268ZM102.34 363.388C102.28 363.388 102.229 363.37 102.187 363.334C102.151 363.292 102.133 363.241 102.133 363.181V358.915C102.133 358.855 102.151 358.807 102.187 358.771C102.229 358.729 102.28 358.708 102.34 358.708H102.772C102.832 358.708 102.88 358.729 102.916 358.771C102.958 358.807 102.979 358.855 102.979 358.915V363.181C102.979 363.241 102.958 363.292 102.916 363.334C102.88 363.37 102.832 363.388 102.772 363.388H102.34ZM104.519 363.388C104.459 363.388 104.408 363.37 104.366 363.334C104.33 363.292 104.312 363.241 104.312 363.181V358.915C104.312 358.855 104.33 358.807 104.366 358.771C104.408 358.729 104.459 358.708 104.519 358.708H104.942C105.002 358.708 105.05 358.729 105.086 358.771C105.128 358.807 105.149 358.855 105.149 358.915V359.311C105.323 359.089 105.527 358.918 105.761 358.798C106.001 358.678 106.298 358.618 106.652 358.618C107.228 358.618 107.675 358.804 107.993 359.176C108.317 359.542 108.479 360.031 108.479 360.643V363.181C108.479 363.241 108.458 363.292 108.416 363.334C108.38 363.37 108.332 363.388 108.272 363.388H107.822C107.762 363.388 107.711 363.37 107.669 363.334C107.633 363.292 107.615 363.241 107.615 363.181V360.688C107.615 360.262 107.51 359.932 107.3 359.698C107.096 359.464 106.799 359.347 106.409 359.347C106.031 359.347 105.731 359.467 105.509 359.707C105.287 359.941 105.176 360.268 105.176 360.688V363.181C105.176 363.241 105.155 363.292 105.113 363.334C105.077 363.37 105.029 363.388 104.969 363.388H104.519ZM113.282 363.478C112.988 363.478 112.715 363.418 112.463 363.298C112.211 363.178 112.01 363.016 111.86 362.812C111.716 362.602 111.644 362.371 111.644 362.119C111.644 361.723 111.806 361.399 112.13 361.147C112.46 360.889 112.904 360.721 113.462 360.643L114.803 360.454V360.193C114.803 359.581 114.452 359.275 113.75 359.275C113.486 359.275 113.27 359.332 113.102 359.446C112.934 359.554 112.808 359.683 112.724 359.833C112.706 359.887 112.682 359.926 112.652 359.95C112.628 359.974 112.592 359.986 112.544 359.986H112.157C112.103 359.986 112.055 359.968 112.013 359.932C111.977 359.89 111.959 359.842 111.959 359.788C111.965 359.644 112.031 359.482 112.157 359.302C112.289 359.116 112.49 358.957 112.76 358.825C113.03 358.687 113.363 358.618 113.759 358.618C114.431 358.618 114.914 358.777 115.208 359.095C115.502 359.407 115.649 359.797 115.649 360.265V363.181C115.649 363.241 115.628 363.292 115.586 363.334C115.55 363.37 115.502 363.388 115.442 363.388H115.028C114.968 363.388 114.917 363.37 114.875 363.334C114.839 363.292 114.821 363.241 114.821 363.181V362.794C114.689 362.986 114.497 363.148 114.245 363.28C113.993 363.412 113.672 363.478 113.282 363.478ZM113.471 362.803C113.861 362.803 114.179 362.677 114.425 362.425C114.677 362.167 114.803 361.798 114.803 361.318V361.066L113.759 361.219C113.333 361.279 113.012 361.381 112.796 361.525C112.58 361.663 112.472 361.84 112.472 362.056C112.472 362.296 112.571 362.482 112.769 362.614C112.967 362.74 113.201 362.803 113.471 362.803ZM118.859 365.368C118.367 365.368 117.971 365.284 117.671 365.116C117.371 364.954 117.158 364.768 117.032 364.558C116.906 364.348 116.837 364.159 116.825 363.991C116.819 363.931 116.837 363.88 116.879 363.838C116.927 363.796 116.978 363.775 117.032 363.775H117.464C117.518 363.775 117.563 363.787 117.599 363.811C117.635 363.841 117.665 363.892 117.689 363.964C117.761 364.156 117.878 364.321 118.04 364.459C118.208 364.603 118.466 364.675 118.814 364.675C119.258 364.675 119.585 364.579 119.795 364.387C120.005 364.201 120.11 363.868 120.11 363.388V362.776C119.954 362.974 119.756 363.133 119.516 363.253C119.276 363.367 118.991 363.424 118.661 363.424C118.025 363.424 117.548 363.223 117.23 362.821C116.918 362.413 116.753 361.897 116.735 361.273L116.726 361.021L116.735 360.778C116.753 360.16 116.921 359.647 117.239 359.239C117.557 358.825 118.031 358.618 118.661 358.618C119.291 358.618 119.783 358.849 120.137 359.311V358.924C120.137 358.864 120.155 358.813 120.191 358.771C120.233 358.729 120.284 358.708 120.344 358.708H120.758C120.818 358.708 120.869 358.729 120.911 358.771C120.953 358.813 120.974 358.864 120.974 358.924V363.289C120.974 364.675 120.269 365.368 118.859 365.368ZM118.841 362.704C119.249 362.704 119.558 362.569 119.768 362.299C119.978 362.029 120.092 361.708 120.11 361.336C120.116 361.282 120.119 361.177 120.119 361.021C120.119 360.871 120.116 360.769 120.11 360.715C120.092 360.343 119.978 360.022 119.768 359.752C119.564 359.482 119.255 359.347 118.841 359.347C118.415 359.347 118.106 359.479 117.914 359.743C117.722 360.007 117.617 360.355 117.599 360.787L117.59 361.021L117.599 361.264C117.617 361.69 117.722 362.038 117.914 362.308C118.106 362.572 118.415 362.704 118.841 362.704ZM124.229 363.478C123.569 363.478 123.056 363.292 122.69 362.92C122.33 362.548 122.138 362.053 122.114 361.435L122.105 361.048L122.114 360.661C122.138 360.049 122.333 359.557 122.699 359.185C123.065 358.807 123.575 358.618 124.229 358.618C124.883 358.618 125.393 358.807 125.759 359.185C126.125 359.557 126.32 360.049 126.344 360.661C126.35 360.727 126.353 360.856 126.353 361.048C126.353 361.24 126.35 361.369 126.344 361.435C126.32 362.053 126.125 362.548 125.759 362.92C125.399 363.292 124.889 363.478 124.229 363.478ZM124.229 362.785C124.607 362.785 124.904 362.665 125.12 362.425C125.342 362.185 125.462 361.84 125.48 361.39C125.486 361.33 125.489 361.216 125.489 361.048C125.489 360.88 125.486 360.766 125.48 360.706C125.462 360.256 125.342 359.911 125.12 359.671C124.904 359.431 124.607 359.311 124.229 359.311C123.851 359.311 123.551 359.431 123.329 359.671C123.107 359.911 122.99 360.256 122.978 360.706L122.969 361.048L122.978 361.39C122.99 361.84 123.107 362.185 123.329 362.425C123.551 362.665 123.851 362.785 124.229 362.785Z" fill="#676767"/>
<path d="M91.883 319.203C90.803 319.203 89.983 318.828 89.423 318.078V318.708C89.423 318.808 89.388 318.893 89.318 318.963C89.258 319.023 89.178 319.053 89.078 319.053H88.388C88.288 319.053 88.203 319.023 88.133 318.963C88.073 318.893 88.043 318.808 88.043 318.708V308.748C88.043 308.648 88.073 308.568 88.133 308.508C88.203 308.438 88.288 308.403 88.388 308.403H89.123C89.223 308.403 89.303 308.438 89.363 308.508C89.423 308.568 89.453 308.648 89.453 308.748V312.198C90.043 311.468 90.853 311.103 91.883 311.103C92.923 311.103 93.708 311.448 94.238 312.138C94.768 312.818 95.053 313.673 95.093 314.703C95.103 314.813 95.108 314.963 95.108 315.153C95.108 315.343 95.103 315.493 95.093 315.603C95.053 316.643 94.768 317.503 94.238 318.183C93.708 318.863 92.923 319.203 91.883 319.203ZM91.568 317.988C92.278 317.988 92.793 317.768 93.113 317.328C93.443 316.888 93.623 316.308 93.653 315.588C93.663 315.488 93.668 315.343 93.668 315.153C93.668 313.263 92.968 312.318 91.568 312.318C90.898 312.318 90.383 312.538 90.023 312.978C89.663 313.418 89.473 313.933 89.453 314.523L89.438 315.108L89.453 315.678C89.483 316.308 89.668 316.853 90.008 317.313C90.358 317.763 90.878 317.988 91.568 317.988ZM100.069 319.203C99.0389 319.203 98.2139 318.888 97.5939 318.258C96.9839 317.618 96.6489 316.748 96.5889 315.648L96.5739 315.138L96.5889 314.643C96.6589 313.563 96.9989 312.703 97.6089 312.063C98.2289 311.423 99.0439 311.103 100.054 311.103C101.164 311.103 102.024 311.458 102.634 312.168C103.244 312.868 103.549 313.818 103.549 315.018V315.273C103.549 315.373 103.514 315.458 103.444 315.528C103.384 315.588 103.304 315.618 103.204 315.618H98.0139V315.753C98.0439 316.403 98.2389 316.958 98.5989 317.418C98.9689 317.868 99.4539 318.093 100.054 318.093C100.514 318.093 100.889 318.003 101.179 317.823C101.479 317.633 101.699 317.438 101.839 317.238C101.929 317.118 101.994 317.048 102.034 317.028C102.084 316.998 102.169 316.983 102.289 316.983H103.024C103.114 316.983 103.189 317.008 103.249 317.058C103.309 317.108 103.339 317.178 103.339 317.268C103.339 317.488 103.199 317.753 102.919 318.063C102.649 318.373 102.264 318.643 101.764 318.873C101.274 319.093 100.709 319.203 100.069 319.203ZM102.124 314.583V314.538C102.124 313.848 101.934 313.288 101.554 312.858C101.184 312.418 100.684 312.198 100.054 312.198C99.4239 312.198 98.9239 312.418 98.5539 312.858C98.1939 313.288 98.0139 313.848 98.0139 314.538V314.583H102.124ZM109.197 319.203C108.117 319.203 107.297 318.828 106.737 318.078V318.708C106.737 318.808 106.702 318.893 106.632 318.963C106.572 319.023 106.492 319.053 106.392 319.053H105.702C105.602 319.053 105.517 319.023 105.447 318.963C105.387 318.893 105.357 318.808 105.357 318.708V308.748C105.357 308.648 105.387 308.568 105.447 308.508C105.517 308.438 105.602 308.403 105.702 308.403H106.437C106.537 308.403 106.617 308.438 106.677 308.508C106.737 308.568 106.767 308.648 106.767 308.748V312.198C107.357 311.468 108.167 311.103 109.197 311.103C110.237 311.103 111.022 311.448 111.552 312.138C112.082 312.818 112.367 313.673 112.407 314.703C112.417 314.813 112.422 314.963 112.422 315.153C112.422 315.343 112.417 315.493 112.407 315.603C112.367 316.643 112.082 317.503 111.552 318.183C111.022 318.863 110.237 319.203 109.197 319.203ZM108.882 317.988C109.592 317.988 110.107 317.768 110.427 317.328C110.757 316.888 110.937 316.308 110.967 315.588C110.977 315.488 110.982 315.343 110.982 315.153C110.982 313.263 110.282 312.318 108.882 312.318C108.212 312.318 107.697 312.538 107.337 312.978C106.977 313.418 106.787 313.933 106.767 314.523L106.752 315.108L106.767 315.678C106.797 316.308 106.982 316.853 107.322 317.313C107.672 317.763 108.192 317.988 108.882 317.988ZM116.52 316.593C116.43 316.593 116.355 316.563 116.295 316.503C116.235 316.443 116.205 316.368 116.205 316.278V315.678C116.225 315.148 116.36 314.693 116.61 314.313C116.86 313.933 117.225 313.498 117.705 313.008C118.095 312.608 118.38 312.278 118.56 312.018C118.74 311.758 118.83 311.473 118.83 311.163C118.83 310.703 118.635 310.338 118.245 310.068C117.865 309.798 117.42 309.663 116.91 309.663C115.72 309.663 115.02 310.263 114.81 311.463C114.76 311.683 114.63 311.793 114.42 311.793H113.7C113.6 311.793 113.52 311.763 113.46 311.703C113.4 311.643 113.37 311.563 113.37 311.463C113.39 310.913 113.545 310.408 113.835 309.948C114.135 309.478 114.555 309.103 115.095 308.823C115.635 308.543 116.255 308.403 116.955 308.403C117.695 308.403 118.315 308.533 118.815 308.793C119.325 309.043 119.7 309.373 119.94 309.783C120.18 310.183 120.3 310.613 120.3 311.073C120.3 311.583 120.185 312.023 119.955 312.393C119.725 312.763 119.38 313.193 118.92 313.683C118.54 314.083 118.255 314.423 118.065 314.703C117.875 314.973 117.765 315.278 117.735 315.618C117.715 315.898 117.705 316.108 117.705 316.248C117.655 316.478 117.53 316.593 117.33 316.593H116.52ZM116.4 319.053C116.3 319.053 116.215 319.023 116.145 318.963C116.085 318.893 116.055 318.808 116.055 318.708V317.793C116.055 317.693 116.085 317.613 116.145 317.553C116.215 317.483 116.3 317.448 116.4 317.448H117.375C117.475 317.448 117.56 317.483 117.63 317.553C117.7 317.613 117.735 317.693 117.735 317.793V318.708C117.735 318.808 117.7 318.893 117.63 318.963C117.56 319.023 117.475 319.053 117.375 319.053H116.4Z" fill="white"/>
<path opacity="0.5" d="M260.958 441.78C260.898 441.78 260.847 441.762 260.805 441.726C260.769 441.684 260.751 441.633 260.751 441.573V441.285C260.751 441.147 260.826 441.015 260.976 440.889L262.884 438.981C263.346 438.597 263.664 438.285 263.838 438.045C264.012 437.799 264.099 437.541 264.099 437.271C264.099 436.923 264 436.65 263.802 436.452C263.61 436.254 263.328 436.155 262.956 436.155C262.608 436.155 262.329 436.26 262.119 436.47C261.909 436.674 261.78 436.947 261.732 437.289C261.72 437.361 261.69 437.415 261.642 437.451C261.6 437.481 261.552 437.496 261.498 437.496H261.03C260.976 437.496 260.931 437.481 260.895 437.451C260.859 437.415 260.841 437.373 260.841 437.325C260.853 437.001 260.94 436.692 261.102 436.398C261.264 436.098 261.501 435.855 261.813 435.669C262.131 435.477 262.512 435.381 262.956 435.381C263.634 435.381 264.144 435.558 264.486 435.912C264.834 436.26 265.008 436.704 265.008 437.244C265.008 437.622 264.912 437.964 264.72 438.27C264.534 438.57 264.243 438.894 263.847 439.242L262.119 440.997H264.927C264.993 440.997 265.044 441.018 265.08 441.06C265.122 441.096 265.143 441.144 265.143 441.204V441.573C265.143 441.633 265.122 441.684 265.08 441.726C265.038 441.762 264.987 441.78 264.927 441.78H260.958ZM268.671 441.78C268.611 441.78 268.56 441.762 268.518 441.726C268.482 441.684 268.464 441.633 268.464 441.573V437.307C268.464 437.247 268.482 437.199 268.518 437.163C268.56 437.121 268.611 437.1 268.671 437.1H269.076C269.136 437.1 269.184 437.121 269.22 437.163C269.262 437.199 269.283 437.247 269.283 437.307V437.622C269.595 437.214 270.03 437.01 270.588 437.01C271.254 437.01 271.725 437.286 272.001 437.838C272.145 437.586 272.349 437.385 272.613 437.235C272.877 437.085 273.174 437.01 273.504 437.01C273.996 437.01 274.398 437.178 274.71 437.514C275.022 437.85 275.178 438.336 275.178 438.972V441.573C275.178 441.633 275.157 441.684 275.115 441.726C275.079 441.762 275.031 441.78 274.971 441.78H274.548C274.488 441.78 274.437 441.762 274.395 441.726C274.359 441.684 274.341 441.633 274.341 441.573V439.053C274.341 438.585 274.242 438.249 274.044 438.045C273.852 437.841 273.597 437.739 273.279 437.739C272.997 437.739 272.754 437.844 272.55 438.054C272.346 438.258 272.244 438.591 272.244 439.053V441.573C272.244 441.633 272.223 441.684 272.181 441.726C272.145 441.762 272.097 441.78 272.037 441.78H271.614C271.554 441.78 271.503 441.762 271.461 441.726C271.425 441.684 271.407 441.633 271.407 441.573V439.053C271.407 438.585 271.305 438.249 271.101 438.045C270.903 437.841 270.651 437.739 270.345 437.739C270.063 437.739 269.82 437.844 269.616 438.054C269.412 438.258 269.31 438.588 269.31 439.044V441.573C269.31 441.633 269.289 441.684 269.247 441.726C269.211 441.762 269.163 441.78 269.103 441.78H268.671ZM276.597 436.227C276.537 436.227 276.486 436.209 276.444 436.173C276.408 436.131 276.39 436.08 276.39 436.02V435.534C276.39 435.474 276.408 435.423 276.444 435.381C276.486 435.339 276.537 435.318 276.597 435.318H277.164C277.224 435.318 277.275 435.339 277.317 435.381C277.359 435.423 277.38 435.474 277.38 435.534V436.02C277.38 436.08 277.359 436.131 277.317 436.173C277.275 436.209 277.224 436.227 277.164 436.227H276.597ZM276.669 441.78C276.609 441.78 276.558 441.762 276.516 441.726C276.48 441.684 276.462 441.633 276.462 441.573V437.307C276.462 437.247 276.48 437.199 276.516 437.163C276.558 437.121 276.609 437.1 276.669 437.1H277.101C277.161 437.1 277.209 437.121 277.245 437.163C277.287 437.199 277.308 437.247 277.308 437.307V441.573C277.308 441.633 277.287 441.684 277.245 441.726C277.209 441.762 277.161 441.78 277.101 441.78H276.669ZM278.849 441.78C278.789 441.78 278.738 441.762 278.696 441.726C278.66 441.684 278.642 441.633 278.642 441.573V437.307C278.642 437.247 278.66 437.199 278.696 437.163C278.738 437.121 278.789 437.1 278.849 437.1H279.272C279.332 437.1 279.38 437.121 279.416 437.163C279.458 437.199 279.479 437.247 279.479 437.307V437.703C279.653 437.481 279.857 437.31 280.091 437.19C280.331 437.07 280.628 437.01 280.982 437.01C281.558 437.01 282.005 437.196 282.323 437.568C282.647 437.934 282.809 438.423 282.809 439.035V441.573C282.809 441.633 282.788 441.684 282.746 441.726C282.71 441.762 282.662 441.78 282.602 441.78H282.152C282.092 441.78 282.041 441.762 281.999 441.726C281.963 441.684 281.945 441.633 281.945 441.573V439.08C281.945 438.654 281.84 438.324 281.63 438.09C281.426 437.856 281.129 437.739 280.739 437.739C280.361 437.739 280.061 437.859 279.839 438.099C279.617 438.333 279.506 438.66 279.506 439.08V441.573C279.506 441.633 279.485 441.684 279.443 441.726C279.407 441.762 279.359 441.78 279.299 441.78H278.849ZM287.611 441.87C287.317 441.87 287.044 441.81 286.792 441.69C286.54 441.57 286.339 441.408 286.189 441.204C286.045 440.994 285.973 440.763 285.973 440.511C285.973 440.115 286.135 439.791 286.459 439.539C286.789 439.281 287.233 439.113 287.791 439.035L289.132 438.846V438.585C289.132 437.973 288.781 437.667 288.079 437.667C287.815 437.667 287.599 437.724 287.431 437.838C287.263 437.946 287.137 438.075 287.053 438.225C287.035 438.279 287.011 438.318 286.981 438.342C286.957 438.366 286.921 438.378 286.873 438.378H286.486C286.432 438.378 286.384 438.36 286.342 438.324C286.306 438.282 286.288 438.234 286.288 438.18C286.294 438.036 286.36 437.874 286.486 437.694C286.618 437.508 286.819 437.349 287.089 437.217C287.359 437.079 287.692 437.01 288.088 437.01C288.76 437.01 289.243 437.169 289.537 437.487C289.831 437.799 289.978 438.189 289.978 438.657V441.573C289.978 441.633 289.957 441.684 289.915 441.726C289.879 441.762 289.831 441.78 289.771 441.78H289.357C289.297 441.78 289.246 441.762 289.204 441.726C289.168 441.684 289.15 441.633 289.15 441.573V441.186C289.018 441.378 288.826 441.54 288.574 441.672C288.322 441.804 288.001 441.87 287.611 441.87ZM287.8 441.195C288.19 441.195 288.508 441.069 288.754 440.817C289.006 440.559 289.132 440.19 289.132 439.71V439.458L288.088 439.611C287.662 439.671 287.341 439.773 287.125 439.917C286.909 440.055 286.801 440.232 286.801 440.448C286.801 440.688 286.9 440.874 287.098 441.006C287.296 441.132 287.53 441.195 287.8 441.195ZM293.189 443.76C292.697 443.76 292.301 443.676 292.001 443.508C291.701 443.346 291.488 443.16 291.362 442.95C291.236 442.74 291.167 442.551 291.155 442.383C291.149 442.323 291.167 442.272 291.209 442.23C291.257 442.188 291.308 442.167 291.362 442.167H291.794C291.848 442.167 291.893 442.179 291.929 442.203C291.965 442.233 291.995 442.284 292.019 442.356C292.091 442.548 292.208 442.713 292.37 442.851C292.538 442.995 292.796 443.067 293.144 443.067C293.588 443.067 293.915 442.971 294.125 442.779C294.335 442.593 294.44 442.26 294.44 441.78V441.168C294.284 441.366 294.086 441.525 293.846 441.645C293.606 441.759 293.321 441.816 292.991 441.816C292.355 441.816 291.878 441.615 291.56 441.213C291.248 440.805 291.083 440.289 291.065 439.665L291.056 439.413L291.065 439.17C291.083 438.552 291.251 438.039 291.569 437.631C291.887 437.217 292.361 437.01 292.991 437.01C293.621 437.01 294.113 437.241 294.467 437.703V437.316C294.467 437.256 294.485 437.205 294.521 437.163C294.563 437.121 294.614 437.1 294.674 437.1H295.088C295.148 437.1 295.199 437.121 295.241 437.163C295.283 437.205 295.304 437.256 295.304 437.316V441.681C295.304 443.067 294.599 443.76 293.189 443.76ZM293.171 441.096C293.579 441.096 293.888 440.961 294.098 440.691C294.308 440.421 294.422 440.1 294.44 439.728C294.446 439.674 294.449 439.569 294.449 439.413C294.449 439.263 294.446 439.161 294.44 439.107C294.422 438.735 294.308 438.414 294.098 438.144C293.894 437.874 293.585 437.739 293.171 437.739C292.745 437.739 292.436 437.871 292.244 438.135C292.052 438.399 291.947 438.747 291.929 439.179L291.92 439.413L291.929 439.656C291.947 440.082 292.052 440.43 292.244 440.7C292.436 440.964 292.745 441.096 293.171 441.096ZM298.559 441.87C297.899 441.87 297.386 441.684 297.02 441.312C296.66 440.94 296.468 440.445 296.444 439.827L296.435 439.44L296.444 439.053C296.468 438.441 296.663 437.949 297.029 437.577C297.395 437.199 297.905 437.01 298.559 437.01C299.213 437.01 299.723 437.199 300.089 437.577C300.455 437.949 300.65 438.441 300.674 439.053C300.68 439.119 300.683 439.248 300.683 439.44C300.683 439.632 300.68 439.761 300.674 439.827C300.65 440.445 300.455 440.94 300.089 441.312C299.729 441.684 299.219 441.87 298.559 441.87ZM298.559 441.177C298.937 441.177 299.234 441.057 299.45 440.817C299.672 440.577 299.792 440.232 299.81 439.782C299.816 439.722 299.819 439.608 299.819 439.44C299.819 439.272 299.816 439.158 299.81 439.098C299.792 438.648 299.672 438.303 299.45 438.063C299.234 437.823 298.937 437.703 298.559 437.703C298.181 437.703 297.881 437.823 297.659 438.063C297.437 438.303 297.32 438.648 297.308 439.098L297.299 439.44L297.308 439.782C297.32 440.232 297.437 440.577 297.659 440.817C297.881 441.057 298.181 441.177 298.559 441.177Z" fill="#676767"/>
<path d="M380.493 382.886C380.493 370.183 370.195 359.886 357.493 359.886H261.033C248.33 359.886 238.033 370.183 238.033 382.886V431.944C238.033 433.566 239.862 434.514 241.187 433.577L253.992 424.528C255.68 423.335 257.697 422.694 259.764 422.694H357.493C370.195 422.694 380.493 412.397 380.493 399.694V382.886Z" fill="#5EB1FF"/>
<path d="M261.146 388.599C261.046 388.599 260.961 388.569 260.891 388.509C260.831 388.439 260.801 388.354 260.801 388.254V387.444C260.801 387.344 260.831 387.259 260.891 387.189C260.961 387.119 261.046 387.084 261.146 387.084H262.091C262.191 387.084 262.276 387.119 262.346 387.189C262.416 387.259 262.451 387.344 262.451 387.444V388.254C262.451 388.354 262.416 388.439 262.346 388.509C262.276 388.569 262.191 388.599 262.091 388.599H261.146ZM261.266 397.854C261.166 397.854 261.081 397.824 261.011 397.764C260.951 397.694 260.921 397.609 260.921 397.509V390.399C260.921 390.299 260.951 390.219 261.011 390.159C261.081 390.089 261.166 390.054 261.266 390.054H261.986C262.086 390.054 262.166 390.089 262.226 390.159C262.296 390.219 262.331 390.299 262.331 390.399V397.509C262.331 397.609 262.296 397.694 262.226 397.764C262.166 397.824 262.086 397.854 261.986 397.854H261.266ZM265.918 400.704C265.838 400.704 265.768 400.674 265.708 400.614C265.648 400.554 265.618 400.484 265.618 400.404C265.618 400.334 265.643 400.244 265.693 400.134L266.848 397.389L263.983 390.624C263.933 390.494 263.908 390.409 263.908 390.369C263.908 390.279 263.938 390.204 263.998 390.144C264.058 390.084 264.133 390.054 264.223 390.054H264.958C265.118 390.054 265.238 390.139 265.318 390.309L267.598 395.769L269.938 390.309C270.018 390.139 270.143 390.054 270.313 390.054H271.018C271.108 390.054 271.183 390.084 271.243 390.144C271.303 390.204 271.333 390.274 271.333 390.354C271.333 390.384 271.308 390.474 271.258 390.624L266.998 400.449C266.918 400.619 266.793 400.704 266.623 400.704H265.918ZM274.726 398.004C274.236 398.004 273.781 397.904 273.361 397.704C272.941 397.504 272.606 397.234 272.356 396.894C272.116 396.544 271.996 396.159 271.996 395.739C271.996 395.079 272.266 394.539 272.806 394.119C273.356 393.689 274.096 393.409 275.026 393.279L277.261 392.964V392.529C277.261 391.509 276.676 390.999 275.506 390.999C275.066 390.999 274.706 391.094 274.426 391.284C274.146 391.464 273.936 391.679 273.796 391.929C273.766 392.019 273.726 392.084 273.676 392.124C273.636 392.164 273.576 392.184 273.496 392.184H272.851C272.761 392.184 272.681 392.154 272.611 392.094C272.551 392.024 272.521 391.944 272.521 391.854C272.531 391.614 272.641 391.344 272.851 391.044C273.071 390.734 273.406 390.469 273.856 390.249C274.306 390.019 274.861 389.904 275.521 389.904C276.641 389.904 277.446 390.169 277.936 390.699C278.426 391.219 278.671 391.869 278.671 392.649V397.509C278.671 397.609 278.636 397.694 278.566 397.764C278.506 397.824 278.426 397.854 278.326 397.854H277.636C277.536 397.854 277.451 397.824 277.381 397.764C277.321 397.694 277.291 397.609 277.291 397.509V396.864C277.071 397.184 276.751 397.454 276.331 397.674C275.911 397.894 275.376 398.004 274.726 398.004ZM275.041 396.879C275.691 396.879 276.221 396.669 276.631 396.249C277.051 395.819 277.261 395.204 277.261 394.404V393.984L275.521 394.239C274.811 394.339 274.276 394.509 273.916 394.749C273.556 394.979 273.376 395.274 273.376 395.634C273.376 396.034 273.541 396.344 273.871 396.564C274.201 396.774 274.591 396.879 275.041 396.879ZM261.461 414.854C261.361 414.854 261.276 414.824 261.206 414.764C261.146 414.694 261.116 414.609 261.116 414.509V404.714C261.116 404.604 261.146 404.519 261.206 404.459C261.276 404.389 261.361 404.354 261.461 404.354H262.211C262.371 404.354 262.501 404.434 262.601 404.594L265.766 410.654L268.961 404.594C268.981 404.534 269.021 404.479 269.081 404.429C269.151 404.379 269.236 404.354 269.336 404.354H270.071C270.181 404.354 270.266 404.389 270.326 404.459C270.396 404.519 270.431 404.604 270.431 404.714V414.509C270.431 414.609 270.396 414.694 270.326 414.764C270.256 414.824 270.171 414.854 270.071 414.854H269.336C269.236 414.854 269.151 414.824 269.081 414.764C269.021 414.694 268.991 414.609 268.991 414.509V407.129L266.486 412.019C266.386 412.229 266.226 412.334 266.006 412.334H265.541C265.321 412.334 265.161 412.229 265.061 412.019L262.541 407.129V414.509C262.541 414.609 262.506 414.694 262.436 414.764C262.376 414.824 262.296 414.854 262.196 414.854H261.461ZM274.195 417.704C274.115 417.704 274.045 417.674 273.985 417.614C273.925 417.554 273.895 417.484 273.895 417.404C273.895 417.334 273.92 417.244 273.97 417.134L275.125 414.389L272.26 407.624C272.21 407.494 272.185 407.409 272.185 407.369C272.185 407.279 272.215 407.204 272.275 407.144C272.335 407.084 272.41 407.054 272.5 407.054H273.235C273.395 407.054 273.515 407.139 273.595 407.309L275.875 412.769L278.215 407.309C278.295 407.139 278.42 407.054 278.59 407.054H279.295C279.385 407.054 279.46 407.084 279.52 407.144C279.58 407.204 279.61 407.274 279.61 407.354C279.61 407.384 279.585 407.474 279.535 407.624L275.275 417.449C275.195 417.619 275.07 417.704 274.9 417.704H274.195ZM281.646 414.854C281.546 414.854 281.461 414.824 281.391 414.764C281.331 414.694 281.301 414.609 281.301 414.509V404.714C281.301 404.604 281.331 404.519 281.391 404.459C281.461 404.389 281.546 404.354 281.646 404.354H285.756C286.826 404.354 287.631 404.609 288.171 405.119C288.711 405.629 288.981 406.299 288.981 407.129C288.981 407.689 288.851 408.154 288.591 408.524C288.341 408.894 288.041 409.164 287.691 409.334C288.111 409.544 288.466 409.869 288.756 410.309C289.046 410.749 289.191 411.254 289.191 411.824C289.191 412.384 289.061 412.894 288.801 413.354C288.551 413.814 288.176 414.179 287.676 414.449C287.176 414.719 286.576 414.854 285.876 414.854H281.646ZM285.531 408.794C286.161 408.794 286.641 408.649 286.971 408.359C287.311 408.069 287.481 407.664 287.481 407.144C287.481 406.634 287.316 406.244 286.986 405.974C286.656 405.704 286.171 405.569 285.531 405.569H282.771V408.794H285.531ZM285.681 413.639C286.311 413.639 286.801 413.469 287.151 413.129C287.511 412.789 287.691 412.354 287.691 411.824C287.691 411.274 287.511 410.834 287.151 410.504C286.801 410.164 286.311 409.994 285.681 409.994H282.771V413.639H285.681ZM294.246 415.004C293.216 415.004 292.391 414.689 291.771 414.059C291.161 413.419 290.826 412.549 290.766 411.449L290.751 410.939L290.766 410.444C290.836 409.364 291.176 408.504 291.786 407.864C292.406 407.224 293.221 406.904 294.231 406.904C295.341 406.904 296.201 407.259 296.811 407.969C297.421 408.669 297.726 409.619 297.726 410.819V411.074C297.726 411.174 297.691 411.259 297.621 411.329C297.561 411.389 297.481 411.419 297.381 411.419H292.191V411.554C292.221 412.204 292.416 412.759 292.776 413.219C293.146 413.669 293.631 413.894 294.231 413.894C294.691 413.894 295.066 413.804 295.356 413.624C295.656 413.434 295.876 413.239 296.016 413.039C296.106 412.919 296.171 412.849 296.211 412.829C296.261 412.799 296.346 412.784 296.466 412.784H297.201C297.291 412.784 297.366 412.809 297.426 412.859C297.486 412.909 297.516 412.979 297.516 413.069C297.516 413.289 297.376 413.554 297.096 413.864C296.826 414.174 296.441 414.444 295.941 414.674C295.451 414.894 294.886 415.004 294.246 415.004ZM296.301 410.384V410.339C296.301 409.649 296.111 409.089 295.731 408.659C295.361 408.219 294.861 407.999 294.231 407.999C293.601 407.999 293.101 408.219 292.731 408.659C292.371 409.089 292.191 409.649 292.191 410.339V410.384H296.301ZM303.374 415.004C302.294 415.004 301.474 414.629 300.914 413.879V414.509C300.914 414.609 300.879 414.694 300.809 414.764C300.749 414.824 300.669 414.854 300.569 414.854H299.879C299.779 414.854 299.694 414.824 299.624 414.764C299.564 414.694 299.534 414.609 299.534 414.509V404.549C299.534 404.449 299.564 404.369 299.624 404.309C299.694 404.239 299.779 404.204 299.879 404.204H300.614C300.714 404.204 300.794 404.239 300.854 404.309C300.914 404.369 300.944 404.449 300.944 404.549V407.999C301.534 407.269 302.344 406.904 303.374 406.904C304.414 406.904 305.199 407.249 305.729 407.939C306.259 408.619 306.544 409.474 306.584 410.504C306.594 410.614 306.599 410.764 306.599 410.954C306.599 411.144 306.594 411.294 306.584 411.404C306.544 412.444 306.259 413.304 305.729 413.984C305.199 414.664 304.414 415.004 303.374 415.004ZM303.059 413.789C303.769 413.789 304.284 413.569 304.604 413.129C304.934 412.689 305.114 412.109 305.144 411.389C305.154 411.289 305.159 411.144 305.159 410.954C305.159 409.064 304.459 408.119 303.059 408.119C302.389 408.119 301.874 408.339 301.514 408.779C301.154 409.219 300.964 409.734 300.944 410.324L300.929 410.909L300.944 411.479C300.974 412.109 301.159 412.654 301.499 413.114C301.849 413.564 302.369 413.789 303.059 413.789Z" fill="white"/>
<path d="M233.716 167.809C233.716 174.819 231.474 181.306 227.666 186.591C227.085 187.398 226.468 188.176 225.815 188.925C224.679 190.229 223.439 191.439 222.11 192.546C221.921 192.702 221.731 192.857 221.539 193.009C217.496 196.221 212.662 198.479 207.376 199.442C207.375 199.442 207.375 199.442 207.374 199.442C206.601 199.584 205.819 199.697 205.028 199.781C204.438 199.845 203.844 199.894 203.245 199.924C202.691 199.953 202.13 199.967 201.567 199.967C201.424 199.967 201.283 199.966 201.139 199.965C198.97 199.936 196.854 199.693 194.808 199.255C194.79 199.25 194.77 199.246 194.751 199.243C188.436 197.879 182.81 194.659 178.474 190.182C176.979 188.639 175.638 186.947 174.474 185.13C171.273 180.13 169.418 174.187 169.418 167.809C169.418 150.048 183.811 135.65 201.567 135.65C219.323 135.65 233.716 150.048 233.716 167.809Z" fill="#7BC0FF"/>
<path d="M203.89 192.126V195.8C201.097 197.385 198.043 198.564 194.808 199.255C194.79 199.25 194.77 199.246 194.751 199.242C188.436 197.879 182.81 194.659 178.474 190.182C176.979 188.638 175.638 186.946 174.474 185.129C176.463 182.376 179.599 180.506 183.183 180.216C183.506 180.189 183.832 180.176 184.161 180.176H191.941C192.861 180.176 193.756 180.278 194.615 180.475C199.927 181.691 203.89 186.446 203.89 192.126Z" fill="#93BFD9"/>
<path d="M203.89 192.126V195.8C201.096 197.385 198.043 198.564 194.808 199.255C194.79 199.25 194.77 199.246 194.751 199.242C188.436 197.879 182.81 194.659 178.474 190.182C178.501 190.004 178.534 189.83 178.571 189.656C178.912 188.028 179.585 186.523 180.515 185.214C182.681 182.165 186.241 180.176 190.264 180.176H191.941C198.541 180.176 203.89 185.526 203.89 192.126Z" fill="#D1E6F2"/>
<path d="M188.05 185.068L182.672 188.057L181.035 180.445L184.377 178.476" fill="#93BFD9"/>
<path d="M188.05 185.068L193.429 188.057L195.065 180.445L191.723 178.476" fill="#93BFD9"/>
<path d="M192.314 175.572V180.805C192.314 182.721 191.051 184.34 189.312 184.878C188.914 185.002 188.49 185.068 188.051 185.068C185.697 185.068 183.789 183.16 183.789 180.805V175.572H192.314Z" fill="#D38051"/>
<path d="M192.314 180.474V180.805C192.314 182.721 191.051 184.34 189.312 184.878C187.742 184.395 186.563 183.03 186.345 181.36C186.629 181.378 186.916 181.386 187.203 181.386C188.01 181.386 188.8 181.323 189.571 181.196C190.519 181.043 191.436 180.799 192.314 180.474Z" fill="#EA9A69"/>
<path d="M203.89 192.126V195.8C202.018 196.862 200.031 197.741 197.949 198.415V192.126H203.89Z" fill="#F6C7A5"/>
<path d="M225.912 179.658C222.739 181.924 224.452 186.385 225.814 188.925C224.679 190.229 223.439 191.439 222.109 192.546C221.92 192.702 221.73 192.857 221.539 193.009L215.283 195.54L200.455 187.139L203.027 164.89L226.475 168.987C228.397 170.911 230.505 176.376 225.912 179.658Z" fill="#FFB93B"/>
<path d="M227.666 186.591C222.907 193.197 215.701 197.923 207.377 199.442C207.375 199.442 207.375 199.442 207.374 199.442C207.079 199.39 206.785 199.331 206.492 199.269C205.512 199.061 204.55 198.81 203.605 198.516C203.553 198.498 203.5 198.483 203.448 198.466C203.412 198.455 203.378 198.443 203.343 198.431C201.242 197.758 199.234 196.871 197.346 195.8V192.126C197.346 187.693 199.758 183.824 203.343 181.762C204.315 181.201 205.373 180.774 206.492 180.507C207.084 180.364 207.693 180.265 208.316 180.216C208.639 180.189 208.965 180.176 209.294 180.176H217.074C217.994 180.176 218.889 180.278 219.748 180.475C219.792 180.486 219.835 180.495 219.877 180.506C220.996 180.774 222.054 181.201 223.026 181.762C224.995 182.896 226.61 184.573 227.666 186.591Z" fill="#EAAF8C"/>
<path d="M227.666 186.591C222.907 193.197 215.701 197.923 207.377 199.442C206.037 199.199 204.726 198.871 203.448 198.466V192.126C203.448 185.526 208.798 180.176 215.397 180.176H217.074C221.677 180.176 225.67 182.777 227.666 186.591Z" fill="#F6C7A5"/>
<path d="M217.447 175.572V180.805C217.447 182.721 216.184 184.34 214.445 184.878C214.047 185.002 213.622 185.068 213.183 185.068C210.83 185.068 208.921 183.16 208.921 180.805V175.572H217.447Z" fill="#EAAF8C"/>
<path d="M217.447 180.474V180.805C217.447 182.721 216.184 184.34 214.444 184.878C212.875 184.395 211.695 183.03 211.478 181.36C211.762 181.378 212.049 181.386 212.336 181.386C213.142 181.386 213.933 181.323 214.703 181.196C215.652 181.043 216.569 180.799 217.447 180.474Z" fill="#F6C7A5"/>
<path d="M201.298 166.997C201.298 168.97 199.857 170.607 197.969 170.911C197.763 170.944 197.551 170.961 197.334 170.961C195.144 170.961 193.37 169.187 193.37 166.997C193.37 164.806 195.144 163.031 197.334 163.031C197.551 163.031 197.763 163.049 197.969 163.082C199.857 163.386 201.298 165.023 201.298 166.997Z" fill="#F6C7A5"/>
<path d="M201.299 166.996C201.299 168.97 199.857 170.607 197.97 170.911C197.627 169.663 197.443 168.351 197.443 166.996C197.443 165.642 197.627 164.329 197.97 163.082C199.857 163.386 201.299 165.022 201.299 166.996Z" fill="#EAAF8C"/>
<path d="M198.751 166.997C198.751 167.78 198.117 168.414 197.334 168.414C196.551 168.414 195.917 167.78 195.917 166.997C195.917 166.215 196.551 165.58 197.334 165.58C198.117 165.58 198.751 166.215 198.751 166.997Z" fill="#EAAF8C"/>
<path d="M225.069 166.997C225.069 168.97 226.511 170.607 228.398 170.911C228.605 170.944 228.817 170.961 229.034 170.961C231.223 170.961 232.997 169.187 232.997 166.997C232.997 164.806 231.223 163.031 229.034 163.031C228.817 163.031 228.605 163.049 228.398 163.082C226.511 163.386 225.069 165.023 225.069 166.997Z" fill="#F6C7A5"/>
<path d="M225.069 166.996C225.069 168.97 226.511 170.607 228.398 170.911C228.741 169.663 228.925 168.351 228.925 166.996C228.925 165.642 228.742 164.329 228.398 163.082C226.511 163.386 225.069 165.022 225.069 166.996Z" fill="#EAAF8C"/>
<path d="M230.45 166.997C230.45 167.78 229.816 168.414 229.033 168.414C228.251 168.414 227.617 167.78 227.617 166.997C227.617 166.215 228.251 165.58 229.033 165.58C229.816 165.58 230.45 166.215 230.45 166.997Z" fill="#EAAF8C"/>
<path d="M227.933 159.272V164.89C227.933 172.231 222.571 178.322 215.551 179.452C215.527 179.456 215.502 179.46 215.479 179.464C214.732 179.583 213.966 179.642 213.183 179.642C205.038 179.642 198.436 173.037 198.436 164.89V159.272C198.436 157.556 198.728 155.908 199.269 154.376C201.286 148.635 206.755 144.519 213.183 144.519H213.185C213.966 144.519 214.733 144.579 215.481 144.697C222.536 145.8 227.933 151.906 227.933 159.272Z" fill="#EAAF8C"/>
<path d="M227.933 159.272V164.89C227.933 172.231 222.571 178.322 215.55 179.452C215.527 179.456 215.502 179.46 215.478 179.464C208.423 178.361 203.028 172.255 203.028 164.89V159.272C203.028 151.906 208.425 145.8 215.481 144.697C222.535 145.8 227.933 151.906 227.933 159.272Z" fill="#F6C7A5"/>
<path d="M223.222 168.763C223.222 169.778 222.399 170.601 221.385 170.601C220.371 170.601 219.548 169.778 219.548 168.763C219.548 167.748 220.371 166.926 221.385 166.926C222.399 166.926 223.222 167.748 223.222 168.763Z" fill="#F4B3A5"/>
<path d="M206.82 168.763C206.82 169.778 205.997 170.601 204.983 170.601C203.968 170.601 203.146 169.778 203.146 168.763C203.146 167.748 203.968 166.926 204.983 166.926C205.997 166.926 206.82 167.748 206.82 168.763Z" fill="#F4B3A5"/>
<path d="M221.104 164.956H220.687C220.249 164.304 219.502 163.875 218.656 163.875C217.809 163.875 217.063 164.304 216.623 164.956H216.206C216.206 163.603 217.303 162.506 218.656 162.506C220.008 162.506 221.104 163.603 221.104 164.956Z" fill="#151A1C"/>
<path d="M210.164 164.956H209.746C209.307 164.304 208.56 163.875 207.714 163.875C206.868 163.875 206.121 164.304 205.683 164.956H205.266C205.266 163.603 206.361 162.506 207.714 162.506C209.067 162.506 210.164 163.603 210.164 164.956Z" fill="#151A1C"/>
<path d="M214.857 168.901H211.511C211.113 168.901 210.79 168.577 210.79 168.179C210.79 167.78 211.113 167.456 211.511 167.456H214.857C215.256 167.456 215.579 167.78 215.579 168.179C215.579 168.577 215.256 168.901 214.857 168.901Z" fill="#EAAF8C"/>
<path d="M213.184 173.468C211.949 173.468 210.714 173.158 209.588 172.539C209.271 172.365 209.155 171.966 209.329 171.648C209.504 171.33 209.903 171.214 210.22 171.389C212.076 172.409 214.292 172.409 216.148 171.389C216.465 171.214 216.864 171.33 217.038 171.648C217.213 171.966 217.097 172.365 216.779 172.539C215.654 173.158 214.419 173.468 213.184 173.468Z" fill="#F74570"/>
<path d="M222.11 192.546C217.954 196.004 212.913 198.433 207.376 199.443C207.375 199.443 207.375 199.443 207.374 199.443C206.025 199.69 204.647 199.852 203.245 199.925C203.245 199.47 203.244 198.964 203.244 198.4V195.672C203.244 192.735 205.623 190.355 208.558 190.355C210.543 190.355 212.27 191.444 213.184 193.056C214.097 191.444 215.826 190.355 217.809 190.355C219.577 190.355 221.143 191.218 222.11 192.546Z" fill="#D1E6F2"/>
<path d="M228.397 163.083C222.091 163.083 220.698 152.054 220.698 152.054C220.698 154.679 217.224 157.14 213.675 157.672C208.346 158.468 204.125 162.659 203.581 168.02C203.332 170.491 203.557 173.068 204.675 175.457C207.24 180.942 207.363 194.069 205.027 199.781C204.438 199.845 203.843 199.894 203.245 199.924C202.69 199.953 202.13 199.967 201.567 199.967C201.423 199.967 201.282 199.966 201.139 199.965C198.95 199.936 196.814 199.689 194.751 199.243C195.036 190.802 194.697 176.46 193.369 166.996C190.876 149.216 201.899 143.562 210.953 142.38C220.007 141.199 221.975 147.499 221.975 147.499C229.586 145.662 231.161 163.083 228.397 163.083Z" fill="#FFE96E"/>
<path d="M200.718 166.996C202.69 181.055 200.508 192.895 201.139 199.965C198.95 199.936 196.814 199.689 194.751 199.243C195.036 190.802 194.697 176.46 193.369 166.996C190.876 149.216 201.899 143.562 210.953 142.38C213.206 142.086 215.021 142.255 216.476 142.677C207.843 144.366 198.39 150.397 200.718 166.996Z" fill="#FFB93B"/>
<path d="M231.698 170.661C231.698 171.284 231.193 171.789 230.571 171.789C229.948 171.789 229.444 171.284 229.444 170.661C229.444 170.039 229.948 169.534 230.571 169.534C231.193 169.534 231.698 170.039 231.698 170.661Z" fill="#F74570"/>
<path d="M202.8 159.272V164.89C202.8 172.231 197.438 178.322 190.418 179.452C190.394 179.456 190.369 179.46 190.346 179.464C189.599 179.583 188.833 179.642 188.051 179.642C179.906 179.642 173.303 173.037 173.303 164.89V159.272C173.303 157.556 173.595 155.908 174.136 154.376C176.153 148.635 181.622 144.519 188.051 144.519H188.052C188.833 144.519 189.601 144.579 190.348 144.697C197.403 145.8 202.8 151.906 202.8 159.272Z" fill="#D38051"/>
<path d="M202.8 159.272V164.89C202.8 172.231 197.438 178.322 190.418 179.452C190.394 179.456 190.369 179.46 190.346 179.464C183.292 178.361 177.896 172.255 177.896 164.89V159.272C177.896 151.906 183.293 145.8 190.348 144.697C197.403 145.8 202.8 151.906 202.8 159.272Z" fill="#EA9A69"/>
<path d="M190.02 173.075C188.784 173.075 187.55 172.765 186.424 172.146C186.106 171.971 185.99 171.572 186.165 171.255C186.339 170.937 186.738 170.821 187.056 170.995C188.911 172.016 191.127 172.016 192.983 170.995C193.3 170.821 193.699 170.937 193.874 171.255C194.049 171.572 193.933 171.971 193.615 172.146C192.49 172.765 191.254 173.075 190.02 173.075Z" fill="#D38051"/>
<path d="M191.692 169.164H188.346C187.948 169.164 187.625 168.841 187.625 168.442C187.625 168.043 187.948 167.72 188.346 167.72H191.692C192.091 167.72 192.414 168.043 192.414 168.442C192.414 168.841 192.091 169.164 191.692 169.164Z" fill="#D38051"/>
<path d="M202.481 163.805L202.179 155.033C192.948 158.161 186.799 159.637 182.899 158.971C188.366 157.926 192.611 154.279 192.708 154.196C192.594 154.243 186.362 156.788 182.485 157.558C180.666 157.919 178.82 156.979 178.091 155.273C178.086 155.264 178.082 155.253 178.078 155.244C178.078 155.244 177.623 163.083 173.028 163.083C173.028 163.083 167.384 143.956 177.16 146.843C177.16 146.843 179.988 144.246 184.209 142.769C184.225 142.764 184.24 142.759 184.257 142.752C184.304 142.735 184.351 142.72 184.398 142.705C184.448 142.689 184.495 142.673 184.539 142.658C189.004 141.185 194.933 141.032 200.714 146.384C212.196 157.016 202.481 163.805 202.481 163.805Z" fill="#2A3347"/>
<path d="M182.485 157.558C180.666 157.918 178.82 156.979 178.092 155.273C178.086 155.263 178.082 155.253 178.078 155.244C178.078 155.244 177.623 163.083 173.028 163.083C173.028 163.083 167.384 143.955 177.16 146.843C177.16 146.843 179.988 144.246 184.209 142.769C178.415 144.879 179.943 157.558 182.485 157.558Z" fill="#151A1C"/>
<path d="M197.939 164.956H197.522C197.084 164.304 196.337 163.875 195.491 163.875C194.644 163.875 193.898 164.304 193.458 164.956H193.041C193.041 163.603 194.138 162.506 195.491 162.506C196.843 162.506 197.939 163.603 197.939 164.956Z" fill="#151A1C"/>
<path d="M186.999 164.956H186.582C186.142 164.304 185.396 163.875 184.549 163.875C183.703 163.875 182.957 164.304 182.518 164.956H182.101C182.101 163.603 183.196 162.506 184.549 162.506C185.902 162.506 186.999 163.603 186.999 164.956Z" fill="#151A1C"/>
<path d="M177.475 166.997C177.475 168.971 176.887 170.607 174.999 170.911C174.793 170.944 174.58 170.962 174.364 170.962C172.174 170.962 170.4 169.187 170.4 166.997C170.4 164.806 172.174 163.031 174.364 163.031C174.58 163.031 174.793 163.049 174.999 163.082C176.887 163.386 177.475 165.023 177.475 166.997Z" fill="#EA9A69"/>
<path d="M177.671 166.996C177.671 168.97 176.885 170.607 174.998 170.911C174.655 169.663 174.472 168.351 174.472 166.996C174.472 165.642 174.655 164.329 174.998 163.082C176.885 163.386 177.671 165.022 177.671 166.996Z" fill="#D38051"/>
<path d="M175.78 166.997C175.78 167.78 175.145 168.414 174.363 168.414C173.581 168.414 172.946 167.78 172.946 166.997C172.946 166.215 173.581 165.58 174.363 165.58C175.145 165.58 175.78 166.215 175.78 166.997Z" fill="#D38051"/>
<path d="M211.645 137.146C207.319 132.819 201.567 139.26 201.567 139.26C201.567 139.26 195.814 132.819 191.488 137.146C186.611 142.024 194.577 152.918 201.567 155.032C208.556 152.918 216.522 142.024 211.645 137.146Z" fill="#F74570"/>
<path d="M186.089 144.912C184.095 142.918 181.444 145.886 181.444 145.886C181.444 145.886 178.792 142.918 176.798 144.912C174.55 147.16 178.222 152.182 181.444 153.156C184.666 152.182 188.337 147.16 186.089 144.912Z" fill="#F74570"/>
<path d="M187.387 137.61C186.296 136.519 184.845 138.144 184.845 138.144C184.845 138.144 183.394 136.519 182.303 137.61C181.073 138.841 183.082 141.589 184.845 142.122C186.608 141.589 188.618 138.841 187.387 137.61Z" fill="#F74570"/>
<path d="M226.74 139.438C224.747 137.444 222.095 140.413 222.095 140.413C222.095 140.413 219.443 137.444 217.45 139.438C215.202 141.687 218.873 146.708 222.095 147.683C225.317 146.708 228.989 141.687 226.74 139.438Z" fill="#F74570"/>
<path d="M227.13 186.225C227.077 186.289 227.021 186.351 226.961 186.411L226.003 187.368C224.987 188.384 223.34 188.384 222.325 187.368L219.521 184.563C218.505 183.547 218.505 181.9 219.521 180.884L220.477 179.926C220.538 179.865 220.599 179.809 220.663 179.756C221.686 178.914 223.2 178.97 224.155 179.926L226.961 182.732C227.916 183.688 227.973 185.203 227.13 186.225Z" fill="#EAAF8C"/>
<path d="M227.13 186.225C226.108 187.068 224.594 187.011 223.638 186.055L220.833 183.249C219.877 182.294 219.821 180.779 220.663 179.756C221.686 178.914 223.2 178.97 224.155 179.926L226.961 182.732C227.916 183.688 227.973 185.203 227.13 186.225Z" fill="#F6C7A5"/>
<circle cx="59.5" cy="507.5" r="17.5" stroke="#F3DB02" stroke-width="8"/>
</svg>
