<svg width="530" height="532" viewBox="0 0 530 532" fill="none" xmlns="http://www.w3.org/2000/svg">
<path d="M304.143 354.74C291.2 357.446 276.238 320.322 276.167 292.624C276.097 264.925 348.138 269.993 343.808 294.672C339.478 319.351 314.791 352.504 304.143 354.74Z" fill="#CEBA00"/>
<path d="M148.938 431.62C146.233 458.915 149.33 463.509 140.564 479.842C131.799 496.176 123.527 511.629 122.435 516.751C121.342 521.873 149.78 504.083 157.617 487.436C165.455 470.788 171.503 446.536 173.856 436.135C162.855 439.092 148.938 431.62 148.938 431.62Z" fill="#FFCDB0"/>
<path d="M148.938 431.62C147.615 445.009 147.678 452.931 147.059 459.463C149.713 459.742 152.326 460.32 154.85 461.186C159.481 464.863 157.12 471.094 155.449 476.22C148.821 488.857 139.218 500.159 126.479 506.871C124.333 511.32 122.865 514.793 122.446 516.751C121.358 521.877 149.792 504.083 157.629 487.436C165.467 470.788 171.515 446.536 173.868 436.135C162.855 439.092 148.938 431.62 148.938 431.62Z" fill="#FFBE9A"/>
<path d="M287.352 220.421C255.399 226.483 167.499 235.243 157.434 244.732C147.369 254.22 144.225 430.161 140.952 454.554C151.338 459.351 170.991 458.47 176.949 454.984C184.935 408.818 200.681 345.01 205.825 326.93C265.961 303.848 344.982 289.523 344.622 282.428C344.262 275.332 294.015 221.987 287.352 220.421Z" fill="#2A2A2A"/>
<path d="M80.918 392.232C65.2313 414.726 66.6898 423.544 51.0695 433.518C35.4493 443.492 28.9482 450.495 25.4953 454.435C22.0424 458.374 46.2638 455.868 61.2381 445.174C76.2124 434.479 93.3398 416.273 100.461 408.363C89.4132 405.551 80.918 392.232 80.918 392.232Z" fill="#FFCDB0"/>
<path d="M80.918 392.232C76.4786 398.6 73.331 403.589 70.7394 407.736C77.7509 416.594 78.1541 428.381 68.3905 435.509C56.7276 442.913 43.6697 447.844 30.025 449.998C26.7886 450.176 23.5448 450.176 20.3083 449.998C18.8444 451.058 17.4779 452.247 16.2252 453.55C12.7723 457.486 46.2716 455.853 61.2459 445.158C76.2202 434.463 93.3476 416.257 100.469 408.347C89.4132 405.551 80.918 392.232 80.918 392.232Z" fill="#FFBE9A"/>
<path d="M293.619 236.703C233.996 249.113 180.48 267.428 165.259 274.716C150.038 282.004 80.9177 385.979 70.5199 403.163C73.6204 413.008 95.845 419.731 99.4545 418.905C128.381 394.113 205.281 335.521 215.679 329.333C226.076 323.146 318.772 324.266 336.15 313.524C333.66 271.431 305.7 241.532 293.619 236.703Z" fill="#3F3F3F"/>
<path d="M335.751 161.813C315.03 175.445 273.943 154.921 273.943 154.921C271.469 161.578 274.272 165.467 274.272 165.467C274.272 165.467 318.596 187.217 330.278 184.264C340.48 175.531 335.751 161.813 335.751 161.813Z" fill="#FFBE9A"/>
<path d="M273.642 164.163C273.809 164.621 274.027 165.058 274.291 165.467C274.291 165.467 318.615 187.217 330.297 184.264C332.838 182.115 334.734 179.306 335.778 176.146C314.61 175.324 293.079 173.123 273.642 164.163Z" fill="#FFBE9A"/>
<path d="M332.944 148.295C324.269 172.829 313.985 213.383 280.689 218.819C281.562 235.987 305.779 255.994 314.725 281.867C325.052 311.743 319.348 346.987 304.155 354.706C363.425 337.812 420.559 266.364 436.402 231.942C465.302 169.14 439.397 92.2444 382.996 90.1376C357.357 89.2016 341.494 124.117 332.944 148.295Z" fill="#F3DB02"/>
<path d="M336.401 148.956C342.762 126.909 350.717 108.582 363.805 96.6768C349.085 107.783 339.098 130.836 332.924 148.294C324.249 172.828 313.965 213.383 280.669 218.818C280.734 219.991 280.897 221.157 281.154 222.304C327.698 210.203 328.959 174.747 336.401 148.956Z" fill="#FFEB3A"/>
<path d="M382.984 90.1568C376.677 89.9219 370.961 91.8642 365.802 95.279C374.425 98.5185 382.855 102.253 391.048 106.463C409.245 115.56 404.089 138.551 397.488 155.234C388.093 176.349 385.94 195.808 376.348 216.019C370.03 229.795 365.023 245.166 350.541 252.277C336.679 258.52 320.495 259.773 307.376 266.25C310.322 271.21 312.782 276.444 314.721 281.879C325.048 311.754 319.344 346.999 304.151 354.717C363.421 337.823 420.555 266.375 436.398 231.953C465.29 169.163 439.385 92.2676 382.984 90.1568Z" fill="#EBD300"/>
<path d="M385.994 93.7432C378.982 68.4612 376.54 59.3955 374.093 34.3368C371.646 9.27796 322.55 8.61615 323.983 27.0568C325.416 45.4975 333.339 66.7694 337.262 71.6998C341.185 76.6301 350.11 76.869 353.43 75.8547C356.762 89.2946 360.058 116.95 362.802 117.846C365.547 118.743 388.703 103.502 385.994 93.7432Z" fill="#FFCDB0"/>
<path d="M323.987 27.0568C324.3 30.8436 324.823 34.6101 325.553 38.339C329.769 34.6265 329.373 32.0106 336.271 30.4285C345.33 28.353 346.783 26.9785 349.844 32.504C352.906 38.0296 355.235 33.8629 358.3 38.1745C361.366 42.486 367.618 48.6577 366.275 57.8761C364.975 66.7851 357.729 75.0127 341.611 74.8561C345.835 76.6614 351.062 76.5831 353.43 75.8586C353.665 76.8102 353.9 77.8401 354.135 78.9209C358.363 78.7956 362.395 77.707 366.858 77.0256C375.862 75.6511 377.843 84.9791 378.282 94.4285C378.561 101.469 376.108 108.345 371.435 113.617C378.779 108.558 387.732 100.021 385.99 93.7432C378.978 68.4612 376.536 59.3955 374.089 34.3368C371.642 9.27796 322.55 8.61615 323.987 27.0568Z" fill="#FFBE9A"/>
<path d="M376.744 55.4646C374.536 56.3183 376.031 47.8988 372.331 45.4082C368.632 42.9176 373.079 39.6164 370.707 32.9552C368.334 26.294 362.787 35.8256 364.232 40.5915C365.676 45.3573 360.708 40.521 360.36 36.7342C360.011 32.9474 353.462 34.9798 350.671 28.9451C347.879 22.9105 345.816 22.327 342.978 25.2602C340.14 28.1933 329.401 25.0369 326.109 32.1171C322.817 39.1974 302.792 52.2221 294.79 35.7826C286.788 19.343 310.923 24.1793 317.888 14.6751C324.852 5.17082 342.003 -8.07325 352.26 6.79207C357.999 -4.17286 369.548 0.397159 372.226 4.86537C376.689 12.2315 378.971 54.5992 376.744 55.4646Z" fill="#1D1D1D"/>
<path d="M365.203 18.5284C358.614 16.9306 354.699 10.2498 354.578 3.47116C353.661 4.46852 352.884 5.58565 352.268 6.79197C351.161 5.13915 349.777 3.68983 348.177 2.50781C351.391 10.1715 350.323 19.3272 342.278 21.8923C332.58 25.0643 325.585 27.6175 319.129 36.6832C315.5 41.774 309.663 43.7869 303.634 43.4188C312.638 45.4395 323.729 37.2314 326.109 32.1171C329.402 25.0368 340.14 28.201 342.978 25.2601C345.816 22.3191 347.884 22.9104 350.671 28.945C353.458 34.9797 360.02 32.9473 360.36 36.7341C360.701 40.5209 365.673 45.3494 364.232 40.5914C362.791 35.8334 368.331 26.2978 370.707 32.9551C373.083 39.6124 368.628 42.9214 372.332 45.4081C376.035 47.8948 374.536 56.3182 376.744 55.4645C377.918 55.0103 377.84 43.2347 376.877 31.0401C374.473 25.2052 370.723 19.8716 365.203 18.5284Z" fill="#1D1D1D"/>
<path d="M259.557 143.514C250.854 137.397 244.289 131.625 241.96 130.45C239.63 129.275 225.666 134.511 225.247 135.568C224.797 136.704 236.87 146.698 242.864 151.894C247.73 156.112 254.695 157.154 259.616 156.366C264.537 155.579 259.557 143.514 259.557 143.514Z" fill="url(#paint0_linear)"/>
<path d="M258.762 146.098C250.063 139.981 240.178 132.564 237.864 131.389C235.551 130.214 222.745 136.127 222.326 137.185C221.872 138.32 232.775 147.637 238.769 152.849C243.635 157.067 250.603 158.108 255.52 157.321C260.437 156.534 258.762 146.098 258.762 146.098Z" fill="url(#paint1_linear)"/>
<path d="M238.545 140.019C239.579 140.971 239.849 142.369 239.144 143.129C238.44 143.888 237.03 143.751 236.013 142.8C234.995 141.848 234.709 140.45 235.414 139.686C236.118 138.923 237.512 139.068 238.545 140.019Z" fill="url(#paint2_linear)"/>
<path d="M377.014 162.831C375.287 175.362 372.065 181.749 371.141 182.583C370.217 183.417 323.58 193.881 280.043 162.267C277.596 160.489 278.219 153.209 275.87 150.178C273.521 147.147 264.035 144.187 259.764 137.177C258.539 135.164 254.138 139.871 255.642 143.094C257.145 146.317 258.492 148.302 257.885 150.096C257.278 151.889 250.341 160.7 234.748 149.148C232.904 147.785 231.475 151.553 235.183 156.056C238.89 160.56 248.493 166.261 255.563 166.038C262.634 165.815 266.525 169.676 272.198 175.225C276.48 179.427 330.92 223.275 380.001 214.742C395.93 211.973 419.341 199.591 417.364 155.946C408.07 148.788 377.014 162.831 377.014 162.831Z" fill="#FFCDB0"/>
<path d="M377.013 162.832C376.711 165.041 376.359 167.05 375.979 168.878C385.32 176.244 393.667 181.801 388.006 192.077C381.429 204.017 365.977 211.266 344.367 205.783C322.757 200.301 274.323 178.95 268.622 169.207C264.347 161.904 252.928 163.819 245.028 163.274C248.528 164.982 252.305 166.137 255.559 166.016C262.645 165.793 266.52 169.654 272.193 175.203C276.476 179.405 330.916 223.253 379.996 214.72C395.926 211.951 419.336 199.568 417.359 155.924C408.069 148.789 377.013 162.832 377.013 162.832Z" fill="#FFBE9A"/>
<path d="M376.348 116.12C365.802 141.891 367.982 162.662 369.646 165.356C374.966 173.972 415.481 170.952 423.694 152.958C425.918 148.091 421.486 110.497 407.784 99.9154C398.733 92.9487 382.252 101.685 376.348 116.12Z" fill="#FFEB3A"/>
<path d="M195.59 108.961C205.202 111.541 215.08 105.837 217.652 96.2194C220.225 86.6023 214.518 76.7146 204.906 74.1345C195.293 71.5544 185.416 77.2591 182.843 86.8762C180.271 96.4933 185.978 106.381 195.59 108.961Z" fill="#FF8989"/>
<path d="M191.409 87.1728C191.767 86.5407 192.25 85.9879 192.828 85.548C193.406 85.1081 194.068 84.7903 194.772 84.6138C195.477 84.4372 196.21 84.4057 196.927 84.521C197.644 84.6364 198.331 84.8962 198.944 85.2848C199.333 84.671 199.843 84.1425 200.442 83.7314C201.04 83.3203 201.717 83.0351 202.429 82.8931C203.141 82.7511 203.875 82.7552 204.586 82.9053C205.297 83.0553 205.97 83.3481 206.564 83.7659C208.93 85.4234 209.475 88.7128 207.929 91.1543L203.399 98.3184C203.101 98.7887 202.628 99.1211 202.084 99.2426C201.541 99.364 200.971 99.2646 200.501 98.9661L193.337 94.4344C190.893 92.8891 189.981 89.6842 191.409 87.1728Z" fill="white"/>
<path d="M457.018 39.8631C457.479 37.8674 458.239 35.9527 459.271 34.1837C461.997 29.461 464.58 28.8876 465.876 28.9665C469.333 29.1743 472.457 33.5065 473.331 34.8287C474.209 36.1545 476.97 40.7231 475.81 43.9874C475.376 45.2129 473.836 47.3664 468.423 48.0257C466.397 48.2801 464.345 48.2293 462.334 47.8752C459.987 47.4309 458.368 46.5602 457.53 45.2917C456.692 44.0232 456.509 42.1958 457.018 39.8631ZM469.888 37.1076C468.273 34.6674 466.496 33.295 465.64 33.2413C465.282 33.2198 464.021 33.9579 462.645 36.3551C461.882 37.6682 461.317 39.087 460.969 40.5654C460.65 42.0309 460.811 42.7978 460.969 43.0163C461.127 43.2349 461.757 43.69 463.226 43.9695C464.723 44.2254 466.25 44.2592 467.757 44.0698C470.487 43.7366 471.672 42.8766 471.794 42.5362C472.081 41.7264 471.515 39.5514 469.899 37.1076H469.888Z" fill="#F3DB02"/>
<path d="M526.461 172.841C525.48 172.3 524.355 171.989 523.154 171.989C521.036 171.989 519.139 172.955 517.886 174.469C516.628 172.955 514.733 171.989 512.612 171.989C511.414 171.989 510.291 172.3 509.308 172.841C507.198 174.01 505.769 176.256 505.769 178.839C505.769 179.578 505.889 180.287 506.107 180.95C507.282 186.232 517.886 192.893 517.886 192.893C517.886 192.893 528.484 186.232 529.661 180.95C529.879 180.287 530 179.577 530 178.839C530 176.257 528.571 174.011 526.461 172.841Z" fill="#FF8989"/>
<path d="M67.5906 441.401C57.3891 444.086 50.1398 440.437 44.3231 436.187C37.6714 444.276 23.8003 446.899 13.1191 451.289C1.3639 456.12 -6.30477 471.134 7.04209 471.977C25.473 473.141 34.8294 463.995 60.5907 461.135C72.1465 459.851 64.429 450.514 67.5906 441.401Z" fill="#2A2A2A"/>
<path d="M161.677 479.131C152.933 485.276 144.79 484.614 137.796 482.885C134.297 492.628 122.052 500.053 113.445 507.915C103.974 516.568 101.917 532.947 114.869 528.85C132.755 523.192 138.453 511.508 161.893 499.538C172.408 494.169 161.844 488.529 161.677 479.131Z" fill="#2A2A2A"/>
<circle cx="241.712" cy="407.955" r="12.3182" stroke="#F3DB02" stroke-width="8"/>
<path d="M151.471 158.821C149.852 156.439 146.451 156.152 144.457 158.23L140.065 162.806C139.659 163.229 138.965 163.161 138.649 162.667L136.39 159.137C134.764 156.595 131.154 156.324 129.166 158.594L125.556 162.719C124.896 163.472 124.972 164.617 125.725 165.277C126.478 165.936 127.623 165.86 128.282 165.107L131.893 160.983C132.29 160.529 133.012 160.583 133.337 161.091L135.596 164.621C137.176 167.091 140.65 167.432 142.68 165.317L147.071 160.741C147.47 160.326 148.15 160.383 148.474 160.859L151.109 164.736C152.751 167.15 156.213 167.405 158.19 165.256L161.909 161.213C162.586 160.476 162.539 159.329 161.802 158.651C161.066 157.973 159.919 158.021 159.242 158.758L155.522 162.801C155.127 163.231 154.435 163.18 154.106 162.697L151.471 158.821Z" fill="#F3DB02"/>
<defs>
<linearGradient id="paint0_linear" x1="-115938" y1="23923.2" x2="-115890" y2="24302.4" gradientUnits="userSpaceOnUse">
<stop stop-color="#0F1A4D"/>
<stop offset="1" stop-color="#000938"/>
</linearGradient>
<linearGradient id="paint1_linear" x1="-114275" y1="24797.7" x2="-117167" y2="26967" gradientUnits="userSpaceOnUse">
<stop stop-color="#1D275B"/>
<stop offset="1" stop-color="#070F38"/>
</linearGradient>
<linearGradient id="paint2_linear" x1="13948.6" y1="-4881.66" x2="13955.9" y2="-4872.21" gradientUnits="userSpaceOnUse">
<stop stop-color="#0F1A4D"/>
<stop offset="1" stop-color="#000938"/>
</linearGradient>
</defs>
</svg>
