<svg width="1440" height="179" viewBox="0 0 1440 179" fill="none" xmlns="http://www.w3.org/2000/svg">
<path d="M0 0H1440V40.8512C1440 40.8512 1205.55 180.359 970.746 178.179C735.938 175.999 753.424 36.4917 418.698 71.3685C111.842 103.341 0 5.97444 0 5.97444V0Z" fill="#FAFAFA"/>
<path fill-rule="evenodd" clip-rule="evenodd" d="M95.5 60.058C101.157 60.058 105.743 55.5991 105.743 50.0988C105.743 44.5984 101.157 40.1395 95.5 40.1395C89.8431 40.1395 85.2573 44.5984 85.2573 50.0988C85.2573 55.5991 89.8431 60.058 95.5 60.058ZM95.5 64.1975C103.508 64.1975 110 57.8853 110 50.0988C110 42.3122 103.508 36 95.5 36C87.4919 36 81 42.3122 81 50.0988C81 57.8853 87.4919 64.1975 95.5 64.1975Z" fill="#F3DB02"/>
<path fill-rule="evenodd" clip-rule="evenodd" d="M1171.5 168.751C1184.18 168.751 1194.46 158.789 1194.46 146.5C1194.46 134.211 1184.18 124.249 1171.5 124.249C1158.82 124.249 1148.54 134.211 1148.54 146.5C1148.54 158.789 1158.82 168.751 1171.5 168.751ZM1171.5 178C1189.45 178 1204 163.897 1204 146.5C1204 129.103 1189.45 115 1171.5 115C1153.55 115 1139 129.103 1139 146.5C1139 163.897 1153.55 178 1171.5 178Z" fill="#F3DB02"/>
</svg>
