<svg width="495" height="513" viewBox="0 0 495 513" fill="none" xmlns="http://www.w3.org/2000/svg">
<path d="M495 353.156H0V353.404H495V353.156Z" fill="#EBEBEB"/>
<path d="M445.401 369.084H412.612V369.331H445.401V369.084Z" fill="#EBEBEB"/>
<path d="M327.907 371.776H289.08V372.024H327.907V371.776Z" fill="#EBEBEB"/>
<path d="M411.622 359.897H355.172V360.145H411.622V359.897Z" fill="#EBEBEB"/>
<path d="M240.679 361.561H172.735V361.808H240.679V361.561Z" fill="#EBEBEB"/>
<path d="M255.756 361.561H249.49V361.808H255.756V361.561Z" fill="#EBEBEB"/>
<path d="M222.889 365.739H97.3467V365.987H222.889V365.739Z" fill="#EBEBEB"/>
<path d="M234.63 309.002H43.4706C41.9731 309 40.5378 308.403 39.4798 307.343C38.4218 306.283 37.8276 304.847 37.8276 303.349V34.6337C37.8407 33.1447 38.4406 31.7211 39.4972 30.6719C40.5538 29.6227 41.9816 29.0328 43.4706 29.0303H234.63C236.129 29.0303 237.567 29.6258 238.627 30.686C239.687 31.7461 240.283 33.1839 240.283 34.6832V303.349C240.283 304.849 239.687 306.286 238.627 307.347C237.567 308.407 236.129 309.002 234.63 309.002ZM43.4706 29.2283C42.0388 29.2309 40.6664 29.8015 39.6548 30.815C38.6433 31.8284 38.0751 33.2018 38.0751 34.6337V303.349C38.0751 304.781 38.6433 306.155 39.6548 307.168C40.6664 308.181 42.0388 308.752 43.4706 308.755H234.63C236.063 308.752 237.436 308.182 238.449 307.169C239.462 306.156 240.033 304.782 240.035 303.349V34.6337C240.033 33.2009 239.462 31.8275 238.449 30.8144C237.436 29.8012 236.063 29.2309 234.63 29.2283H43.4706Z" fill="#EBEBEB"/>
<path d="M448.777 309.002H257.608C256.109 309 254.673 308.403 253.613 307.344C252.554 306.284 251.957 304.848 251.955 303.349V34.6337C251.97 33.1438 252.573 31.7202 253.631 30.6713C254.689 29.6224 256.118 29.0328 257.608 29.0303H448.777C450.264 29.0354 451.689 29.6265 452.744 30.6754C453.798 31.7243 454.397 33.1464 454.41 34.6337V303.349C454.41 304.845 453.817 306.28 452.761 307.34C451.705 308.399 450.273 308.997 448.777 309.002ZM257.608 29.2283C256.175 29.2309 254.802 29.8012 253.788 30.8144C252.775 31.8275 252.205 33.2009 252.202 34.6337V303.349C252.205 304.782 252.775 306.156 253.788 307.169C254.802 308.182 256.175 308.752 257.608 308.755H448.777C450.21 308.752 451.583 308.182 452.596 307.169C453.609 306.156 454.18 304.782 454.182 303.349V34.6337C454.18 33.2009 453.609 31.8275 452.596 30.8144C451.583 29.8012 450.21 29.2309 448.777 29.2283H257.608Z" fill="#EBEBEB"/>
<path d="M192.149 110.921L209.494 114.238C208.732 135.374 199.97 153.095 184.437 160.52C158.786 172.777 124.384 152.333 107.593 114.862C106.97 113.466 106.376 112.07 105.811 110.654L116.493 105.447C112.321 103.598 107.738 102.871 103.198 103.338C98.3466 88.0524 97.3467 72.8163 99.8217 59.679L117.285 58.9167C112.935 55.0625 107.657 52.4049 101.97 51.2046C105.93 39.2058 113.286 29.7414 123.602 24.8112C135.125 19.3068 148.431 20.3958 161.103 26.6823C160.05 30.0248 159.539 33.514 159.588 37.0179L166.32 29.5533C168.673 31.0054 170.941 32.592 173.111 34.3053C169.224 37.9863 166.428 42.6696 165.033 47.8386L179.814 40.2552C188.508 48.964 195.514 59.2086 200.475 70.47C205.475 81.4667 208.492 93.261 209.385 105.308C197.772 105.189 192.149 110.921 192.149 110.921Z" fill="#F5F5F5"/>
<path d="M190.011 173.797C189.868 173.797 189.728 173.761 189.603 173.691C189.479 173.622 189.374 173.522 189.298 173.401C152.609 114.773 127.71 36.108 127.423 35.316C127.381 35.2083 127.361 35.093 127.366 34.9773C127.37 34.8617 127.398 34.7482 127.449 34.644C127.499 34.5398 127.57 34.447 127.658 34.3716C127.746 34.2961 127.848 34.2395 127.959 34.2054C128.069 34.1713 128.186 34.1603 128.301 34.1732C128.416 34.1861 128.527 34.2226 128.627 34.2804C128.727 34.3382 128.814 34.416 128.883 34.509C128.952 34.602 129.001 34.7083 129.027 34.821C129.274 35.6031 154.143 114.071 190.724 172.51C190.842 172.699 190.88 172.928 190.83 173.145C190.779 173.362 190.645 173.55 190.456 173.669C190.324 173.754 190.169 173.799 190.011 173.797Z" fill="#E0E0E0"/>
<path d="M143.551 78.4312H143.471C143.361 78.4214 143.254 78.3896 143.156 78.3377C143.058 78.2858 142.972 78.2149 142.902 78.1292C142.831 78.0434 142.779 77.9445 142.748 77.8383C142.717 77.732 142.707 77.6206 142.719 77.5105C142.719 77.3026 145.036 56.0671 159.965 42.6229C160.045 42.5479 160.14 42.4899 160.243 42.4521C160.347 42.4144 160.457 42.3978 160.566 42.4034C160.676 42.4089 160.784 42.4365 160.883 42.4844C160.982 42.5323 161.07 42.5996 161.143 42.6823C161.218 42.7637 161.276 42.8592 161.314 42.9634C161.352 43.0675 161.369 43.1782 161.363 43.2888C161.358 43.3995 161.33 43.508 161.282 43.6078C161.234 43.7077 161.167 43.7969 161.084 43.8703C146.63 56.8888 144.412 77.4709 144.382 77.6788C144.362 77.8854 144.266 78.0771 144.112 78.2163C143.958 78.3555 143.758 78.4322 143.551 78.4312Z" fill="#E0E0E0"/>
<path d="M152.945 101.516C152.763 101.5 152.592 101.423 152.46 101.298C134.818 87.3195 113.691 87.1809 113.265 87.1809C113.059 87.1584 112.869 87.0606 112.73 86.9062C112.592 86.7519 112.515 86.5518 112.515 86.3444C112.515 86.137 112.592 85.9369 112.73 85.7825C112.869 85.6281 113.059 85.5303 113.265 85.5078C113.483 85.5078 135.293 85.5078 153.519 99.9915C153.691 100.131 153.802 100.333 153.826 100.554C153.85 100.775 153.786 100.996 153.648 101.17C153.569 101.281 153.463 101.372 153.34 101.432C153.217 101.493 153.081 101.521 152.945 101.516Z" fill="#E0E0E0"/>
<path d="M166.775 131.524C166.573 131.521 166.379 131.446 166.228 131.311C166.077 131.176 165.98 130.992 165.954 130.792C165.954 130.544 162.697 105.131 186.744 83.6281C186.911 83.482 187.129 83.4077 187.35 83.4216C187.572 83.4354 187.779 83.5362 187.926 83.7021C188.074 83.8679 188.15 84.0853 188.138 84.3069C188.126 84.5286 188.027 84.7365 187.862 84.8854C164.508 105.765 167.577 130.317 167.617 130.564C167.638 130.677 167.636 130.793 167.61 130.905C167.585 131.017 167.537 131.122 167.469 131.215C167.402 131.308 167.316 131.386 167.217 131.444C167.118 131.502 167.008 131.54 166.894 131.554L166.775 131.524Z" fill="#E0E0E0"/>
<path d="M65.1616 122.585C67.6663 161.294 86.1298 183.47 135.57 212.893C173.002 235.168 195.654 270.53 194.268 298.637C212.008 238.167 188.1 187.43 160.736 164.709C138.887 146.563 100.109 116.09 65.1616 122.585Z" fill="#E6E6E6"/>
<path d="M194.268 299.735H194.178C193.893 299.71 193.629 299.573 193.443 299.354C193.258 299.136 193.166 298.853 193.188 298.567C197.802 237.632 167.448 213.565 138.55 195.785C109.652 178.005 74.2498 141.464 64.2013 123.079C64.1274 122.834 64.1419 122.57 64.2421 122.334C64.3424 122.097 64.5221 121.904 64.7502 121.786C64.9783 121.669 65.2403 121.635 65.4908 121.69C65.7414 121.745 65.9646 121.887 66.1219 122.089C74.8339 138.018 108.613 174.797 139.679 193.944C169.082 212.061 200.069 236.593 195.357 298.745C195.33 299.015 195.203 299.266 195.002 299.449C194.801 299.632 194.539 299.734 194.268 299.735Z" fill="#F5F5F5"/>
<path d="M190.079 220.208C181.239 220.208 168.121 217.317 158.488 209.625C158.26 209.443 158.113 209.179 158.08 208.889C158.046 208.6 158.129 208.309 158.31 208.08C158.491 207.852 158.756 207.705 159.046 207.671C159.335 207.638 159.626 207.721 159.855 207.902C170.972 216.812 186.872 218.97 194.614 217.683C194.756 217.659 194.902 217.663 195.042 217.696C195.183 217.728 195.316 217.788 195.434 217.871C195.551 217.955 195.651 218.061 195.728 218.183C195.805 218.306 195.857 218.442 195.881 218.584C195.905 218.727 195.901 218.872 195.868 219.013C195.836 219.154 195.776 219.287 195.693 219.404C195.609 219.522 195.503 219.622 195.381 219.699C195.258 219.775 195.122 219.827 194.98 219.851C193.358 220.1 191.72 220.219 190.079 220.208Z" fill="#F5F5F5"/>
<path d="M127.007 208.774C126.865 208.775 126.725 208.748 126.593 208.695C126.462 208.642 126.342 208.564 126.241 208.465C126.14 208.365 126.06 208.247 126.004 208.117C125.949 207.986 125.919 207.846 125.918 207.704C125.73 200.22 122.483 185.043 111.484 175.628C111.29 175.432 111.176 175.17 111.166 174.895C111.156 174.619 111.25 174.349 111.43 174.14C111.61 173.93 111.862 173.796 112.136 173.763C112.41 173.731 112.686 173.803 112.91 173.965C124.493 183.865 127.908 199.804 128.106 207.625C128.11 207.769 128.085 207.912 128.034 208.046C127.982 208.181 127.904 208.303 127.805 208.407C127.705 208.511 127.586 208.595 127.454 208.653C127.323 208.71 127.181 208.741 127.037 208.744L127.007 208.774Z" fill="#F5F5F5"/>
<path d="M112.86 199.4H112.761C112.471 199.373 112.204 199.231 112.018 199.006C111.833 198.782 111.744 198.492 111.771 198.202C112.464 190.857 108.871 174.967 98.9706 164.216C98.7719 164.008 98.6636 163.73 98.6691 163.442C98.6747 163.155 98.7937 162.881 99.0003 162.681C99.1062 162.583 99.2304 162.506 99.3659 162.456C99.5013 162.406 99.6454 162.383 99.7897 162.388C99.9341 162.394 100.076 162.428 100.207 162.488C100.338 162.549 100.456 162.634 100.555 162.741C110.9 173.987 114.652 190.678 113.92 198.381C113.902 198.652 113.784 198.907 113.588 199.096C113.392 199.285 113.132 199.393 112.86 199.4Z" fill="#F5F5F5"/>
<path d="M193.763 237.474C188.437 237.474 181.17 234.425 174.765 225.96C174.665 225.847 174.591 225.714 174.545 225.57C174.499 225.425 174.484 225.274 174.5 225.123C174.515 224.973 174.562 224.828 174.636 224.696C174.711 224.565 174.812 224.45 174.932 224.359C175.053 224.268 175.191 224.203 175.338 224.168C175.485 224.134 175.638 224.129 175.787 224.156C175.936 224.183 176.077 224.24 176.203 224.324C176.329 224.408 176.436 224.517 176.517 224.644C184.437 235.108 194.119 236.91 198.06 234.177C198.3 234.015 198.593 233.954 198.878 234.006C199.163 234.057 199.417 234.219 199.584 234.455C199.667 234.573 199.726 234.706 199.756 234.847C199.787 234.988 199.79 235.133 199.764 235.275C199.738 235.417 199.685 235.552 199.606 235.673C199.528 235.794 199.426 235.898 199.307 235.979C197.65 237.021 195.719 237.542 193.763 237.474Z" fill="#F5F5F5"/>
<path d="M71.1016 284.509C79.6651 293.944 96.2476 298.538 96.0199 287.935C96.6139 278.035 80.7541 279.886 71.1016 284.509Z" fill="#F5F5F5"/>
<path d="M66.9634 263.066C70.4581 271.164 81.5065 278.906 84.7834 271.53C88.3969 264.65 75.9229 262.353 66.9634 263.066Z" fill="#F5F5F5"/>
<path d="M85.7734 300.052C95.2477 308.378 111.84 310.863 110.078 300.161C109.227 290.073 94.3468 294.092 85.7734 300.052Z" fill="#F5F5F5"/>
<path d="M101.97 313.773C112.256 320.941 128.7 321.346 125.344 310.714C123.057 300.586 109.375 306.615 101.97 313.773Z" fill="#F5F5F5"/>
<path d="M119.651 325.564C130.64 331.504 146.638 329.9 141.787 319.495C137.956 309.486 125.67 317.347 119.651 325.564Z" fill="#F5F5F5"/>
<path d="M138.511 335.315C150.094 339.998 165.528 336.404 159.123 326.405C153.797 316.673 143.095 326.207 138.511 335.315Z" fill="#F5F5F5"/>
<path d="M158.4 342.918C170.468 346.274 185.13 340.78 177.21 331.335C170.428 322.069 161.459 333.078 158.4 342.918Z" fill="#F5F5F5"/>
<path d="M98.346 259.699C102.702 266.629 105.009 279.915 93.99 279.39C82.2783 278.054 88.9212 264.649 98.346 259.699Z" fill="#F5F5F5"/>
<path d="M108.346 271.441C113.425 277.768 117.543 290.905 106.93 291.845C95.5253 292.033 100.04 277.669 108.346 271.441Z" fill="#F5F5F5"/>
<path d="M119.523 281.866C125.275 287.569 131.185 300.359 121.117 302.656C110.187 304.359 112.454 289.262 119.523 281.866Z" fill="#F5F5F5"/>
<path d="M131.76 290.934C138.125 295.973 145.808 308.239 136.423 311.872C126.107 314.951 126.047 299.349 131.76 290.934Z" fill="#F5F5F5"/>
<path d="M144.926 298.578C151.856 302.895 161.271 314.418 152.697 319.299C143.124 323.704 140.679 307.854 144.926 298.578Z" fill="#F5F5F5"/>
<path d="M158.895 304.715C166.3 308.249 177.448 318.892 169.785 324.881C161.083 330.524 156.212 314.674 158.895 304.715Z" fill="#F5F5F5"/>
<path d="M188.575 330.673C188.575 330.891 188.575 331.108 188.575 331.326C188.59 331.472 188.57 331.62 188.516 331.757C188.463 331.894 188.377 332.016 188.267 332.113C188.156 332.209 188.024 332.279 187.881 332.314C187.739 332.349 187.59 332.35 187.447 332.316C165.885 329.135 145.17 321.704 126.503 310.453C107.836 299.203 91.5891 284.357 78.7051 266.778C78.6118 266.67 78.5446 266.542 78.5086 266.404C78.4726 266.266 78.4689 266.122 78.4976 265.982C78.5263 265.843 78.5867 265.711 78.6742 265.599C78.7616 265.486 78.8738 265.395 79.0021 265.333L79.5862 265.056C79.8773 264.933 80.2011 264.911 80.5061 264.993C80.8111 265.076 81.0797 265.258 81.2692 265.511C93.8356 282.656 109.682 297.134 127.888 308.105C146.095 319.077 166.299 326.324 187.328 329.425C187.644 329.468 187.937 329.613 188.162 329.839C188.387 330.064 188.533 330.357 188.575 330.673Z" fill="#F5F5F5"/>
<path d="M409.454 39.1279C404.583 62.6899 382.001 86.1529 372.18 68.6299C361.686 53.1364 389.288 40.9099 409.454 39.1279Z" fill="#E6E6E6"/>
<path d="M395.564 0.230469C397.673 16.7932 387.12 39.9988 374.695 31.168C362.211 23.4658 380.298 7.70497 395.564 0.230469Z" fill="#E6E6E6"/>
<path d="M400.524 78.5292C393.099 101.2 368.468 121.198 361.053 102.091C352.747 84.8553 380.813 77.0937 400.524 78.5292Z" fill="#E6E6E6"/>
<path d="M387.278 116.496C377.378 138.059 351.124 154.483 346.283 134C340.343 115.269 368.399 111.923 387.278 116.496Z" fill="#E6E6E6"/>
<path d="M369.904 152.652C357.737 172.907 330.126 185.668 328.027 164.067C324.631 144.079 352.193 145.078 369.904 152.652Z" fill="#E6E6E6"/>
<path d="M348.579 186.667C334.224 205.477 305.653 214.387 306.445 191.983C305.762 171.015 332.363 176.242 348.579 186.667Z" fill="#E6E6E6"/>
<path d="M323.472 218.189C307.058 235.257 277.853 240.444 281.684 217.457C283.862 195.785 309.058 205.101 323.472 218.189Z" fill="#E6E6E6"/>
<path d="M341.273 25.0098C340.837 40.4439 349.876 64.3227 367.31 52.8783C385.051 39.3648 361.35 23.9604 341.273 25.0098Z" fill="#E6E6E6"/>
<path d="M336.253 53.6699C334.066 68.8664 340.006 94.2005 358.182 85.5281C376.913 74.8658 355.766 55.8182 336.253 53.6699Z" fill="#E6E6E6"/>
<path d="M328.076 81.3906C324.205 96.2406 326.888 122.723 345.51 116.833C364.904 109.041 346.698 86.6277 328.076 81.3906Z" fill="#E6E6E6"/>
<path d="M316.889 107.923C311.365 122.238 310.642 149.602 329.422 146.533C349.183 141.583 334.263 116.15 316.889 107.923Z" fill="#E6E6E6"/>
<path d="M302.811 133.029C295.693 146.701 291.436 174.609 310.077 174.233C329.897 172.194 318.621 144.048 302.811 133.029Z" fill="#E6E6E6"/>
<path d="M285.962 156.463C277.299 169.333 269.389 197.38 287.625 199.756C307.217 200.567 299.901 170.095 285.962 156.463Z" fill="#E6E6E6"/>
<path d="M262.607 227.268L263.172 228.367C263.295 228.608 263.474 228.817 263.692 228.977C263.911 229.137 264.164 229.244 264.431 229.289C264.698 229.335 264.972 229.317 265.231 229.238C265.491 229.158 265.728 229.02 265.924 228.833C297.966 202.917 324.542 170.896 344.109 134.628C363.677 98.3596 375.847 58.566 379.912 17.5567C379.963 17.2917 379.95 17.0186 379.877 16.7591C379.804 16.4995 379.671 16.2605 379.49 16.0609C379.309 15.8613 379.083 15.7065 378.832 15.6087C378.581 15.5109 378.31 15.4729 378.041 15.4975L376.824 15.5965C376.231 15.6786 375.682 15.9557 375.265 16.3841C374.847 16.8126 374.584 17.368 374.517 17.9626C370.55 57.9563 358.679 96.7638 339.594 132.133C320.509 167.503 294.59 198.729 263.34 224.001C262.877 224.391 262.555 224.921 262.422 225.511C262.29 226.101 262.355 226.719 262.607 227.268Z" fill="#E6E6E6"/>
<path d="M313.325 345.126C304.484 298.101 319.78 265.926 369.864 215.664C407.801 177.598 424.057 128.415 413.8 95.2402C453.489 162.095 440.382 230.098 414.671 265.52C394.109 293.923 357.083 342.196 313.325 345.126Z" fill="#F0F0F0"/>
<path d="M313.325 346.483C313.215 346.481 313.105 346.465 312.998 346.434C312.825 346.392 312.661 346.316 312.517 346.211C312.373 346.105 312.252 345.972 312.159 345.819C312.067 345.666 312.006 345.497 311.981 345.32C311.955 345.143 311.964 344.963 312.008 344.79C318.384 319.783 349.529 265.333 378.626 235.217C407.722 205.101 436.659 167.085 412.513 95.6766C412.421 95.343 412.46 94.9867 412.622 94.6808C412.784 94.3749 413.056 94.1424 413.384 94.0311C413.712 93.9197 414.07 93.9379 414.385 94.0819C414.699 94.2258 414.947 94.4847 415.077 94.8054C439.709 167.66 410.177 206.448 380.566 237.098C349.292 269.471 320.176 323.753 314.632 345.464C314.555 345.752 314.385 346.008 314.149 346.192C313.914 346.376 313.624 346.478 313.325 346.483Z" fill="#E0E0E0"/>
<path d="M399.307 214.743C399.056 214.742 398.81 214.671 398.597 214.538C398.384 214.405 398.212 214.216 398.1 213.991C397.988 213.766 397.941 213.515 397.963 213.265C397.986 213.015 398.077 212.776 398.228 212.575C409.306 197.903 428.571 190.072 438.719 189.191C438.898 189.173 439.078 189.191 439.25 189.244C439.422 189.297 439.582 189.383 439.72 189.498C439.859 189.613 439.973 189.754 440.056 189.914C440.139 190.073 440.19 190.248 440.205 190.427C440.22 190.606 440.199 190.787 440.144 190.958C440.089 191.129 440 191.287 439.883 191.424C439.766 191.561 439.622 191.672 439.462 191.753C439.301 191.834 439.126 191.882 438.946 191.894C429.304 192.726 410.959 200.2 400.386 214.209C400.26 214.376 400.097 214.511 399.91 214.604C399.722 214.697 399.516 214.745 399.307 214.743Z" fill="#E0E0E0"/>
<path d="M353.578 269.698C353.301 269.698 353.031 269.611 352.806 269.45C352.512 269.243 352.312 268.928 352.249 268.574C352.186 268.22 352.265 267.855 352.469 267.559C362.736 252.957 361.973 233.82 359.914 224.811C359.875 224.638 359.869 224.459 359.899 224.284C359.928 224.109 359.992 223.942 360.086 223.792C360.181 223.641 360.304 223.511 360.448 223.408C360.593 223.305 360.756 223.232 360.929 223.192C361.102 223.153 361.281 223.148 361.456 223.177C361.631 223.207 361.798 223.27 361.949 223.365C362.099 223.459 362.229 223.582 362.332 223.726C362.435 223.871 362.508 224.034 362.548 224.207C364.716 233.652 365.518 253.729 354.687 269.114C354.562 269.292 354.396 269.439 354.204 269.54C354.011 269.642 353.796 269.696 353.578 269.698Z" fill="#E0E0E0"/>
<path d="M342.144 287.044C341.922 287.043 341.704 286.985 341.51 286.876C341.353 286.793 341.214 286.679 341.101 286.542C340.988 286.405 340.903 286.246 340.851 286.076C340.8 285.906 340.782 285.727 340.8 285.55C340.818 285.373 340.871 285.201 340.956 285.045C349.5 269.205 348.935 249.088 345.906 240.495C345.812 240.165 345.847 239.811 346.004 239.506C346.16 239.201 346.427 238.966 346.749 238.849C347.072 238.733 347.427 238.743 347.742 238.877C348.058 239.011 348.311 239.261 348.45 239.574C351.688 248.613 352.311 269.71 343.381 286.312C343.265 286.538 343.087 286.726 342.868 286.856C342.649 286.985 342.398 287.051 342.144 287.044Z" fill="#E0E0E0"/>
<path d="M413.968 189.935C413.787 189.938 413.608 189.901 413.443 189.826C413.279 189.758 413.13 189.658 413.004 189.532C412.879 189.405 412.78 189.256 412.712 189.091C412.645 188.926 412.611 188.75 412.613 188.572C412.614 188.394 412.651 188.218 412.721 188.054C419.958 170.818 432.669 166.274 438.986 168.581C439.166 168.631 439.334 168.719 439.48 168.837C439.625 168.956 439.744 169.104 439.829 169.271C439.914 169.438 439.964 169.621 439.975 169.808C439.985 169.995 439.957 170.183 439.892 170.359C439.827 170.535 439.726 170.695 439.595 170.83C439.465 170.965 439.308 171.071 439.134 171.142C438.961 171.213 438.774 171.248 438.587 171.243C438.399 171.238 438.215 171.195 438.045 171.115C432.501 169.066 421.482 174.174 415.216 189.103C415.114 189.35 414.94 189.561 414.718 189.709C414.496 189.857 414.235 189.936 413.968 189.935Z" fill="#E0E0E0"/>
<path d="M247.5 512.198C383.353 512.198 493.484 505.769 493.484 497.837C493.484 489.905 383.353 483.476 247.5 483.476C111.646 483.476 1.51562 489.905 1.51562 497.837C1.51562 505.769 111.646 512.198 247.5 512.198Z" fill="#F5F5F5"/>
<path d="M347.357 64.8232H147.654C136.927 64.8232 128.231 73.5194 128.231 84.2467V475.659C128.231 486.387 136.927 495.083 147.654 495.083H347.357C358.084 495.083 366.781 486.387 366.781 475.659V84.2467C366.781 73.5194 358.084 64.8232 347.357 64.8232Z" fill="#5EB1FF"/>
<path d="M360.336 97.2002H134.663C133.22 97.2002 132.05 98.3703 132.05 99.8137V460.562C132.05 462.006 133.22 463.176 134.663 463.176H360.336C361.779 463.176 362.949 462.006 362.949 460.562V99.8137C362.949 98.3703 361.779 97.2002 360.336 97.2002Z" fill="white"/>
<path d="M362.949 176.137H168.017L132.05 99.8137C132.05 99.4705 132.117 99.1306 132.249 98.8135C132.38 98.4965 132.573 98.2084 132.815 97.9657C133.058 97.723 133.346 97.5305 133.663 97.3991C133.98 97.2678 134.32 97.2002 134.663 97.2002H360.336C361.029 97.2002 361.694 97.4755 362.184 97.9657C362.674 98.4558 362.949 99.1205 362.949 99.8137V176.137Z" fill="#F0F0F0"/>
<path d="M132.05 99.8135V358.396H168.017V176.137L132.05 99.8135Z" fill="#EBEBEB"/>
<path d="M132.05 369.612V460.551C132.05 461.245 132.325 461.911 132.815 462.403C133.304 462.895 133.969 463.173 134.663 463.177H360.336C361.03 463.173 361.695 462.895 362.185 462.403C362.674 461.911 362.949 461.245 362.949 460.551V221.874L132.05 369.612Z" fill="#FAFAFA"/>
<path d="M269.741 316.533C277.055 285.546 257.863 254.497 226.876 247.183C195.889 239.87 164.84 259.061 157.527 290.048C150.213 321.035 169.404 352.084 200.391 359.398C231.378 366.711 262.427 347.52 269.741 316.533Z" fill="#EBEBEB"/>
<path d="M277.783 78.5879H217.229C216.024 78.5879 215.047 79.5649 215.047 80.77C215.047 81.9752 216.024 82.9521 217.229 82.9521H277.783C278.988 82.9521 279.965 81.9752 279.965 80.77C279.965 79.5649 278.988 78.5879 277.783 78.5879Z" fill="white"/>
<path d="M264.487 487.245H230.512C228.483 487.245 226.537 486.439 225.103 485.004C223.668 483.569 222.862 481.623 222.862 479.594C222.862 477.566 223.668 475.62 225.103 474.185C226.537 472.75 228.483 471.944 230.512 471.944H264.487C266.516 471.944 268.462 472.75 269.897 474.185C271.332 475.62 272.138 477.566 272.138 479.594C272.138 481.623 271.332 483.569 269.897 485.004C268.462 486.439 266.516 487.245 264.487 487.245ZM230.512 473.213C228.82 473.213 227.197 473.885 226 475.082C224.803 476.279 224.131 477.902 224.131 479.594C224.131 481.287 224.803 482.91 226 484.107C227.197 485.304 228.82 485.976 230.512 485.976H264.487C266.18 485.976 267.803 485.304 269 484.107C270.197 482.91 270.869 481.287 270.869 479.594C270.869 477.902 270.197 476.279 269 475.082C267.803 473.885 266.18 473.213 264.487 473.213H230.512Z" fill="white"/>
<path d="M347.737 106.994H311.225C309.943 106.994 308.903 108.034 308.903 109.316V123.284C308.903 124.566 309.943 125.606 311.225 125.606H347.737C349.02 125.606 350.059 124.566 350.059 123.284V109.316C350.059 108.034 349.02 106.994 347.737 106.994Z" fill="#263238"/>
<path d="M322.706 113.173C322.496 112.979 322.25 112.828 321.983 112.729C321.717 112.63 321.435 112.586 321.154 112.598C320.873 112.61 320.598 112.678 320.345 112.8C320.092 112.921 319.866 113.092 319.68 113.304C319.252 112.912 318.692 112.705 318.123 112.73C317.554 112.755 317.022 113.01 316.645 113.438C316.269 113.866 316.077 114.433 316.113 115.013C316.149 115.593 316.409 116.14 316.837 116.533L320.056 119.496L322.901 116.275C323.089 116.063 323.233 115.814 323.325 115.543C323.416 115.272 323.454 114.984 323.436 114.696C323.418 114.408 323.344 114.125 323.219 113.863C323.094 113.602 322.92 113.368 322.706 113.173Z" fill="white"/>
<path d="M329.636 118.596H328.79V115.332L327.779 115.646V114.957L329.545 114.324H329.636V118.596ZM331.104 118.18C331.104 118.045 331.149 117.936 331.239 117.852C331.331 117.768 331.445 117.726 331.582 117.726C331.72 117.726 331.834 117.768 331.924 117.852C332.016 117.936 332.062 118.045 332.062 118.18C332.062 118.312 332.017 118.421 331.927 118.505C331.837 118.587 331.722 118.628 331.582 118.628C331.443 118.628 331.329 118.587 331.239 118.505C331.149 118.421 331.104 118.312 331.104 118.18ZM335.642 116.832C335.642 117.422 335.52 117.873 335.276 118.186C335.032 118.498 334.674 118.654 334.204 118.654C333.739 118.654 333.383 118.501 333.137 118.194C332.891 117.888 332.765 117.448 332.759 116.876V116.091C332.759 115.495 332.882 115.043 333.128 114.734C333.376 114.426 333.733 114.271 334.198 114.271C334.663 114.271 335.018 114.425 335.264 114.731C335.51 115.036 335.636 115.475 335.642 116.047V116.832ZM334.795 115.971C334.795 115.617 334.747 115.36 334.649 115.2C334.553 115.038 334.403 114.957 334.198 114.957C333.999 114.957 333.851 115.034 333.755 115.188C333.662 115.341 333.612 115.58 333.606 115.906V116.943C333.606 117.291 333.653 117.55 333.747 117.72C333.842 117.888 333.995 117.972 334.204 117.972C334.411 117.972 334.56 117.891 334.652 117.729C334.744 117.566 334.792 117.318 334.795 116.984V115.971ZM337.078 116.088H337.529C337.744 116.088 337.903 116.034 338.006 115.927C338.11 115.819 338.162 115.677 338.162 115.499C338.162 115.327 338.11 115.193 338.006 115.098C337.905 115.002 337.764 114.954 337.584 114.954C337.422 114.954 337.287 114.999 337.177 115.089C337.068 115.177 337.013 115.292 337.013 115.435H336.167C336.167 115.212 336.226 115.013 336.345 114.837C336.466 114.659 336.634 114.521 336.849 114.421C337.066 114.321 337.304 114.271 337.564 114.271C338.015 114.271 338.369 114.38 338.625 114.597C338.88 114.812 339.008 115.108 339.008 115.487C339.008 115.683 338.949 115.862 338.83 116.026C338.71 116.19 338.554 116.316 338.361 116.404C338.601 116.49 338.78 116.619 338.897 116.791C339.016 116.963 339.076 117.166 339.076 117.4C339.076 117.779 338.937 118.083 338.66 118.312C338.384 118.54 338.019 118.654 337.564 118.654C337.138 118.654 336.79 118.542 336.518 118.317C336.249 118.093 336.114 117.796 336.114 117.427H336.96C336.96 117.587 337.02 117.718 337.139 117.819C337.26 117.921 337.409 117.972 337.584 117.972C337.786 117.972 337.943 117.919 338.056 117.813C338.171 117.706 338.229 117.564 338.229 117.389C338.229 116.963 337.995 116.75 337.526 116.75H337.078V116.088ZM341.718 118.596H340.872V115.332L339.861 115.646V114.957L341.627 114.324H341.718V118.596Z" fill="white"/>
<path d="M161.128 125.273C166.087 120.313 166.087 112.273 161.128 107.313C156.168 102.354 148.127 102.354 143.168 107.313C138.208 112.273 138.208 120.313 143.168 125.273C148.127 130.232 156.168 130.232 161.128 125.273Z" fill="#5EB1FF"/>
<path d="M162.637 116.294C162.631 118.623 161.85 120.884 160.418 122.721C158.986 124.558 156.983 125.865 154.725 126.438C152.467 127.011 150.083 126.816 147.949 125.885C145.814 124.953 144.05 123.337 142.934 121.293C142.097 119.76 141.661 118.041 141.666 116.294C141.76 113.576 142.906 111.001 144.862 109.112C146.818 107.223 149.432 106.167 152.151 106.167C154.871 106.167 157.484 107.223 159.44 109.112C161.396 111.001 162.542 113.576 162.637 116.294Z" fill="white"/>
<path opacity="0.4" d="M159.555 120.531C158.831 121.864 157.761 122.976 156.459 123.751C155.156 124.526 153.668 124.935 152.152 124.935C150.636 124.935 149.148 124.526 147.845 123.751C146.542 122.976 145.473 121.864 144.749 120.531C146.94 119.067 149.516 118.285 152.152 118.285C154.787 118.285 157.363 119.067 159.555 120.531Z" fill="#5EB1FF"/>
<path opacity="0.4" d="M155.901 113.628C155.901 114.381 155.677 115.117 155.259 115.743C154.841 116.369 154.247 116.857 153.551 117.145C152.856 117.433 152.09 117.508 151.352 117.361C150.614 117.214 149.936 116.852 149.403 116.32C148.871 115.787 148.509 115.109 148.362 114.371C148.215 113.633 148.29 112.867 148.578 112.172C148.866 111.476 149.354 110.882 149.98 110.464C150.606 110.045 151.342 109.822 152.095 109.822C153.104 109.822 154.072 110.223 154.786 110.937C155.5 111.651 155.901 112.619 155.901 113.628Z" fill="#5EB1FF"/>
<path d="M215.263 333.224L213.931 334.708L212.738 335.977L210.353 338.514C208.767 340.176 207.143 341.787 205.507 343.373C202.259 346.57 198.909 349.628 195.484 352.622C188.586 358.648 181.338 364.261 173.777 369.432C169.946 372.02 166.013 374.506 161.978 376.891C157.906 379.264 153.732 381.471 149.38 383.514C140.466 387.842 131.048 391.043 121.342 393.042C120.074 393.296 118.805 393.549 117.536 393.727L115.608 394.006L114.644 394.146L114.162 394.222L113.198 394.336C111.041 394.572 108.862 394.495 106.727 394.107C104.805 393.767 102.937 393.174 101.17 392.344C98.556 391.125 96.1633 389.479 94.0913 387.472C91.4705 384.919 89.2506 381.985 87.5068 378.769C86.1556 376.353 84.9606 373.853 83.9291 371.284C82.1087 366.799 80.5789 362.201 79.3492 357.519C78.1693 353.04 77.1671 348.638 76.279 344.248C74.5917 335.469 73.3103 326.804 72.3969 318.114C71.4834 309.423 70.8364 300.885 70.6841 292.004C70.6506 289.729 71.4388 287.518 72.9041 285.778C74.3695 284.037 76.4135 282.883 78.661 282.529C80.9084 282.174 83.2085 282.642 85.1387 283.846C87.069 285.051 88.4999 286.911 89.1688 289.086V289.277C94.0024 305.198 98.6839 321.463 104.152 336.687C105.484 340.493 106.905 344.223 108.402 347.801C109.788 351.189 111.346 354.505 113.071 357.734C113.776 359.057 114.573 360.329 115.456 361.54C116.166 362.505 116.94 363.152 116.724 362.809C116.213 362.255 115.585 361.821 114.885 361.54C114.079 361.152 113.226 360.871 112.348 360.703C111.26 360.499 110.15 360.448 109.049 360.551H108.846C108.846 360.551 108.656 360.551 108.719 360.551H108.871L109.176 360.475L109.772 360.335L110.977 360.043C111.791 359.869 112.596 359.653 113.388 359.396C116.717 358.439 119.981 357.265 123.157 355.882C126.494 354.469 129.755 352.881 132.926 351.125C139.552 347.443 145.93 343.332 152.019 338.818C155.102 336.484 158.21 334.137 161.242 331.676C164.275 329.215 167.256 326.601 170.212 324.064C173.168 321.526 176.061 318.761 178.915 316.058C180.349 314.714 181.732 313.331 183.127 311.973L185.17 309.943L186.984 308.078L187.529 307.507C190.976 303.942 195.685 301.872 200.642 301.744C205.6 301.616 210.409 303.44 214.035 306.823C217.661 310.206 219.813 314.878 220.028 319.832C220.244 324.787 218.505 329.627 215.187 333.312L215.263 333.224Z" fill="#FFBE9D"/>
<path d="M206.192 295.926C195.852 296.725 180.628 301.914 167.104 318.762C168.474 328.48 179.258 353.651 189.623 372.465C218.054 346.952 230.69 315.413 206.192 295.926Z" fill="#263238"/>
<path d="M91.0335 296.495L89.841 270.525L63.8711 280.218C63.8711 280.218 63.3129 288.604 73.0564 303.308L91.0335 296.495Z" fill="#FFBE9D"/>
<path d="M83.9794 304.831C74.0964 304.831 69.7321 301.685 69.5037 301.52C69.3691 301.419 69.2802 301.269 69.2564 301.102C69.2326 300.936 69.2759 300.767 69.3769 300.632C69.4779 300.498 69.627 300.409 69.7927 300.383C69.9584 300.357 70.1277 300.396 70.2649 300.492C70.2649 300.492 77.4203 305.567 93.9766 302.611C94.0583 302.595 94.1425 302.595 94.2242 302.612C94.3059 302.628 94.3834 302.662 94.4521 302.709C94.5207 302.756 94.5792 302.817 94.6239 302.887C94.6686 302.958 94.6987 303.036 94.7124 303.119C94.742 303.283 94.7053 303.453 94.6103 303.591C94.5152 303.729 94.3695 303.824 94.2049 303.854C90.8327 304.487 87.4103 304.814 83.9794 304.831Z" fill="#5EB1FF"/>
<path d="M70.1257 302.053C68.857 302.053 69.7958 305.301 70.4936 306.392C70.5519 306.488 70.6338 306.567 70.7315 306.623C70.8292 306.678 70.9394 306.708 71.0518 306.709C73.6779 306.798 89.9044 307.052 93.5962 301.419C93.5058 300.357 93.2489 299.317 92.835 298.336C92.7995 298.241 92.7434 298.155 92.6708 298.084C92.5981 298.014 92.5107 297.96 92.4149 297.927C92.319 297.895 92.2171 297.884 92.1164 297.895C92.0158 297.906 91.9189 297.94 91.8327 297.993C89.7014 299.325 82.9139 302.319 70.1257 302.053Z" fill="#263238"/>
<path d="M71.4456 310.704C71.3623 310.718 71.2771 310.715 71.1951 310.695C71.113 310.675 71.0356 310.64 70.9673 310.59C70.899 310.541 70.841 310.479 70.7969 310.407C70.7527 310.335 70.7231 310.255 70.7097 310.172C70.6964 310.088 70.6996 310.003 70.7192 309.921C70.7387 309.839 70.7743 309.762 70.8237 309.693C70.8732 309.625 70.9357 309.567 71.0075 309.523C71.0794 309.479 71.1593 309.449 71.2426 309.436C87.2914 304.133 91.034 296.343 91.072 296.267C91.1438 296.113 91.2731 295.994 91.4321 295.934C91.5911 295.875 91.7671 295.881 91.922 295.95C91.9978 295.984 92.0659 296.033 92.1224 296.094C92.1789 296.155 92.2226 296.226 92.251 296.304C92.2794 296.382 92.2919 296.465 92.2876 296.548C92.2834 296.631 92.2627 296.712 92.2265 296.787C92.0743 297.13 88.2048 305.173 71.6485 310.641L71.4456 310.704Z" fill="#5EB1FF"/>
<path d="M73.1069 254.465L64.962 258.728C63.0415 259.736 61.5389 261.39 60.7194 263.398C59.9 265.406 59.8164 267.639 60.4835 269.702L63.8709 280.219L89.8408 270.527L86.0347 259.603C85.6027 258.356 84.9068 257.216 83.9944 256.262C83.082 255.307 81.9746 254.561 80.7477 254.073C79.5208 253.586 78.2031 253.368 76.8845 253.436C75.566 253.504 74.2775 253.855 73.1069 254.465Z" fill="#FFBE9D"/>
<path d="M307.559 463.176H177.951C175.941 418.633 176.28 374.015 178.966 329.508C179.488 321.098 182.837 313.111 188.471 306.844C194.104 300.578 201.69 296.399 209.998 294.988C233.862 290.966 259.286 290.826 285.763 293.326C289.431 293.68 292.991 294.763 296.235 296.512C299.479 298.26 302.341 300.639 304.653 303.508C306.966 306.377 308.682 309.678 309.702 313.22C310.721 316.761 311.024 320.47 310.591 324.129C304.743 372.846 305.529 424.989 307.559 463.176Z" fill="#263238"/>
<path d="M215.237 294.175C214.791 295.602 214.691 297.116 214.945 298.59C215.896 304.565 221.821 311.086 232.567 317.975L233.899 318.825L235.447 318.483C270.171 310.731 279.039 295.646 279.394 295.037L280.663 292.881C257.915 291.016 236.005 291.181 215.237 294.175Z" fill="white"/>
<path d="M269.068 229.371C265.883 247.716 263.016 281.247 276.058 293.16C276.058 293.16 268.065 307.306 234.598 314.728C213.614 301.28 219.297 294.34 219.297 294.34C239.596 289.037 238.708 273.94 234.864 259.832L269.068 229.371Z" fill="#FFBE9D"/>
<path opacity="0.2" d="M255.112 241.815L234.813 259.843C235.763 263.128 236.421 266.491 236.779 269.891C244.531 268.623 255.035 259.831 255.695 251.66C256.093 248.37 255.895 245.035 255.112 241.815Z" fill="black"/>
<path d="M217.813 170.3C231.197 163.957 233.1 173.383 232.275 180.526C231.451 187.668 233.544 194.202 235.092 203.362C236.64 212.522 226.579 217.546 217.432 216.823C208.285 216.099 202.5 187.44 217.813 170.3Z" fill="#455A64"/>
<path d="M280.206 206.777C273.482 230.628 270.754 244.926 255.847 254.695C233.443 269.373 206.001 251.827 205.468 226.454C204.986 203.618 216.074 168.437 241.816 163.959C267.189 159.531 286.93 182.9 280.206 206.777Z" fill="#FFBE9D"/>
<path d="M274.358 224.765C259.552 225.818 261.239 216.303 264.627 209.96C268.014 203.616 268.433 196.753 270.336 187.72C272.239 178.687 283.441 177.57 291.688 181.63C299.934 185.69 294.859 214.4 274.358 224.765Z" fill="#455A64"/>
<path d="M276.463 184.396C263.167 195.636 261.734 180.78 239.747 182.759C242.501 177.684 249.123 175.337 249.123 175.337C249.123 175.337 217.495 178.382 208.348 166.685C212.255 167.535 220.159 167.598 222.582 166.228C216.036 164.959 208.145 156.738 206.952 149.735C211.786 153.871 220.21 151.575 228.875 150.915C224.676 148.555 224.511 144.572 225.792 142.567C230.067 147.439 244.974 144.052 253.792 147.908C252.12 145.037 249.778 142.612 246.966 140.842C246.966 140.842 275.803 146.081 282.147 155.774C281.403 152.673 280.327 149.662 278.937 146.792C278.937 146.792 292.068 153.008 294.161 163.221C293.679 155.609 299.984 155.977 299.984 155.977C299.984 155.977 296.178 160.202 297.206 168.169C302.281 169.197 306.962 173.84 305.934 178.699C299.896 176.035 295.785 176.695 295.785 176.695C295.785 176.695 307.432 184.446 301.228 194.646C300.454 188.582 296.331 187.618 296.331 187.618C296.331 187.618 298.437 194.697 293.996 200.305C289.898 192.946 276.463 184.396 276.463 184.396Z" fill="#263238"/>
<path d="M308.675 305.288L311.213 307.622L313.547 309.855C315.095 311.34 316.579 312.862 318.076 314.384C321.07 317.417 323.963 320.525 326.83 323.671C332.564 330.015 338.02 336.574 343.323 343.45C348.71 350.485 353.647 357.854 358.103 365.512C360.427 369.568 362.544 373.739 364.446 378.009C366.549 382.647 368.227 387.466 369.458 392.408C370.144 395.178 370.636 397.993 370.929 400.832C371.082 402.317 371.17 403.864 371.183 405.463C371.222 407.506 371.074 409.549 370.739 411.565C370.006 415.793 368.422 419.829 366.083 423.427C364.139 426.372 361.79 429.029 359.105 431.319C354.853 434.877 350.116 437.812 345.036 440.034C340.685 441.924 336.209 443.51 331.638 444.779C327.274 446.048 322.923 446.923 318.622 447.723C314.321 448.522 310.045 449.093 305.783 449.549C301.52 450.006 297.27 450.298 293.032 450.501C290.901 450.602 288.782 450.64 286.689 450.666C284.596 450.691 282.49 450.666 280.181 450.59C277.914 450.553 275.736 449.7 274.047 448.188C272.358 446.676 271.271 444.606 270.984 442.357C270.697 440.108 271.231 437.831 272.486 435.943C273.742 434.056 275.636 432.684 277.821 432.08L278.316 431.94C293.21 427.754 308.764 423.224 321.819 417.198C324.92 415.807 327.917 414.196 330.788 412.377C333.044 411.075 335.082 409.427 336.827 407.493C337.411 406.795 337.665 406.224 337.614 406.059C337.563 405.894 337.347 406.135 337.17 406.592C337.17 406.706 337.106 406.808 337.068 406.909C337.03 407.011 337.068 406.795 336.992 406.617C336.992 406.186 336.865 405.717 336.751 405.184C336.494 404.004 336.172 402.839 335.787 401.695C334.754 398.843 333.525 396.067 332.108 393.385C330.598 390.467 328.797 387.486 326.855 384.504C322.77 378.358 318.365 372.43 313.661 366.743C308.916 360.856 303.804 355.109 298.615 349.4C296.014 346.558 293.35 343.754 290.698 340.951L286.689 336.802L284.697 334.759L282.807 332.856L282.414 332.463C278.915 328.949 276.936 324.202 276.902 319.244C276.869 314.286 278.784 309.512 282.235 305.952C285.686 302.391 290.397 300.328 295.354 300.206C300.311 300.084 305.117 301.914 308.739 305.301L308.675 305.288Z" fill="#FFBE9D"/>
<path d="M283.365 293.109C293.705 293.909 308.929 299.085 322.453 315.946C321.083 325.676 310.299 350.834 299.934 369.661C271.503 344.123 258.917 312.596 283.365 293.109Z" fill="#263238"/>
<path d="M284.976 432.029L261.734 418.606L262.279 450.323C262.279 450.323 281.132 455.994 287.488 448.598L284.976 432.029Z" fill="#FFBE9D"/>
<path d="M239.747 432.131L240.318 441.011C240.472 443.48 241.554 445.799 243.347 447.503C245.141 449.207 247.512 450.169 249.986 450.197L262.279 450.374L261.734 418.657L247.334 421.994C245.076 422.515 243.075 423.818 241.686 425.674C240.297 427.529 239.61 429.817 239.747 432.131Z" fill="#FFBE9D"/>
<path d="M287.539 228.571C284.584 234.077 279.565 238.183 273.583 239.99C265.654 242.299 261.594 235.232 263.713 227.696C265.629 220.921 272.061 211.546 280.054 212.472C288.046 213.398 291.104 221.847 287.539 228.571Z" fill="#FFBE9D"/>
<path d="M151.232 262.826C151.773 261.814 152.508 260.919 153.395 260.191C154.282 259.463 155.304 258.918 156.402 258.585C157.501 258.253 158.653 258.141 159.795 258.254C160.937 258.368 162.045 258.706 163.056 259.248C163.578 258.203 164.304 257.273 165.191 256.513C166.078 255.753 167.109 255.178 168.222 254.823C169.335 254.468 170.508 254.34 171.672 254.446C172.835 254.552 173.965 254.891 174.996 255.441C176.026 255.992 176.936 256.743 177.671 257.651C178.406 258.559 178.952 259.605 179.276 260.728C179.6 261.85 179.696 263.026 179.557 264.186C179.419 265.346 179.049 266.467 178.471 267.482L170.224 282.896L154.886 274.625C152.838 273.543 151.303 271.693 150.618 269.481C149.933 267.269 150.154 264.875 151.232 262.826Z" fill="#FC4F4F"/>
<path opacity="0.5" d="M324.026 215.011C323.282 214.811 322.506 214.76 321.742 214.861C320.979 214.961 320.243 215.211 319.576 215.597C318.909 215.982 318.324 216.495 317.856 217.106C317.387 217.717 317.044 218.415 316.845 219.159C315.367 218.833 313.819 219.091 312.526 219.878C311.233 220.665 310.294 221.921 309.904 223.384C309.515 224.847 309.705 226.404 310.436 227.73C311.166 229.056 312.381 230.049 313.826 230.501L325.155 233.521L328.187 222.229C328.392 221.482 328.447 220.702 328.348 219.933C328.25 219.164 328 218.423 327.613 217.752C327.226 217.08 326.709 216.492 326.094 216.022C325.478 215.551 324.775 215.208 324.026 215.011Z" fill="#FC4F4F"/>
<path opacity="0.2" d="M175.096 187.302C176.269 186.752 177.612 186.69 178.83 187.131C180.048 187.571 181.042 188.477 181.592 189.649C182.175 189.377 182.806 189.222 183.449 189.193C184.092 189.165 184.734 189.263 185.339 189.483C185.944 189.703 186.5 190.039 186.975 190.474C187.45 190.908 187.834 191.432 188.107 192.015C188.379 192.598 188.534 193.229 188.562 193.872C188.591 194.515 188.492 195.158 188.273 195.763C188.053 196.367 187.716 196.923 187.282 197.398C186.847 197.873 186.324 198.257 185.74 198.53L176.86 202.691L172.698 193.81C172.428 193.226 172.275 192.593 172.249 191.95C172.223 191.306 172.324 190.663 172.547 190.059C172.769 189.454 173.109 188.899 173.547 188.426C173.984 187.953 174.511 187.571 175.096 187.302Z" fill="#FC4F4F"/>
<path d="M321.971 159.479C321.781 159.063 321.511 158.688 321.176 158.377C320.84 158.065 320.447 157.823 320.018 157.664C319.589 157.505 319.133 157.432 318.675 157.45C318.218 157.467 317.769 157.575 317.353 157.767C316.966 156.925 316.261 156.272 315.393 155.951C314.524 155.63 313.564 155.667 312.723 156.054C311.881 156.441 311.228 157.146 310.907 158.014C310.586 158.883 310.623 159.843 311.01 160.685L313.915 167.028L320.259 164.123C320.677 163.931 321.053 163.659 321.366 163.322C321.679 162.985 321.922 162.589 322.081 162.157C322.24 161.726 322.312 161.267 322.293 160.807C322.275 160.348 322.165 159.896 321.971 159.479Z" fill="#FC4F4F"/>
<path d="M331.308 291.207C331.118 290.791 330.848 290.416 330.513 290.104C330.178 289.793 329.784 289.551 329.355 289.391C328.926 289.232 328.47 289.16 328.013 289.177C327.555 289.195 327.106 289.302 326.69 289.494C326.499 289.078 326.227 288.703 325.891 288.391C325.554 288.08 325.16 287.838 324.73 287.679C324.3 287.52 323.843 287.447 323.385 287.464C322.926 287.482 322.476 287.59 322.06 287.781C321.643 287.973 321.269 288.245 320.957 288.581C320.646 288.918 320.403 289.312 320.244 289.742C320.085 290.172 320.013 290.629 320.03 291.087C320.048 291.545 320.155 291.996 320.347 292.412L323.252 298.755L329.596 295.85C330.014 295.659 330.39 295.387 330.703 295.049C331.016 294.712 331.259 294.316 331.418 293.885C331.577 293.453 331.649 292.994 331.631 292.535C331.612 292.075 331.502 291.624 331.308 291.207Z" fill="#FC4F4F"/>
</svg>
