<svg width="1116" height="60" viewBox="0 0 1116 60" fill="none" xmlns="http://www.w3.org/2000/svg">
<path fill-rule="evenodd" clip-rule="evenodd" d="M17.045 54.2538C23.6948 54.2538 29.0855 48.8319 29.0855 42.1437C29.0855 35.4554 23.6948 30.0335 17.045 30.0335C10.3952 30.0335 5.00452 35.4554 5.00452 42.1437C5.00452 48.8319 10.3952 54.2538 17.045 54.2538ZM17.045 59.2873C26.4587 59.2873 34.0901 51.6118 34.0901 42.1437C34.0901 32.6755 26.4587 25 17.045 25C7.63132 25 0 32.6755 0 42.1437C0 51.6118 7.63132 59.2873 17.045 59.2873Z" fill="#F3DB02"/>
<path d="M1103.1 2.18863C1101.31 -0.439485 1097.56 -0.755173 1095.36 1.53752L1090.51 6.58611C1090.06 7.05289 1089.29 6.97764 1088.95 6.43263L1086.45 2.53785C1084.66 -0.267011 1080.67 -0.566158 1078.48 1.93918L1074.5 6.48978C1073.77 7.32078 1073.85 8.58433 1074.68 9.31202C1075.51 10.0397 1076.78 9.95595 1077.5 9.12496L1081.49 4.57436C1081.93 4.07329 1082.73 4.13312 1083.08 4.69409L1085.58 8.58888C1087.32 11.3139 1091.15 11.6902 1093.4 9.35623L1098.24 4.30765C1098.68 3.84911 1099.43 3.91225 1099.79 4.43787L1102.7 8.7153C1104.51 11.3794 1108.33 11.66 1110.51 9.28919L1114.62 4.82785C1115.37 4.01499 1115.31 2.74976 1114.5 2.00187C1113.69 1.25398 1112.42 1.30664 1111.67 2.1195L1107.57 6.58084C1107.13 7.055 1106.37 6.99887 1106.01 6.46606L1103.1 2.18863Z" fill="#5EB1FF"/>
</svg>
