<svg width="411" height="434" viewBox="0 0 411 434" fill="none" xmlns="http://www.w3.org/2000/svg">
<path d="M29.0978 364.189C27.3107 361.561 23.5572 361.245 21.3562 363.538L16.5096 368.586C16.0615 369.053 15.2947 368.978 14.9459 368.433L12.4532 364.538C10.6581 361.733 6.67413 361.434 4.48026 363.939L0.495382 368.49C-0.232303 369.321 -0.148555 370.584 0.682437 371.312C1.51343 372.04 2.77699 371.956 3.50467 371.125L7.48955 366.574C7.92832 366.073 8.72511 366.133 9.08414 366.694L11.5768 370.589C13.3209 373.314 17.1545 373.69 19.3951 371.356L24.2418 366.308C24.682 365.849 25.4326 365.912 25.7901 366.438L28.6987 370.715C30.5103 373.379 34.3315 373.66 36.5129 371.289L40.6176 366.828C41.3655 366.015 41.3129 364.75 40.5 364.002C39.6872 363.254 38.4219 363.307 37.674 364.119L33.5693 368.581C33.133 369.055 32.3687 368.999 32.0064 368.466L29.0978 364.189Z" fill="#5EB1FF"/>
<path d="M40.7211 208.06C40.7211 208.06 29.9621 211.768 40.9278 234.738C51.8936 257.708 59.6037 269.162 59.6037 269.162C59.6037 269.162 61.5157 274.471 57.0612 275.173C52.6067 275.875 42.8812 274.057 40.7625 279.418C38.5611 284.985 42.5091 290.397 50.6637 295.272C58.8182 300.146 76.3159 311.487 77.8868 312.52C79.4578 313.552 80.9874 316.021 77.9902 316.981C74.9929 317.942 53.0201 319.646 54.4464 330.036C55.8727 340.426 80.8427 350.259 83.6022 351.405C86.3618 352.552 86.9405 353.708 86.7028 355.206C86.4651 356.703 78.9927 356.569 72.7502 357.272C66.5077 357.974 59.397 359.957 60.7303 365.885C62.0635 371.814 76.6569 384.579 112.82 389.113L129.718 390.146L139.227 376.079C157.913 344.805 156.797 325.471 152.973 320.751C149.149 316.031 143.196 320.462 138.772 324.882C134.349 329.303 129.863 335.293 128.519 334.581C127.176 333.868 126.638 332.649 127.414 329.819C128.189 326.989 135.785 301.272 128.447 293.743C121.109 286.214 106.247 302.522 103.642 304.257C101.038 305.992 100.035 303.224 100.19 301.427C100.345 299.63 102.164 278.798 103.291 269.41C104.418 260.021 102.619 253.546 96.8727 251.852C91.3434 250.22 86.7958 258.989 83.4989 262.066C80.2019 265.144 77.1944 260.373 77.1944 260.373C77.1944 260.373 72.9156 247.256 61.5364 224.482C50.1572 201.709 40.5041 208.153 40.5041 208.153" fill="#E6E6E6"/>
<path d="M130.4 394.154C122.132 377.391 107.88 347.357 95.5289 321.64C83.1782 295.923 71.9748 272.653 63.7686 255.849L54.0327 235.968L51.3869 230.556C51.0975 229.946 50.8701 229.523 50.7151 229.141C50.5601 228.759 50.498 228.655 50.498 228.655C50.498 228.655 50.5911 228.81 50.7564 229.12L51.4799 230.504L54.2187 235.875C56.5855 240.533 59.9652 247.308 64.0993 255.684C72.3675 272.447 83.6536 295.695 96.0043 321.413C108.355 347.13 122.535 377.185 130.741 393.989" fill="#F5F5F5"/>
<path d="M54.2603 282.505C54.6601 282.588 55.0512 282.709 55.4281 282.866C56.1723 283.135 57.2368 283.538 58.5287 284.054C61.1436 285.087 64.7299 286.626 68.6263 288.382L78.6309 292.905L81.6591 294.258C82.0481 294.396 82.4193 294.58 82.765 294.806C82.3605 294.733 81.9653 294.615 81.5868 294.455C80.8426 294.186 79.7884 293.783 78.4862 293.246C75.892 292.213 72.285 290.612 68.4196 288.857L58.3944 284.395L55.3558 283.063C54.9661 282.929 54.5973 282.741 54.2603 282.505Z" fill="#F5F5F5"/>
<path d="M83.9538 293.754C83.8195 293.702 86.6513 286.204 90.2687 277.002C93.886 267.799 96.9349 260.404 97.0383 260.404C97.1416 260.404 94.3408 267.954 90.7234 277.157C87.1061 286.359 84.0882 293.806 83.9538 293.754Z" fill="#F5F5F5"/>
<path d="M101.173 334.105C101.374 333.737 101.613 333.391 101.886 333.072L103.953 330.387C105.71 328.115 108.087 324.965 110.64 321.401C113.193 317.838 115.353 314.533 116.913 312.106L118.764 309.255C118.964 308.882 119.21 308.535 119.497 308.223C119.349 308.612 119.162 308.986 118.939 309.338C118.546 310.04 117.968 311.053 117.224 312.282C115.746 314.74 113.606 318.086 111.022 321.66C108.439 325.233 106.03 328.352 104.211 330.562C103.292 331.668 102.537 332.546 102 333.145C101.76 333.494 101.483 333.816 101.173 334.105Z" fill="#F5F5F5"/>
<path d="M72.0371 329.839C72.422 329.8 72.8098 329.8 73.1947 329.839L76.2953 330.169C78.9307 330.479 82.5688 330.933 86.6305 331.471C90.6923 332.008 94.2683 332.503 96.8832 332.916L99.9837 333.412C100.368 333.45 100.746 333.534 101.11 333.66C100.727 333.695 100.341 333.678 99.9631 333.608L96.8625 333.278C94.2373 332.978 90.5993 332.524 86.5892 331.987C82.5791 331.45 78.9514 330.954 76.3263 330.541L73.2257 330.045C72.8225 330.026 72.4233 329.956 72.0371 329.839Z" fill="#F5F5F5"/>
<path d="M82.6826 367.393C83.1764 367.367 83.6717 367.391 84.1606 367.465L88.1603 367.879C91.54 368.25 96.2012 368.798 101.348 369.438C106.495 370.079 111.156 370.678 114.515 371.142L118.505 371.721C118.995 371.763 119.48 371.856 119.952 372C119.458 372.018 118.963 371.99 118.474 371.917L114.474 371.504C111.094 371.142 106.433 370.595 101.286 369.955C96.1392 369.314 91.4883 368.715 88.119 368.25L84.1399 367.672C83.6471 367.621 83.1595 367.527 82.6826 367.393Z" fill="#F5F5F5"/>
<path d="M119.094 371.638C119.341 371.171 119.632 370.729 119.962 370.316C120.613 369.418 121.461 368.25 122.473 366.815C124.54 363.861 127.496 359.761 130.587 355.154C133.677 350.548 136.364 346.303 138.286 343.215L140.56 339.559C140.824 339.101 141.122 338.662 141.449 338.247C141.258 338.741 141.019 339.215 140.736 339.662C140.25 340.561 139.527 341.841 138.596 343.411C136.757 346.51 134.111 350.827 131.021 355.443C127.93 360.06 124.975 364.129 122.752 367.042C121.657 368.488 120.747 369.655 120.107 370.44C119.804 370.868 119.466 371.269 119.094 371.638Z" fill="#F5F5F5"/>
<path d="M313.852 338.899C287.631 325.958 277.585 296.058 274.319 268.316C273.771 263.679 272.531 258.897 274.102 254.528C275.673 250.159 280.376 246.606 284.799 247.918C288.478 249.013 290.577 252.762 292.985 255.767C296.221 259.766 300.52 262.773 305.387 264.443C308.55 265.476 312.332 265.899 314.988 263.865C318.626 261.066 318.265 255.499 317.531 250.923L313.459 225.289C312.735 220.714 312.012 215.994 312.777 211.47C313.542 206.946 316.074 202.381 320.249 200.501C324.425 198.622 330.202 200.305 331.814 204.633C332.476 206.44 332.393 208.433 332.848 210.313C333.303 212.193 334.47 214.166 336.362 214.444C338.253 214.723 339.917 213.122 341.075 211.573C345.105 206.233 347.41 199.778 349.508 193.396C351.606 187.013 353.642 180.496 357.125 174.805C360.608 169.114 365.983 164.208 372.494 162.835C379.005 161.461 386.622 164.456 389.268 170.643C391.914 176.829 389.144 183.976 385.827 189.832C380.923 198.52 374.785 206.452 367.605 213.381C366.314 214.62 364.918 215.973 364.629 217.749C364.091 220.961 367.45 223.554 370.623 224.101C374.22 224.721 377.858 223.802 381.517 223.678C385.175 223.554 389.268 224.535 391.129 227.706C393.723 232.106 390.55 237.61 387.18 241.422C380.428 249.064 372.408 255.486 363.471 260.405C360.278 262.15 356.898 263.772 354.542 266.602C352.185 269.432 351.162 273.749 353.301 276.723C355.441 279.698 359.813 280.101 363.244 278.913C366.675 277.725 369.548 275.319 372.721 273.542C378.664 270.206 386.87 269.411 391.738 274.224C394.932 277.405 395.924 282.352 395.232 286.814C394.539 291.276 392.379 295.376 390.002 299.208C381.734 312.634 370.231 324.088 356.381 331.38C342.532 338.672 329.189 341.997 313.852 338.899Z" fill="#F0F0F0"/>
<path d="M318.348 320.503C320.646 304.776 323.845 289.192 327.928 273.83C328.996 269.74 330.03 265.706 331.029 261.726C332.063 257.749 333.096 253.814 334.347 250.024C336.751 242.747 339.56 235.609 342.76 228.645C345.767 221.973 348.857 215.755 351.793 209.961C354.728 204.167 357.591 198.827 360.402 194.066C364.805 186.53 369.803 179.357 375.347 172.614C377.3 170.229 378.871 168.421 379.956 167.213C380.483 166.645 380.886 166.18 381.197 165.849C381.331 165.688 381.48 165.539 381.641 165.405C381.53 165.586 381.402 165.755 381.259 165.911L380.08 167.326C379.047 168.576 377.517 170.425 375.605 172.821C370.196 179.634 365.301 186.839 360.96 194.376C358.201 199.147 355.379 204.497 352.464 210.291C349.55 216.086 346.491 222.313 343.514 228.975C340.355 235.922 337.575 243.035 335.184 250.282C333.944 254.052 332.931 257.966 331.887 261.943C330.843 265.919 329.82 269.968 328.786 274.047C324.711 289.386 321.495 304.941 319.154 320.638" fill="#E0E0E0"/>
<path d="M334.626 249.932C334.306 249.332 334.056 248.698 333.882 248.042C333.448 246.812 332.848 245.015 332.208 242.785C330.864 238.312 329.221 232.085 327.433 225.227C325.645 218.369 323.919 212.161 322.513 207.731C321.81 205.51 321.232 203.723 320.808 202.484C320.559 201.844 320.383 201.179 320.281 200.501C320.638 201.076 320.929 201.689 321.149 202.329C321.666 203.527 322.337 205.293 323.113 207.493C324.673 211.893 326.503 218.08 328.28 224.968C330.058 231.857 331.598 237.889 332.807 242.588C333.365 244.706 333.841 246.482 334.213 247.918C334.421 248.573 334.559 249.248 334.626 249.932Z" fill="#E0E0E0"/>
<path d="M391.914 229.956C391.163 230.233 390.388 230.444 389.599 230.586C388.111 230.958 385.951 231.474 383.295 232.197C377.983 233.602 370.717 235.791 362.8 238.57C354.883 241.348 347.834 244.178 342.791 246.378C340.269 247.411 338.243 248.382 336.838 249.012C336.13 249.384 335.39 249.692 334.626 249.931C335.275 249.46 335.967 249.052 336.693 248.712C338.057 247.989 340.042 246.967 342.553 245.82C347.545 243.476 354.583 240.553 362.521 237.754C369.301 235.339 376.2 233.27 383.191 231.557C385.868 230.917 388.059 230.524 389.579 230.225C390.347 230.059 391.129 229.969 391.914 229.956Z" fill="#E0E0E0"/>
<path d="M318.906 319.274C318.713 319.073 318.543 318.851 318.399 318.613C318.037 318.076 317.593 317.426 317.066 316.63C315.908 314.916 314.317 312.375 312.384 309.215C308.508 302.894 303.434 294.001 297.966 284.107C292.499 274.213 287.507 265.289 283.776 258.896L279.332 251.346L278.133 249.28C277.975 249.047 277.85 248.793 277.761 248.526C277.962 248.722 278.136 248.945 278.278 249.187L279.611 251.16C280.758 252.885 282.36 255.426 284.293 258.586C288.168 264.897 293.243 273.799 298.71 283.694C304.178 293.588 309.159 302.512 312.901 308.905L317.345 316.455C317.82 317.281 318.213 317.963 318.544 318.52C318.701 318.752 318.823 319.006 318.906 319.274Z" fill="#E0E0E0"/>
<path d="M393.423 282.165C393.195 282.336 392.949 282.482 392.689 282.599C392.111 282.898 391.397 283.27 390.529 283.704L382.55 287.701C375.822 291.078 366.572 295.84 356.361 301.128C346.15 306.416 336.817 311.084 330.037 314.317C326.637 315.938 323.836 317.219 321.934 318.066L319.712 319.026C319.456 319.155 319.185 319.252 318.906 319.315C319.126 319.131 319.374 318.981 319.64 318.871L321.8 317.766L329.768 313.769C336.507 310.402 345.757 305.631 355.968 300.343C366.179 295.055 375.481 290.355 382.292 287.154C385.692 285.532 388.493 284.251 390.385 283.404L392.617 282.444C392.871 282.313 393.143 282.219 393.423 282.165Z" fill="#E0E0E0"/>
<path d="M76.9566 25.9544C79.0442 25.6729 81.1672 25.817 83.1975 26.378C85.2278 26.9389 87.1234 27.905 88.7698 29.2181C92.042 31.8724 94.659 35.2438 96.4179 39.0711C100.025 46.3009 100.552 55.6788 99.9423 63.7658C91.0126 62.4748 84.0879 54.6254 80.822 50.4321C75.6543 43.7911 70.3833 28.6707 76.9772 25.9027" fill="#E6E6E6"/>
<path d="M113.781 70.6641C112.143 68.9783 110.979 66.8899 110.407 64.6102C109.835 62.3306 109.876 59.9404 110.526 57.6816C111.217 55.4352 112.35 53.3488 113.856 51.5437C115.362 49.7387 117.213 48.2511 119.3 47.1675C121.202 46.1347 123.507 45.4014 125.501 46.2277C126.418 46.6677 127.2 47.3454 127.765 48.1901C128.331 49.0348 128.659 50.0156 128.716 51.0303C128.802 53.067 128.349 55.0905 127.403 56.8967C124.458 63.1865 120.458 68.7431 113.771 70.6641" fill="#E6E6E6"/>
<path d="M117.151 90.7022C116.294 89.1316 115.602 87.4773 115.084 85.7653C114.436 83.9117 114.013 81.9873 113.823 80.0332C113.518 77.6666 113.37 75.2825 113.378 72.8964C113.404 68.5044 114.516 64.1867 116.613 60.327C117.267 59.1822 118.04 58.1091 118.918 57.1253C119.569 56.4437 119.952 56.0925 120.003 56.1545C120.055 56.2164 118.68 57.7347 117.171 60.6369C115.307 64.4647 114.322 68.6602 114.288 72.9171C114.28 75.2667 114.404 77.6149 114.66 79.9506C114.81 81.8539 115.157 83.7367 115.693 85.5691C116.3 87.2436 116.787 88.9589 117.151 90.7022Z" fill="#F5F5F5"/>
<path d="M82.0103 37.0576C82.6325 37.7166 83.1962 38.4285 83.6949 39.1852C84.7284 40.5898 86.2167 42.6348 88.0254 45.1756C91.6324 50.2673 96.552 57.3628 101.782 65.3258C107.011 73.2888 111.538 80.6425 114.701 85.9821C116.292 88.6675 117.543 90.8674 118.38 92.3959C118.856 93.1696 119.268 93.9815 119.61 94.8231C119.032 94.1212 118.52 93.3675 118.08 92.5715L114.153 86.3127C110.856 81.0246 106.236 73.7433 101.017 65.7803L87.4983 45.5784L83.3642 39.3815C82.8416 38.6506 82.3883 37.8726 82.0103 37.0576Z" fill="#F5F5F5"/>
<path d="M106.847 78.8338C103.034 75.6657 98.52 73.4511 93.6798 72.3734C88.8396 71.2958 83.8121 71.3861 79.0138 72.6369C76.5746 73.2979 73.8461 74.7025 73.5567 77.1813C73.2673 79.66 75.5411 81.7153 77.7735 82.8928C82.4649 85.2808 87.7588 86.2276 92.9878 85.6137C98.2168 84.9998 103.147 82.8528 107.157 79.4432" fill="#E6E6E6"/>
<path d="M84.9248 77.0372C85.3652 76.8518 85.8331 76.7402 86.3097 76.7067C87.2192 76.5415 88.5318 76.3866 90.1751 76.2316C94.4685 75.8127 98.8023 76.1873 102.96 77.3368C105.25 78.0357 107.411 79.1032 109.357 80.4972C110.918 81.6512 112.309 83.0174 113.492 84.5562C114.303 85.5762 115.012 86.6727 115.61 87.8302C115.872 88.2339 116.067 88.6767 116.189 89.1419C116.024 89.2348 115.083 87.4274 112.995 84.959C110.281 81.7508 106.689 79.4034 102.66 78.2043C98.5959 77.0996 94.3812 76.6499 90.1751 76.872C88.4299 77.0318 86.6766 77.087 84.9248 77.0372Z" fill="#F5F5F5"/>
<path d="M342.084 60.7313L333.358 90.248C332.552 92.9722 334.109 95.834 336.835 96.6398L366.369 105.371C369.095 106.177 371.957 104.622 372.763 101.898L381.489 72.3811C382.294 69.6569 380.738 66.7951 378.012 65.9893L348.478 57.2578C345.752 56.4519 342.89 58.0071 342.084 60.7313Z" fill="#5DB1FF"/>
<path d="M366.396 93.1697C366.409 93.0507 366.434 92.9331 366.468 92.8185L366.716 91.858L367.698 88.2638L371.254 75.5292L371.388 75.777L348.506 69.2703L348.805 69.105V69.1773V69.3322L348.723 69.6318L348.547 70.2205L348.185 71.3979C347.958 72.1828 347.731 72.9574 347.514 73.7217L346.118 78.2764C345.26 81.22 344.444 84.0396 343.689 86.6732L343.534 86.4047L359.968 91.228L364.649 92.6326L365.91 93.0147L366.355 93.1697L365.941 93.0767L364.711 92.7565L360.04 91.4758L343.41 86.8282L343.193 86.7662L343.255 86.5493C344.01 83.9156 344.806 81.096 345.653 78.1422C346.077 76.6652 346.501 75.147 346.945 73.6081C347.162 72.8438 347.389 72.0692 347.607 71.2843L347.948 70.1069L348.123 69.5078L348.206 69.2186V69.0637V68.9914L348.516 68.8262L371.378 75.4155L371.574 75.4775L371.522 75.6737C369.951 80.9824 368.649 85.3822 367.729 88.5117C367.275 89.9989 366.923 91.1867 366.696 92.0336C366.572 92.4054 366.479 92.7049 366.406 92.9424C366.407 93.0183 366.404 93.0942 366.396 93.1697Z" fill="#FAFAFA"/>
<path d="M357.219 67.7935C357.918 67.8878 358.609 68.0363 359.286 68.2376C360.567 68.5681 362.386 69.0535 364.547 69.6525H364.66V69.7765C364.981 71.0055 365.332 72.3379 365.694 73.7425L365.807 74.1556L365.394 74.0317L363.224 73.412C359.617 72.3792 356.351 71.4187 353.974 70.6957L353.674 70.6027L353.901 70.3962C355.824 68.63 357.115 67.6076 357.209 67.7625C357.209 67.7625 356.898 68.0104 356.361 68.5061L354.139 70.6544L354.067 70.3548C356.475 70.9952 359.751 71.9041 363.368 72.9369L365.539 73.5669L365.229 73.8561L364.195 69.8901L364.35 70.045C362.2 69.415 360.402 68.8573 359.183 68.4648C358.509 68.3002 357.852 68.0756 357.219 67.7935Z" fill="#FAFAFA"/>
<path d="M361.725 84.0077C361.725 84.0077 361.973 83.5946 362.262 82.789C362.656 81.6516 362.656 80.4149 362.262 79.2774C361.961 78.3545 361.409 77.5333 360.668 76.9057C359.927 76.2781 359.026 75.8686 358.066 75.7232C357.105 75.5777 356.123 75.7019 355.229 76.0819C354.335 76.4619 353.565 77.0828 353.003 77.8751C352.442 78.6675 352.112 79.6002 352.051 80.569C351.989 81.5378 352.199 82.5046 352.655 83.3615C353.112 84.2184 353.798 84.9315 354.636 85.4214C355.475 85.9112 356.434 86.1584 357.405 86.1353C358.611 86.1088 359.774 85.6839 360.712 84.927C361.373 84.3899 361.642 83.9768 361.684 84.0077C361.642 84.1198 361.583 84.2245 361.508 84.3176C361.315 84.5945 361.089 84.8476 360.836 85.0715C359.897 85.9302 358.686 86.4311 357.415 86.4865C356.469 86.5273 355.527 86.3303 354.677 85.9135C353.826 85.4967 353.094 84.8734 352.547 84.1007C351.891 83.1799 351.53 82.0812 351.514 80.9506C351.482 79.737 351.844 78.5458 352.547 77.5553C353.249 76.5648 354.254 75.8283 355.41 75.456C356.125 75.2167 356.88 75.1235 357.632 75.182C358.384 75.2404 359.116 75.4493 359.785 75.7961C360.454 76.143 361.047 76.6208 361.527 77.2011C362.008 77.7814 362.367 78.4524 362.583 79.1742C362.952 80.3873 362.887 81.6914 362.397 82.8613C362.267 83.176 362.101 83.4741 361.901 83.7495C361.818 83.9354 361.735 84.0181 361.725 84.0077Z" fill="#FAFAFA"/>
<path d="M296.778 0.134274L149.231 6.65214e-06C145.006 -0.00271074 140.822 0.827136 136.917 2.44207C133.013 4.057 129.466 6.42533 126.479 9.41156C123.491 12.3978 121.123 15.9433 119.508 19.8453C117.893 23.7473 117.064 27.9291 117.068 32.1516L116.996 401.817C117.004 410.328 120.391 418.488 126.413 424.506C132.435 430.525 140.601 433.909 149.118 433.917L296.675 434C300.895 434.003 305.075 433.174 308.975 431.563C312.875 429.951 316.42 427.587 319.405 424.606C322.391 421.625 324.76 418.086 326.377 414.19C327.993 410.294 328.826 406.118 328.828 401.9L328.9 32.2342C328.897 23.7216 325.512 15.5585 319.489 9.53916C313.465 3.51984 305.296 0.137012 296.778 0.134274ZM319.05 396.519C319.046 399.473 318.46 402.396 317.325 405.124C316.19 407.851 314.528 410.327 312.435 412.413C310.342 414.498 307.858 416.15 305.125 417.276C302.393 418.401 299.465 418.978 296.509 418.973L149.252 418.89C146.296 418.889 143.369 418.305 140.639 417.174C137.908 416.042 135.427 414.384 133.338 412.294C131.249 410.204 129.592 407.724 128.462 404.994C127.332 402.264 126.751 399.339 126.752 396.385L126.824 35.5702C126.823 32.6149 127.405 29.6883 128.536 26.9579C129.668 24.2274 131.327 21.7466 133.418 19.6573C135.51 17.5681 137.993 15.9114 140.726 14.782C143.459 13.6527 146.388 13.0728 149.345 13.0755H184.485C186.364 13.1188 188.149 13.9037 189.45 15.2584C190.752 16.6131 191.464 18.4275 191.43 20.3052V25.4693C191.397 27.3469 192.109 29.1614 193.41 30.5161C194.712 31.8708 196.497 32.6556 198.376 32.699H254.186C256.068 32.661 257.857 31.8782 259.161 30.5226C260.465 29.167 261.178 27.3494 261.142 25.4693V20.3052C261.106 18.4268 261.817 16.6108 263.119 15.2554C264.421 13.9001 266.208 13.1161 268.087 13.0755H296.695C299.652 13.0863 302.578 13.6792 305.306 14.8203C308.033 15.9615 310.509 17.6285 312.592 19.7261C314.675 21.8237 316.323 24.3108 317.444 27.0453C318.565 29.7799 319.135 32.7083 319.123 35.6632L319.05 396.519Z" fill="#5DB1FF"/>
<path d="M157.469 68.1454C165.871 68.1454 172.682 61.3387 172.682 52.9423C172.682 44.5459 165.871 37.7393 157.469 37.7393C149.067 37.7393 142.255 44.5459 142.255 52.9423C142.255 61.3387 149.067 68.1454 157.469 68.1454Z" fill="#EBEBEB"/>
<path d="M156.652 57.3839C156.582 57.3808 156.516 57.3513 156.466 57.3013L152.498 53.17C152.453 53.1206 152.428 53.0562 152.428 52.9893C152.428 52.9225 152.453 52.858 152.498 52.8086L156.466 48.6773C156.517 48.6293 156.583 48.6025 156.652 48.6025C156.722 48.6025 156.789 48.6293 156.839 48.6773C156.864 48.7014 156.883 48.7303 156.897 48.7622C156.911 48.7941 156.918 48.8285 156.918 48.8632C156.918 48.8979 156.911 48.9323 156.897 48.9642C156.883 48.9961 156.864 49.025 156.839 49.0491L153.045 53.0358L156.839 57.0328C156.864 57.0569 156.883 57.0858 156.897 57.1177C156.911 57.1496 156.918 57.184 156.918 57.2187C156.918 57.2534 156.911 57.2877 156.897 57.3197C156.883 57.3516 156.864 57.3805 156.839 57.4046C156.776 57.4177 156.711 57.4105 156.652 57.3839Z" fill="#263238"/>
<path d="M163.546 53.2H152.683C152.615 53.2 152.549 53.1728 152.5 53.1244C152.452 53.076 152.425 53.0103 152.425 52.9418C152.427 52.8741 152.455 52.8099 152.503 52.7621C152.551 52.7142 152.615 52.6861 152.683 52.6836H163.546C163.614 52.6836 163.68 52.7108 163.728 52.7592C163.777 52.8076 163.804 52.8733 163.804 52.9418C163.804 53.0103 163.777 53.076 163.728 53.1244C163.68 53.1728 163.614 53.2 163.546 53.2Z" fill="#263238"/>
<path d="M326.108 212.871C322.657 207.646 320.409 186.341 315.926 187.543C310.2 189.058 318.239 211.748 318.801 213.825C319.363 215.902 316.357 216.698 315.952 214.804C315.377 212.074 308.972 185.427 303.39 187.465C300.292 188.601 302.279 194.244 302.279 194.244C302.279 194.244 311.351 220.173 308.684 221.035C306.017 221.897 300.841 206.784 299.076 201.441C297.416 196.308 294.658 194.845 292.75 197.248C290.841 199.652 295.639 215.144 297.207 220.369C298.776 225.594 303.351 239.662 295.403 234.385C287.456 229.108 279.391 227.958 277.025 229.16C274.659 230.362 275.535 234.058 278.45 234.542C281.56 235.386 284.541 236.647 287.312 238.291C289.51 239.638 291.549 241.228 293.39 243.032C295.824 245.265 297.869 247.888 299.442 250.791C300.721 253.069 302.468 255.051 304.568 256.606C306.667 258.162 309.072 259.256 311.625 259.817L314.017 269.575L341.193 259.465L336.67 241.021C333.088 226.939 332.945 216.855 332.121 208.129C330.814 194.205 328.984 194.27 327.402 194.78C323.938 195.825 329.481 217.926 326.108 212.871Z" fill="#FFBE9D"/>
<path d="M331.075 230.818C329.84 231.4 328.647 232.068 327.506 232.817C324.837 234.756 322.865 237.505 321.886 240.654C321.591 241.602 321.398 242.579 321.31 243.567V244.038L320.892 243.842C318.518 242.769 315.983 242.093 313.389 241.843C311.441 241.647 310.265 241.712 310.252 241.621C311.288 241.377 312.356 241.306 313.415 241.412C316.09 241.535 318.719 242.155 321.167 243.241L320.696 243.515C320.782 242.474 320.979 241.445 321.284 240.445C321.843 238.66 322.73 236.995 323.899 235.534C324.856 234.345 325.994 233.313 327.271 232.477C328.135 231.942 329.055 231.503 330.016 231.171C330.345 230.991 330.704 230.871 331.075 230.818Z" fill="#EB996E"/>
<path d="M332.604 251.472C328.817 254.587 324.181 256.494 319.297 256.945C319.297 256.749 322.435 256.083 326.108 254.541C329.781 253 332.486 251.302 332.604 251.472Z" fill="#EB996E"/>
<path d="M340.526 387.726C334.539 387.151 328.871 384.763 324.279 380.881L280.424 343.836L280.816 386.537L289.508 387.164C289.508 387.164 291 385.5 293 394C295 402.5 289.508 419 289.508 419L151.291 418.919V418.162C142.938 411.056 137.801 400.344 135.984 388.654C132.677 367.519 131.448 333.073 128.494 308.724C126.429 291.587 130.207 269.393 145.487 261.295L157.252 256.658L194.348 242.054L242.007 244.248L273.823 253.17C282.646 256.514 290.254 267.081 295.678 274.867L322.2 311.742C321.913 305.72 310.933 269.38 310.214 267.748L342.631 254.332C342.631 254.332 376.081 328.605 371.584 360.7C367.833 387.439 340.526 387.726 340.526 387.726Z" fill="#263238"/>
<path d="M280.775 387.164C281.102 387.164 281.468 369.177 281.611 347.01C281.755 324.843 281.611 306.843 281.298 306.83C280.984 306.817 280.619 324.804 280.462 346.984C280.305 369.164 280.462 387.151 280.775 387.164Z" fill="#192226"/>
<path d="M166.584 400.396C166.787 398.863 167.289 397.385 168.061 396.046C169.737 392.715 172.061 389.752 174.899 387.332C177.736 384.912 181.029 383.082 184.583 381.951C186.025 381.396 187.562 381.13 189.106 381.168C189.106 381.337 187.433 381.677 184.845 382.67C178.055 385.264 172.368 390.117 168.741 396.411C167.355 398.815 166.754 400.448 166.584 400.396Z" fill="#192226"/>
<path d="M334.592 367.714C334.39 367.581 334.206 367.423 334.043 367.244C333.539 366.777 333.059 366.284 332.605 365.768C330.93 363.864 329.495 361.763 328.331 359.511C326.603 356.171 325.324 352.618 324.527 348.944C323.569 344.461 323.022 339.901 322.893 335.319C322.697 330.447 322.893 325.784 322.736 321.604C322.549 317.882 322.144 314.175 321.521 310.501C321.024 307.353 320.514 304.832 320.213 303.081C320.043 302.271 319.913 301.605 319.808 301.07C319.741 300.84 319.706 300.603 319.704 300.364C319.816 300.577 319.896 300.806 319.939 301.044C320.07 301.488 320.253 302.154 320.462 303.029C320.906 304.753 321.481 307.274 322.043 310.409C322.724 314.095 323.16 317.822 323.351 321.565C323.507 325.797 323.351 330.421 323.56 335.28C323.67 339.832 324.186 344.366 325.102 348.826C325.869 352.446 327.085 355.957 328.723 359.276C329.835 361.52 331.19 363.635 332.762 365.585C333.899 366.97 334.592 367.662 334.592 367.714Z" fill="#192226"/>
<path d="M263.626 116.444C255.365 114.211 247.091 121.826 238.634 120.468C233.497 119.632 229.484 115.7 224.896 113.323C217.981 109.756 208.373 109.404 201.563 113.218C194.753 117.032 190.413 120.873 189.799 128.619C183.368 125.209 173.12 133.504 169.8 141.276C166.479 149.048 167.643 156.951 169.943 165.063C173.948 179.108 180.671 192.231 189.734 203.689C190.531 204.694 191.799 205.805 192.936 205.217C193.296 204.953 193.588 204.606 193.786 204.206C193.983 203.806 194.082 203.364 194.073 202.918C195.028 195.368 193.812 187.752 192.91 180.202C192.008 172.652 191.42 164.867 193.564 157.578C195.707 150.289 201.145 143.51 208.543 141.786C214.02 140.479 219.798 142.112 224.791 144.699C229.785 147.285 234.203 150.799 238.974 153.842C243.745 156.886 249.065 159.263 254.659 159.315C260.254 159.368 266.202 156.533 268.424 151.373C270.646 146.214 267.718 139.082 262.189 138.115C264.725 137.791 267.071 136.597 268.825 134.738C270.579 132.878 271.634 130.468 271.808 127.919C271.982 125.369 271.266 122.838 269.781 120.757C268.296 118.677 266.135 117.176 263.666 116.51L263.626 116.444Z" fill="#263238"/>
<path d="M181.76 166.97L192.766 251.497C193.209 254.902 194.34 258.182 196.09 261.137C197.84 264.092 200.172 266.661 202.946 268.687C205.72 270.714 208.877 272.156 212.225 272.926C215.574 273.696 219.044 273.778 222.425 273.168C228.841 272.008 234.564 268.429 238.411 263.169C242.258 257.91 243.934 251.373 243.091 244.913C242.255 238.552 241.562 233.249 241.523 232.582C241.523 232.582 262.79 227.762 261.574 206.262C260.986 195.877 258.032 174.572 255.13 155.318C253.609 145.366 248.399 136.349 240.534 130.058C232.669 123.766 222.725 120.66 212.674 121.356L210.596 121.499C188.309 124.308 178.296 144.803 181.76 166.97Z" fill="#FFBE9D"/>
<path d="M241.523 232.27C231.637 233.126 221.72 231.03 213.027 226.248C213.027 226.248 220.713 241.244 242.033 237.834L241.523 232.27Z" fill="#EB996E"/>
<path d="M184.61 182.763C184.231 182.62 169.539 179.406 171.029 194.062C172.519 208.718 186.885 204.199 186.885 203.781C186.885 203.363 184.61 182.763 184.61 182.763Z" fill="#FFBE9D"/>
<path d="M181.864 198.685C181.864 198.685 181.629 198.881 181.21 199.129C180.627 199.447 179.945 199.531 179.302 199.364C177.707 198.946 176.152 196.621 175.812 193.995C175.647 192.74 175.763 191.464 176.152 190.26C176.244 189.788 176.449 189.345 176.749 188.97C177.05 188.595 177.437 188.298 177.877 188.104C178.163 187.996 178.478 187.992 178.767 188.092C179.056 188.193 179.301 188.391 179.459 188.653C179.694 189.045 179.629 189.345 179.707 189.371C179.785 189.397 179.995 189.084 179.825 188.496C179.704 188.139 179.464 187.834 179.145 187.634C178.932 187.504 178.695 187.418 178.448 187.38C178.201 187.342 177.95 187.353 177.707 187.412C177.116 187.589 176.581 187.916 176.153 188.359C175.725 188.803 175.418 189.35 175.263 189.946C174.763 191.279 174.601 192.715 174.792 194.126C175.184 197.065 176.975 199.678 179.158 200.069C179.564 200.145 179.982 200.127 180.38 200.019C180.778 199.91 181.147 199.713 181.459 199.442C181.877 199.038 181.916 198.698 181.864 198.685Z" fill="#EB996E"/>
<path d="M259.365 150.563C254.688 152.114 249.709 152.532 244.839 151.782C239.968 151.033 235.346 149.138 231.353 146.253C225.823 142.19 221.34 136.103 214.66 134.496C212.384 134.053 210.041 134.068 207.77 134.539C205.499 135.01 203.344 135.928 201.432 137.24C197.619 139.884 194.393 143.286 191.955 147.232C196.857 157.865 194.909 170.235 192.87 181.769C192.777 183.067 192.258 184.298 191.393 185.27C189.746 186.733 187.066 185.871 185.446 184.382C182.831 182.018 181.655 178.491 180.792 175.081C178.716 167.317 178.205 159.219 179.289 151.256C180.408 143.265 183.843 135.777 189.171 129.716C196.127 122.349 205.673 117.971 215.798 117.502C225.89 117.109 235.849 119.912 244.254 125.509C248.262 127.907 251.609 131.265 253.992 135.28" fill="#263238"/>
<path d="M270.163 121.186C270.253 121.617 270.253 122.062 270.163 122.493C269.895 123.72 269.246 124.831 268.307 125.667C266.799 126.95 264.922 127.723 262.947 127.874C261.732 128.019 260.503 128.019 259.287 127.874C257.87 127.747 256.515 127.237 255.366 126.398C254.733 125.93 254.213 125.326 253.846 124.629C253.48 123.932 253.275 123.162 253.248 122.375C253.309 121.519 253.61 120.698 254.117 120.005C254.623 119.312 255.314 118.775 256.111 118.456C256.929 118.079 257.825 117.9 258.725 117.934C259.674 117.987 260.585 118.324 261.34 118.9C262.113 119.489 262.747 120.239 263.199 121.099C263.651 121.959 263.908 122.907 263.954 123.877C264.051 125.91 263.352 127.901 262.006 129.429C260.628 130.984 258.866 132.15 256.895 132.812C252.741 134.065 248.286 133.89 244.242 132.316C240.26 130.826 236.461 128.885 232.922 126.529C229.656 124.373 226.215 122.495 222.635 120.912C219.401 119.512 215.877 118.911 212.361 119.162C209.309 119.466 206.362 120.443 203.734 122.022C199.913 124.355 196.761 127.635 194.584 131.545C193.972 132.598 193.418 133.684 192.924 134.797C192.77 135.192 192.591 135.576 192.388 135.947C192.397 135.839 192.423 135.733 192.466 135.633C192.545 135.438 192.636 135.124 192.793 134.745C193.228 133.6 193.743 132.487 194.335 131.414C196.451 127.377 199.611 123.981 203.485 121.578C206.14 119.912 209.131 118.855 212.243 118.482C215.857 118.191 219.488 118.787 222.818 120.22C226.459 121.787 229.958 123.666 233.275 125.837C236.756 128.152 240.488 130.067 244.399 131.545C248.289 133.069 252.578 133.248 256.582 132.054C258.432 131.455 260.092 130.378 261.392 128.932C262.011 128.25 262.489 127.452 262.799 126.585C263.108 125.717 263.243 124.797 263.196 123.877C263.169 123.008 262.954 122.156 262.566 121.378C262.178 120.6 261.625 119.915 260.947 119.371C260.294 118.888 259.52 118.595 258.71 118.523C257.901 118.452 257.087 118.605 256.359 118.966C255.642 119.227 255.015 119.689 254.552 120.295C254.088 120.902 253.809 121.628 253.745 122.388C253.764 123.092 253.944 123.783 254.27 124.408C254.596 125.033 255.06 125.575 255.627 125.993C256.679 126.785 257.926 127.277 259.235 127.417C260.416 127.554 261.609 127.554 262.791 127.417C264.701 127.309 266.53 126.606 268.019 125.406C268.931 124.616 269.59 123.575 269.914 122.414C270.021 122.01 270.104 121.6 270.163 121.186Z" fill="#455A64"/>
<path d="M167.982 154.105C169.478 154.532 171.009 154.821 172.557 154.967C174.228 155.002 175.889 154.709 177.446 154.105C179.359 153.362 181.152 152.341 182.766 151.074C185.689 148.751 187.776 145.542 188.714 141.93C189.035 140.41 189.254 138.869 189.367 137.319C189.509 137.739 189.566 138.183 189.537 138.626C189.563 139.788 189.454 140.95 189.21 142.087C188.396 145.901 186.279 149.314 183.224 151.74C181.544 153.054 179.67 154.099 177.668 154.836C176.026 155.436 174.276 155.686 172.531 155.568C171.361 155.478 170.211 155.214 169.12 154.784C168.705 154.624 168.32 154.394 167.982 154.105Z" fill="#455A64"/>
<path d="M169.355 164.685C169.355 164.554 171.107 164.815 173.878 164.476C177.476 164.043 180.893 162.654 183.771 160.453C186.65 158.252 188.885 155.32 190.243 151.962C191.302 149.349 191.55 147.638 191.629 147.664C191.703 148.07 191.703 148.486 191.629 148.892C191.45 150 191.17 151.089 190.792 152.145C189.525 155.673 187.266 158.76 184.287 161.038C181.307 163.315 177.734 164.686 173.995 164.985C172.878 165.089 171.753 165.089 170.636 164.985C170.194 164.965 169.76 164.863 169.355 164.685Z" fill="#455A64"/>
<path d="M289.155 391.24C286.5 393 286.5 419 286.5 419H299L311.285 418.736C315.686 419.215 320.119 419.333 324.54 419.089C324.753 419.092 324.964 419.042 325.154 418.945C325.839 418.85 326.514 418.688 327.167 418.462C328.344 418.031 329.559 417.273 329.376 415.98C328.801 412.061 326.448 411.695 326.448 411.695L325.259 411.617L325.167 411.277C326.958 411.277 328.461 411.277 329.259 411.147C329.638 411.147 329.847 411.055 329.873 411.003C329.899 410.951 334.5 410.454 334.147 408.012C333.585 404.093 331.219 403.727 331.219 403.727L327.416 403.479C329.259 403.479 330.827 403.479 331.651 403.348C332.017 403.348 332.239 403.27 332.265 403.218C332.291 403.166 336.892 402.656 336.539 400.213C335.964 396.295 333.611 395.942 333.611 395.942L330.461 395.72C331.951 395.72 333.193 395.72 333.886 395.602C334.265 395.602 334.474 395.511 334.5 395.459C334.526 395.406 339.128 394.91 338.775 392.467C338.213 388.549 335.847 388.183 335.847 388.183C335.847 388.183 328.566 387.66 323.573 387.465C323.573 387.465 317.899 382.344 315.73 382.579C312.396 382.932 292.985 390.103 292.985 390.103C292.985 390.103 290.456 390.377 289.155 391.24Z" fill="#FFBE9D"/>
<path d="M313.678 410.754C313.678 410.989 316.593 411.263 320.148 411.381C323.704 411.498 326.579 411.381 326.553 411.172C326.527 410.963 323.638 410.662 320.083 410.545C316.527 410.427 313.678 410.532 313.678 410.754Z" fill="#EB996E"/>
<path d="M313.599 402.928C313.599 403.15 317.717 403.49 322.749 403.673C327.782 403.856 331.899 403.804 331.978 403.581C332.056 403.359 327.86 403.007 322.828 402.837C317.795 402.667 313.678 402.693 313.599 402.928Z" fill="#EB996E"/>
<g opacity="0.78">
<path opacity="0.78" d="M314.265 394.962C314.265 395.197 318.37 395.537 323.415 395.707C328.461 395.876 332.644 395.85 332.644 395.615C332.644 395.38 328.539 395.054 323.494 394.871C318.448 394.688 314.265 394.74 314.265 394.962Z" fill="#EB996E"/>
</g>
<path d="M325.677 387.491C324.712 387.668 323.73 387.743 322.749 387.713L315.677 387.948L308.606 388.196C307.629 388.314 306.641 388.314 305.665 388.196C306.616 387.936 307.594 387.787 308.579 387.752C310.383 387.569 312.893 387.387 315.651 387.295C318.409 387.204 320.88 387.204 322.749 387.295C323.729 387.238 324.713 387.304 325.677 387.491Z" fill="#EB996E"/>
<path d="M289.508 387.163H289.051L287.743 387.098L282.646 386.798L263.914 385.648C248.085 384.682 226.216 383.31 202.06 382.082L189.119 381.494H188.806V381.181C188.609 375.956 188.126 370.809 187.747 365.898C187.368 360.986 186.923 356.271 186.531 351.803C185.747 342.869 185.041 334.901 184.44 328.226C183.838 321.551 183.394 316.26 183.133 312.551C182.976 310.748 182.871 309.337 182.78 308.332C182.78 307.874 182.78 307.509 182.714 307.234C182.703 307.108 182.703 306.981 182.714 306.855C182.753 306.974 182.775 307.097 182.78 307.221C182.78 307.509 182.858 307.861 182.923 308.318C183.028 309.324 183.185 310.735 183.381 312.538C183.76 316.247 184.296 321.577 184.963 328.213C185.629 334.848 186.361 342.843 187.211 351.725C187.603 356.192 188.021 360.869 188.518 365.819C189.015 370.77 189.407 375.825 189.616 381.155L189.289 380.815L202.243 381.39C226.399 382.618 248.268 384.068 264.084 385.152L282.815 386.458L287.9 386.876L289.207 387.007L289.508 387.163Z" fill="#192226"/>
</svg>
