<svg width="31" height="31" viewBox="0 0 31 31" fill="none" xmlns="http://www.w3.org/2000/svg">
<path opacity="0.8" fill-rule="evenodd" clip-rule="evenodd" d="M22.1525 17.0607C19.7314 19.4818 15.8923 19.4659 13.5771 17.1508C11.262 14.8357 11.2461 10.9965 13.6672 8.5754C16.0884 6.15426 19.9275 6.17016 22.2426 8.48528C24.5578 10.8004 24.5737 14.6395 22.1525 17.0607ZM12.6059 20.2437C16.1279 22.7413 21.0759 22.3799 24.2738 19.182C27.8383 15.6175 27.8787 9.87868 24.364 6.36396C20.8492 2.84924 15.1104 2.88959 11.5459 6.45408C8.34787 9.65213 7.98663 14.6005 10.4845 18.1224L6.68492 21.922C6.09913 22.5078 6.09913 23.4576 6.68492 24.0434C7.27071 24.6291 8.22045 24.6291 8.80624 24.0434L12.6059 20.2437Z" fill="white"/>
</svg>
