<svg width="24" height="24" viewBox="0 0 24 24" fill="none" xmlns="http://www.w3.org/2000/svg">
<path d="M23.9943 12.1341C23.9214 14.4609 23.1469 16.7142 21.7687 18.6092C20.3906 20.5042 18.4707 21.9558 16.2517 22.7806C14.0327 23.6054 11.6143 23.7663 9.30217 23.2429C6.99 22.7196 4.88791 21.5355 3.26161 19.8404C1.6353 18.1452 0.557797 16.0151 0.165302 13.7194C-0.227193 11.4236 0.0829435 9.06516 1.0565 6.94226C2.03006 4.81936 3.62334 3.02726 5.63493 1.79251C7.64652 0.557769 9.98612 -0.0641997 12.358 0.00524057C13.9341 0.0513834 15.4854 0.401795 16.9234 1.03644C18.3613 1.67108 19.6577 2.57752 20.7384 3.70394C21.8191 4.83035 22.6629 6.15466 23.2215 7.60116C23.7802 9.04766 24.0428 10.588 23.9943 12.1341Z" fill="#FF725E"/>
<path opacity="0.5" d="M23.9943 12.1341C23.9214 14.4609 23.1469 16.7142 21.7687 18.6092C20.3906 20.5042 18.4707 21.9558 16.2517 22.7806C14.0327 23.6054 11.6143 23.7663 9.30217 23.2429C6.99 22.7196 4.88791 21.5355 3.26161 19.8404C1.6353 18.1452 0.557797 16.0151 0.165302 13.7194C-0.227193 11.4236 0.0829435 9.06516 1.0565 6.94226C2.03006 4.81936 3.62334 3.02726 5.63493 1.79251C7.64652 0.557769 9.98612 -0.0641997 12.358 0.00524057C13.9341 0.0513834 15.4854 0.401795 16.9234 1.03644C18.3613 1.67108 19.6577 2.57752 20.7384 3.70394C21.8191 4.83035 22.6629 6.15466 23.2215 7.60116C23.7802 9.04766 24.0428 10.588 23.9943 12.1341Z" fill="white"/>
<path d="M9.63769 8.53899C9.42552 8.26758 9.11374 8.08812 8.76873 8.03882C8.42371 7.98951 8.07271 8.07424 7.79042 8.27499C7.51727 8.45574 7.28693 8.69201 7.11502 8.96775C6.94311 9.24349 6.83365 9.55228 6.79406 9.87316C6.76352 9.54609 6.66207 9.22919 6.4965 8.94371C6.33093 8.65824 6.10507 8.41078 5.83406 8.21792C5.56155 8.00366 5.21547 7.90045 4.86751 7.92967C4.51955 7.95889 4.19638 8.1183 3.96497 8.37489C3.71094 8.73505 3.6021 9.17485 3.65951 9.60919C3.684 10.0449 3.82715 10.4662 4.07406 10.8292C4.81262 11.7355 5.71798 12.4979 6.74315 13.0766C7.75378 12.5524 8.65051 11.8399 9.38314 10.979C9.65045 10.6313 9.81863 10.2201 9.87042 9.78755C9.95505 9.35746 9.872 8.91187 9.63769 8.53899Z" fill="#FF725E"/>
<path d="M20.1979 8.83044C19.9858 8.5586 19.6733 8.37936 19.3278 8.33132C18.9823 8.28328 18.6314 8.37029 18.3506 8.57361C18.0754 8.75224 17.8436 8.98793 17.6714 9.26408C17.4993 9.54022 17.391 9.85008 17.3542 10.1718C17.3237 9.84468 17.2222 9.52778 17.0567 9.24231C16.8911 8.95683 16.6652 8.70939 16.3942 8.51654C16.1224 8.30058 15.7759 8.19628 15.4275 8.22554C15.079 8.25481 14.7556 8.41536 14.5251 8.6735C14.2698 9.0331 14.1609 9.47337 14.2197 9.90778C14.2405 10.3442 14.384 10.7664 14.6342 11.1278C15.3728 12.0341 16.2782 12.7965 17.3033 13.3752C18.3108 12.8464 19.2067 12.1346 19.9433 11.2776C20.2109 10.9274 20.379 10.5138 20.4306 10.079C20.5138 9.64891 20.4308 9.20383 20.1979 8.83044Z" fill="#FF725E"/>
<path d="M15.8924 14.6741C15.7743 15.648 15.2846 16.542 14.522 17.1762C13.7593 17.8103 12.7802 18.1377 11.7815 18.0925C10.7828 18.0474 9.83853 17.6329 9.13863 16.9326C8.43872 16.2322 8.03505 15.2978 8.00879 14.3174L15.8924 14.6741Z" fill="white"/>
</svg>
